<?xml version="1.0" encoding="UTF-8"?>
<svg id="Layer_1" data-name="Layer 1" xmlns="http://www.w3.org/2000/svg" viewBox="0 0 54.03 51">
  <defs>
    <style>
      .cls-1 {
        fill: #008d36;
      }

      .cls-2 {
        fill: #3aaa35;
      }
    </style>
  </defs>
  <path class="cls-1" d="M22.66,47.81c-.69,0-1.36-.21-1.99-.63-.76-.5-1.57-1.5-2.72-2.97-.32-.4-.6-.77-.81-1.01-5.12-5.87-10.09-11.7-14.76-17.32l-.13-.15-.09-.17c-.71-1.3-.59-2.81.31-4.05l.17-.23.23-.18c.73-.57,1.48-1.27,2.26-2,.99-.92,2-1.88,3.08-2.65.69-.49,1.53-.99,2.57-.99.89,0,1.74.36,2.51,1.08l.08.07,9.22,10.6c4.07-4.57,8.3-9.08,12.4-13.47,1.87-1.99,3.73-3.98,5.58-5.98.2-.22.51-.58.86-1,1.82-2.17,2.72-3.14,3.58-3.54.53-.25,1.04-.37,1.55-.37.76,0,1.38.27,1.89.54l.37.2.26.33c.3.38.93.89,1.54,1.39.96.78,1.95,1.59,2.54,2.53.51.82.64,1.85.34,2.84-.17.58-.6,1.17-1.78,2.64-.14.17-.25.31-.33.41-7.21,9.37-14.75,18.73-22.05,27.77l-4.36,5.41-.19.14c-.65.5-1.39.76-2.14.76h0Z"/>
  <path class="cls-2" d="M18.86,41.67c-4.97-5.7-9.89-11.47-14.73-17.28-.35-.65-.25-1.34.17-1.93,1.76-1.37,3.49-3.33,5.28-4.6.93-.66,1.62-.94,2.58-.07l10.7,12.31c0-.13.08-.24.16-.33,6.24-7.09,12.82-13.95,19.23-20.86.79-.85,2.99-3.7,3.82-4.09.65-.3,1.05-.2,1.67.13.95,1.19,3.18,2.52,3.95,3.74.22.35.24.82.12,1.21s-1.42,1.94-1.77,2.4c-8.56,11.13-17.43,22.03-26.24,32.96-.59.45-1.19.45-1.8.05-.79-.52-2.39-2.78-3.13-3.63h-.01ZM22.38,43.53c.18.19.31.45.54.61,9.16-11.46,18.25-23,27.21-34.63l.06-.23-3.33-3.25-23.88,25.87c-.35.15-.63-.13-.88-.34l-11.17-12.78-5.48,4.6-.04.15c.6.78,1.23,1.56,1.86,2.32,4.8,5.78,9.98,12.26,15.11,17.68Z"/>
</svg>