<?xml version="1.0" encoding="UTF-8"?>
<svg id="Layer_1" data-name="Layer 1" xmlns="http://www.w3.org/2000/svg" xmlns:xlink="http://www.w3.org/1999/xlink" viewBox="0 0 165.43 117.64">
  <defs>
    <style>
      .cls-1 {
        fill: #e7af12;
      }

      .cls-2 {
        fill: #b6870f;
        stroke: #7c4412;
        stroke-miterlimit: 10;
        stroke-width: .25px;
      }

      .cls-3 {
        fill: url(#linear-gradient-5);
      }

      .cls-4 {
        fill: url(#linear-gradient-4);
      }

      .cls-5 {
        fill: url(#linear-gradient-3);
      }

      .cls-6 {
        fill: url(#linear-gradient-2);
      }

      .cls-7 {
        fill: url(#linear-gradient);
      }

      .cls-8 {
        fill: #008d36;
      }

      .cls-9 {
        fill: #020302;
      }

      .cls-10 {
        fill: #3aaa35;
      }
    </style>
    <linearGradient id="linear-gradient" x1="65.94" y1="63.35" x2="65.94" y2="77.6" gradientUnits="userSpaceOnUse">
      <stop offset=".17" stop-color="#e4b429"/>
      <stop offset="1" stop-color="#9e6514"/>
    </linearGradient>
    <linearGradient id="linear-gradient-2" x1="32.24" y1="60.33" x2="32.24" y2="76.37" gradientUnits="userSpaceOnUse">
      <stop offset=".3" stop-color="#e4b429"/>
      <stop offset=".67" stop-color="#9e6514"/>
    </linearGradient>
    <linearGradient id="linear-gradient-3" x1="41.17" y1="69.7" x2="41.17" y2="85" xlink:href="#linear-gradient"/>
    <linearGradient id="linear-gradient-4" x1="57.32" y1="73.14" x2="57.32" y2="86.39" xlink:href="#linear-gradient"/>
    <linearGradient id="linear-gradient-5" x1="48.64" y1="76.76" x2="48.64" y2="94.72" xlink:href="#linear-gradient"/>
  </defs>
  <g>
    <g>
      <path class="cls-9" d="M152.43,13.63v90.63H15.69V13.83l.2-.2h136.54ZM151.25,14.81H17.06l-.2.2v88.09l.2.2h133.73c.13,0,.37-.07.46-.2V14.81Z"/>
      <path class="cls-1" d="M85.72,8.96c.94-.12,1.67,1.16.83,1.87-1.52,1.3-2.58-1.64-.83-1.87Z"/>
      <path class="cls-1" d="M115.07,8.98c1.05-.01,1.57,1.46.48,2.03-1.55.8-2.2-2-.48-2.03Z"/>
      <path class="cls-1" d="M119.91,8.96c1.37-.12,1.54,2.15.1,2.18-1.31.03-1.47-2.06-.1-2.18Z"/>
      <path class="cls-1" d="M17.08,8.97c1.36-.07,1.4,2.1.1,2.18-1.41.09-1.49-2.1-.1-2.18Z"/>
      <path class="cls-1" d="M26.3,10.86c-1.02-1.02.73-2.52,1.59-1.52s-.63,2.48-1.59,1.52Z"/>
      <path class="cls-1" d="M80.06,9.36c.73-.89,2.51.04,1.72,1.26-.87,1.34-2.56-.23-1.72-1.26Z"/>
      <path class="cls-1" d="M71.47,8.99c1.41,0,1.29,2.25-.12,2.16-1.2-.08-1.32-2.16.12-2.16Z"/>
      <path class="cls-1" d="M65.83,10.86c-1.11-1.11.88-2.7,1.67-1.34.63,1.09-.84,2.17-1.67,1.34Z"/>
      <path class="cls-1" d="M56.36,9.09c1.75-.4,1.85,1.81.59,2.04-1.34.24-1.67-1.8-.59-2.04Z"/>
      <path class="cls-1" d="M51.67,106.91c1.38-.22,1.68,1.89.35,2.06-1.46.19-1.7-1.84-.35-2.06Z"/>
      <path class="cls-1" d="M22.04,8.97c1.39-.08,1.42,2.2-.02,2.17-1.35-.03-1.24-2.1.02-2.17Z"/>
      <path class="cls-1" d="M61.46,106.92c1.51-.22,1.63,1.96.22,2.06-1.27.08-1.57-1.86-.22-2.06Z"/>
      <path class="cls-1" d="M52.58,10.86c-.98.98-2.59-.75-1.34-1.66,1.03-.76,2.22.78,1.34,1.66Z"/>
      <path class="cls-1" d="M95.61,9c1.3.05,1.32,2.11,0,2.14s-1.45-2.2,0-2.14Z"/>
      <path class="cls-1" d="M124.47,9.09c1.73-.39,1.76,1.83.59,2.04-1.32.24-1.72-1.79-.59-2.04Z"/>
      <path class="cls-1" d="M41.62,9.09c1.75-.39,1.73,1.87.46,2.03-1.2.16-1.67-1.77-.46-2.03Z"/>
      <path class="cls-1" d="M46.83,8.97c1.4-.12,1.5,2.17.11,2.16s-1.28-2.06-.11-2.16Z"/>
      <path class="cls-1" d="M61.69,8.99c1.32,0,1.32,2.25-.12,2.16-1.23-.08-1.27-2.16.12-2.16Z"/>
      <path class="cls-1" d="M55.91,107.18c.79-.86,2.35.2,1.67,1.35-.73,1.23-2.73-.2-1.67-1.35Z"/>
      <path class="cls-1" d="M66.42,106.91c1.54-.19,1.6,2.08.09,2.07-1.14,0-1.42-1.9-.09-2.07Z"/>
      <path class="cls-1" d="M71.24,106.91c1.42-.21,1.71,1.88.35,2.06-1.51.2-1.54-1.88-.35-2.06Z"/>
      <path class="cls-1" d="M75.81,9.09c1.57-.36,1.84,1.86.46,2.04-1.27.16-1.61-1.77-.46-2.04Z"/>
      <path class="cls-1" d="M16.96,106.91c1.22-.2,1.75,1.88.35,2.06s-1.7-1.84-.35-2.06Z"/>
      <path class="cls-1" d="M36.66,9.09c1.53-.45,1.99,1.73.56,2.01-1.26.25-1.68-1.68-.56-2.01Z"/>
      <path class="cls-1" d="M105.29,8.97c1.32-.07,1.46,2.07.09,2.14s-1.46-2.07-.09-2.14Z"/>
      <path class="cls-1" d="M41.75,106.91c1.23-.23,1.77,1.88.35,2.06-1.51.19-1.61-1.83-.35-2.06Z"/>
      <path class="cls-1" d="M104.58,107.19c1-1,2.45.66,1.47,1.53-1.05.93-2.41-.59-1.47-1.53Z"/>
      <path class="cls-1" d="M119.78,106.91c1.37-.28,1.71,1.78.46,2.04-1.35.28-1.86-1.75-.46-2.04Z"/>
      <path class="cls-1" d="M31.7,9.09c1.99-.46,1.66,2.78-.13,1.9-.77-.38-.66-1.72.13-1.9Z"/>
      <path class="cls-1" d="M46.71,106.91c1.38-.25,1.64,1.81.46,2.04-1.53.3-1.73-1.82-.46-2.04Z"/>
      <path class="cls-1" d="M134.65,107.18c.87.93-.74,2.62-1.66,1.34-.84-1.16.9-2.15,1.66-1.34Z"/>
      <path class="cls-1" d="M80.77,106.91c1.28-.21,1.64,1.9.35,2.06-1.46.18-1.7-1.84-.35-2.06Z"/>
      <path class="cls-1" d="M114.82,106.91c1.33-.28,1.84,1.76.46,2.04s-1.71-1.78-.46-2.04Z"/>
      <path class="cls-1" d="M128.73,10.73c-.84-1.01.69-2.35,1.59-1.39,1.03,1.09-.71,2.45-1.59,1.39Z"/>
      <path class="cls-1" d="M109.55,10.85c-.79-.73-.11-2.27,1.13-1.72,1.42.63.01,2.77-1.13,1.72Z"/>
      <path class="cls-1" d="M85.59,106.91c1.36-.28,1.79,1.77.46,2.04s-1.71-1.78-.46-2.04Z"/>
      <path class="cls-1" d="M100.07,9.09c1.88-.56,1.8,2.16.4,2.04-1.17-.1-1.28-1.77-.4-2.04Z"/>
      <path class="cls-1" d="M133.74,8.96c1.2-.1,1.56,1.78.46,2.04-1.62.37-1.85-1.91-.46-2.04Z"/>
      <path class="cls-1" d="M26.88,106.91c1.33-.24,1.72,1.78.46,2.04-1.41.29-1.77-1.81-.46-2.04Z"/>
      <path class="cls-1" d="M21.92,106.91c1.36-.21,1.75,2.09.1,2.07-1.29-.01-1.25-1.89-.1-2.07Z"/>
      <path class="cls-1" d="M138.96,107.18c.87.95-.6,2.43-1.54,1.47-1.02-1.04.66-2.42,1.54-1.47Z"/>
      <path class="cls-1" d="M124.02,108.68c-.17-.18-.2-.7-.17-.95.12-1.18,2.29-1.15,1.96.52-.14.74-1.32.93-1.79.43Z"/>
      <path class="cls-1" d="M109.99,106.91c1.69-.35,1.6,2.55-.1,2.01-.99-.32-.8-1.82.1-2.01Z"/>
      <path class="cls-1" d="M31.84,106.91c1.19-.22,1.72,1.41.74,1.92-1.55.8-2.08-1.67-.74-1.92Z"/>
      <path class="cls-1" d="M36.21,108.68c-.87-.95.6-2.43,1.54-1.47,1.02,1.04-.66,2.42-1.54,1.47Z"/>
      <path class="cls-1" d="M90.29,9.09c1.79-.53,2.03,2.22.28,1.99-1.03-.13-1.01-1.78-.28-1.99Z"/>
      <path class="cls-1" d="M100.34,106.91c1.35-.17,1.56,1.93.21,2.06s-1.56-1.89-.21-2.06Z"/>
      <path class="cls-1" d="M95.38,106.91c1.38-.25,1.64,1.81.46,2.05-1.53.31-1.6-1.84-.46-2.05Z"/>
      <path class="cls-1" d="M129.43,106.92c1.33-.18,1.52,1.93.22,2.06-1.49.15-1.44-1.9-.22-2.06Z"/>
      <path class="cls-1" d="M142.26,106.91c1.37-.28,1.71,1.78.46,2.04-1.35.28-1.86-1.75-.46-2.04Z"/>
      <path class="cls-1" d="M156.78,107.01c.87.93-.74,2.62-1.66,1.34-.84-1.16.9-2.15,1.66-1.34Z"/>
      <path class="cls-1" d="M146.5,108.68c-.17-.18-.2-.7-.17-.95.12-1.18,2.29-1.15,1.96.52-.14.74-1.32.93-1.79.43Z"/>
      <path class="cls-1" d="M151.91,106.92c1.33-.18,1.52,1.93.22,2.06-1.49.15-1.44-1.9-.22-2.06Z"/>
      <path class="cls-1" d="M137.92,9.09c1.2-.26,1.84,1.12.89,1.8-1.34.97-2.33-1.49-.89-1.8Z"/>
      <path class="cls-1" d="M142.66,10.73c-.84-1.01.69-2.35,1.59-1.39,1.03,1.09-.71,2.45-1.59,1.39Z"/>
      <path class="cls-1" d="M147.68,8.96c1.2-.1,1.56,1.78.46,2.04-1.62.37-1.85-1.91-.46-2.04Z"/>
      <path class="cls-1" d="M151.85,8.92c1.2-.26,1.84,1.12.89,1.8-1.34.97-2.33-1.49-.89-1.8Z"/>
      <path class="cls-1" d="M76.17,106.95c1.33,0,1.24,1.94.13,2.04-1.59.15-1.48-2.04-.13-2.04Z"/>
      <path class="cls-1" d="M89.97,108.68c-.83-.83.46-2.52,1.47-1.4s-.64,2.24-1.47,1.4Z"/>
      <path class="cls-1" d="M155.78,63.24c1.31-.17,1.48,1.93.22,2.06-1.36.14-1.52-1.89-.22-2.06Z"/>
      <path class="cls-1" d="M155.65,13.5c1.03-.21,1.65,1.04.83,1.75-1.37,1.17-2.43-1.42-.83-1.75Z"/>
      <path class="cls-1" d="M155.65,9.2c1.03-.21,1.65,1.04.83,1.75-1.37,1.17-2.43-1.42-.83-1.75Z"/>
      <path class="cls-1" d="M12,106.91c1.29-.2,1.55,1.93.22,2.06s-1.44-1.87-.22-2.06Z"/>
      <path class="cls-1" d="M12.01,14.05c1.09-.14,1.55,1.42.59,1.9-1.44.71-2.14-1.7-.59-1.9Z"/>
      <path class="cls-1" d="M155.52,53.59c1.49-.34,1.78,1.53.7,1.87-1.53.49-1.73-1.63-.7-1.87Z"/>
      <path class="cls-1" d="M155.88,33.79c1.34,0,1.29,2.01,0,2.01s-1.39-2.01,0-2.01Z"/>
      <path class="cls-1" d="M12.91,10.73c-.57.71-2.02.22-1.76-.91.37-1.62,2.82-.4,1.76.91Z"/>
      <path class="cls-1" d="M155.07,97.96c.61-.76,2.23-.07,1.72,1.13-.54,1.27-2.72.11-1.72-1.13Z"/>
      <path class="cls-1" d="M155.52,23.97c1.5-.34,1.78,1.53.7,1.87-1.36.43-1.88-1.6-.7-1.87Z"/>
      <path class="cls-1" d="M155.52,92.86c1.33-.3,1.83,1.26.86,1.77-1.39.73-2.17-1.47-.86-1.77Z"/>
      <path class="cls-1" d="M155.65,38.71c1.62-.34,1.65,2.46-.23,1.88-.87-.27-.66-1.69.23-1.88Z"/>
      <path class="cls-1" d="M156.69,88.18c.91,1.14-1.14,2.41-1.72,1.14s1.09-1.92,1.72-1.14Z"/>
      <path class="cls-1" d="M155.65,43.67c1.29-.27,1.64,1.59.59,1.91-1.53.46-1.89-1.64-.59-1.91Z"/>
      <path class="cls-1" d="M155.78,82.95c1.28-.13,1.45,1.72.36,1.93-1.61.3-1.69-1.8-.36-1.93Z"/>
      <path class="cls-1" d="M155.52,19.01c1.41-.31,1.81,1.52.7,1.87-1.42.46-1.79-1.63-.7-1.87Z"/>
      <path class="cls-1" d="M155.52,68.33c1.89-.42,1.79,2.34-.13,1.77-.73-.21-.76-1.57.13-1.77Z"/>
      <path class="cls-1" d="M155.65,48.62c1.65-.34,1.58,2.48-.23,1.88-.8-.26-.69-1.68.23-1.88Z"/>
      <path class="cls-1" d="M11.87,48.62c1.62-.33,1.67,2.44-.1,1.88-.98-.31-.78-1.69.1-1.88Z"/>
      <path class="cls-1" d="M11.87,23.97c1.51-.33,1.6,1.71.46,1.91-1.27.23-1.74-1.63-.46-1.91Z"/>
      <path class="cls-1" d="M11.87,19.01c1.49-.32,1.62,1.67.46,1.91-1.31.27-1.67-1.65-.46-1.91Z"/>
      <path class="cls-1" d="M11.74,92.86c1.68-.5,1.79,1.97.38,1.92-1.23-.04-1.24-1.67-.38-1.92Z"/>
      <path class="cls-1" d="M155.07,78.39c.71-.88,2.53.21,1.53,1.34-.86.97-2.31-.37-1.53-1.34Z"/>
      <path class="cls-1" d="M12.01,97.69c1.23-.16,1.48,1.68.46,1.91-1.49.33-1.86-1.73-.46-1.91Z"/>
      <path class="cls-1" d="M12,43.67c1.21-.12,1.49,1.67.46,1.9-1.6.37-1.8-1.77-.46-1.9Z"/>
      <path class="cls-1" d="M11.74,63.37c1.84-.55,1.74,2.39.08,1.83-.97-.33-.82-1.61-.08-1.83Z"/>
      <path class="cls-1" d="M155.78,102.52c1.32-.13,1.38,1.74.36,1.93-1.55.29-1.68-1.8-.36-1.93Z"/>
      <path class="cls-1" d="M11.87,78.12c1.51-.33,1.6,1.71.46,1.91-1.31.24-1.67-1.65-.46-1.91Z"/>
      <path class="cls-1" d="M155.65,58.41c1.33-.24,1.65,1.68.46,1.91-1.5.3-1.6-1.71-.46-1.91Z"/>
      <path class="cls-1" d="M11.43,89.53c-1.02-.93.63-2.35,1.46-1.39s-.46,2.29-1.46,1.39Z"/>
      <path class="cls-1" d="M12.01,58.41c1.6-.21,1.34,2.52-.33,1.83-.92-.38-.67-1.7.33-1.83Z"/>
      <path class="cls-1" d="M11.74,33.88c1.52-.45,1.84,1.53.69,1.88s-1.88-1.53-.69-1.88Z"/>
      <path class="cls-1" d="M11.87,53.58c1.74-.36,1.5,2.57-.19,1.84-.82-.35-.69-1.65.19-1.84Z"/>
      <path class="cls-1" d="M155.07,73.43c.83-.88,2.47.3,1.53,1.34s-2.31-.51-1.53-1.34Z"/>
      <path class="cls-1" d="M11.43,38.99c.94-.86,2.27.44,1.46,1.39s-2.47-.46-1.46-1.39Z"/>
      <path class="cls-1" d="M11.42,83.22c.71-.6,1.81-.14,1.65.93-.26,1.75-2.94.16-1.65-.93Z"/>
      <path class="cls-1" d="M11.43,69.96c-.98-.9.45-2.26,1.39-1.45s-.38,2.38-1.39,1.45Z"/>
      <path class="cls-1" d="M155.39,28.93c1.95-.57,1.91,2.17.13,1.77-.89-.2-.81-1.57-.13-1.77Z"/>
      <path class="cls-1" d="M11.74,28.93c1.88-.45,1.77,2.11.11,1.8-.79-.15-1.07-1.57-.11-1.8Z"/>
      <path class="cls-1" d="M12.14,73.16c1.01-.06,1.37,1.43.39,1.83-1.45.58-2.06-1.73-.39-1.83Z"/>
      <path class="cls-1" d="M12.24,102.55c1.26.05,1.19,2.19-.39,1.89-1.04-.19-.93-1.94.39-1.89Z"/>
    </g>
    <g>
      <path class="cls-1" d="M78.65,55.09c-1.02-.57-1.83-1.36-2.43-2.39-.6-1.02-.9-2.17-.9-3.44s.3-2.42.9-3.43c.6-1.01,1.41-1.81,2.43-2.38,1.02-.57,2.14-.85,3.37-.85s2.35.28,3.37.85c1.02.57,1.83,1.36,2.41,2.38.59,1.02.88,2.16.88,3.43s-.3,2.42-.89,3.44c-.59,1.02-1.4,1.82-2.41,2.39-1.02.57-2.14.85-3.36.85s-2.35-.28-3.37-.85ZM84.52,52.01c.63-.69.94-1.61.94-2.75s-.31-2.07-.94-2.76c-.62-.69-1.46-1.03-2.5-1.03s-1.89.34-2.52,1.02-.94,1.6-.94,2.77.31,2.07.94,2.76c.63.69,1.46,1.03,2.52,1.03s1.87-.35,2.5-1.04Z"/>
      <path class="cls-1" d="M102.11,55.81h-3.17l-5.31-8.04v8.04h-3.17v-13.03h3.17l5.31,8.08v-8.08h3.17v13.03Z"/>
      <path class="cls-1" d="M107.59,53.36h4.16v2.45h-7.33v-13.03h3.17v10.58Z"/>
      <path class="cls-1" d="M116.44,42.78v13.03h-3.17v-13.03h3.17ZM113.88,41.2c-.26-.26-.39-.58-.39-.96s.13-.71.39-.97c.26-.27.58-.4.97-.4s.72.13.98.39.39.59.39.98-.13.71-.4.96c-.27.26-.59.39-.97.39s-.71-.13-.97-.39Z"/>
      <path class="cls-1" d="M130.4,55.81h-3.17l-5.31-8.04v8.04h-3.17v-13.03h3.17l5.31,8.08v-8.08h3.17v13.03Z"/>
      <path class="cls-1" d="M135.88,45.32v2.64h4.25v2.45h-4.25v2.86h4.81v2.54h-7.98v-13.03h7.98v2.54h-4.81Z"/>
      <path class="cls-1" d="M82.58,65.22c-.19-.35-.46-.61-.81-.8s-.77-.28-1.24-.28c-.83,0-1.49.27-1.98.81-.5.54-.75,1.27-.75,2.17,0,.96.26,1.72.78,2.26.52.54,1.24.81,2.15.81.63,0,1.16-.16,1.59-.48.43-.32.75-.78.95-1.37h-3.24v-1.88h5.55v2.37c-.19.64-.51,1.23-.96,1.77-.45.55-1.03.99-1.72,1.33-.7.34-1.48.51-2.36.51-1.03,0-1.96-.23-2.77-.68-.81-.45-1.44-1.08-1.89-1.89s-.68-1.72-.68-2.76.23-1.96.68-2.77,1.08-1.44,1.89-1.89c.81-.45,1.72-.68,2.76-.68,1.25,0,2.31.3,3.17.91.86.61,1.43,1.45,1.71,2.52h-2.82Z"/>
      <path class="cls-1" d="M92.33,72.38l-2.18-3.95h-.61v3.95h-2.55v-10.47h4.28c.83,0,1.53.14,2.11.43.58.29,1.02.68,1.3,1.19s.43,1.06.43,1.68c0,.7-.2,1.32-.59,1.86-.39.55-.97.93-1.74,1.16l2.42,4.15h-2.88ZM89.55,66.62h1.58c.47,0,.82-.11,1.05-.34.23-.23.35-.55.35-.97s-.12-.71-.35-.94c-.23-.23-.58-.34-1.05-.34h-1.58v2.59Z"/>
      <path class="cls-1" d="M106.39,70.53h-3.91l-.63,1.85h-2.67l3.79-10.47h2.95l3.79,10.47h-2.7l-.63-1.85ZM105.74,68.56l-1.3-3.83-1.28,3.83h2.58Z"/>
      <path class="cls-1" d="M113.42,70.41h3.34v1.97h-5.89v-10.47h2.55v8.5Z"/>
      <path class="cls-1" d="M125.51,61.91v2.04h-2.77v8.42h-2.55v-8.42h-2.77v-2.04h8.1Z"/>
      <path class="cls-1" d="M129.34,61.91v10.47h-2.55v-10.47h2.55Z"/>
      <path class="cls-1" d="M140.55,72.38h-2.55l-4.26-6.46v6.46h-2.55v-10.47h2.55l4.26,6.49v-6.49h2.55v10.47Z"/>
    </g>
    <path class="cls-1" d="M85.72,8.96c.94-.12,1.67,1.16.83,1.87-1.52,1.3-2.58-1.64-.83-1.87Z"/>
    <path class="cls-1" d="M115.07,8.98c1.05-.01,1.57,1.46.48,2.03-1.55.8-2.2-2-.48-2.03Z"/>
    <path class="cls-1" d="M119.91,8.96c1.37-.12,1.54,2.15.1,2.18-1.31.03-1.47-2.06-.1-2.18Z"/>
    <path class="cls-1" d="M17.08,8.97c1.36-.07,1.4,2.1.1,2.18-1.41.09-1.49-2.1-.1-2.18Z"/>
    <path class="cls-1" d="M26.3,10.86c-1.02-1.02.73-2.52,1.59-1.52s-.63,2.48-1.59,1.52Z"/>
    <path class="cls-1" d="M80.06,9.36c.73-.89,2.51.04,1.72,1.26-.87,1.34-2.56-.23-1.72-1.26Z"/>
    <path class="cls-1" d="M71.47,8.99c1.41,0,1.29,2.25-.12,2.16-1.2-.08-1.32-2.16.12-2.16Z"/>
    <path class="cls-1" d="M65.83,10.86c-1.11-1.11.88-2.7,1.67-1.34.63,1.09-.84,2.17-1.67,1.34Z"/>
    <path class="cls-1" d="M56.36,9.09c1.75-.4,1.85,1.81.59,2.04-1.34.24-1.67-1.8-.59-2.04Z"/>
    <path class="cls-1" d="M51.67,106.91c1.38-.22,1.68,1.89.35,2.06-1.46.19-1.7-1.84-.35-2.06Z"/>
    <path class="cls-1" d="M22.04,8.97c1.39-.08,1.42,2.2-.02,2.17-1.35-.03-1.24-2.1.02-2.17Z"/>
    <path class="cls-1" d="M61.46,106.92c1.51-.22,1.63,1.96.22,2.06-1.27.08-1.57-1.86-.22-2.06Z"/>
    <path class="cls-1" d="M52.58,10.86c-.98.98-2.59-.75-1.34-1.66,1.03-.76,2.22.78,1.34,1.66Z"/>
    <path class="cls-1" d="M95.61,9c1.3.05,1.32,2.11,0,2.14s-1.45-2.2,0-2.14Z"/>
    <path class="cls-1" d="M124.47,9.09c1.73-.39,1.76,1.83.59,2.04-1.32.24-1.72-1.79-.59-2.04Z"/>
    <path class="cls-1" d="M41.62,9.09c1.75-.39,1.73,1.87.46,2.03-1.2.16-1.67-1.77-.46-2.03Z"/>
    <path class="cls-1" d="M46.83,8.97c1.4-.12,1.5,2.17.11,2.16s-1.28-2.06-.11-2.16Z"/>
    <path class="cls-1" d="M61.69,8.99c1.32,0,1.32,2.25-.12,2.16-1.23-.08-1.27-2.16.12-2.16Z"/>
    <path class="cls-1" d="M55.91,107.18c.79-.86,2.35.2,1.67,1.35-.73,1.23-2.73-.2-1.67-1.35Z"/>
    <path class="cls-1" d="M66.42,106.91c1.54-.19,1.6,2.08.09,2.07-1.14,0-1.42-1.9-.09-2.07Z"/>
    <path class="cls-1" d="M71.24,106.91c1.42-.21,1.71,1.88.35,2.06-1.51.2-1.54-1.88-.35-2.06Z"/>
    <path class="cls-1" d="M75.81,9.09c1.57-.36,1.84,1.86.46,2.04-1.27.16-1.61-1.77-.46-2.04Z"/>
    <path class="cls-1" d="M16.96,106.91c1.22-.2,1.75,1.88.35,2.06s-1.7-1.84-.35-2.06Z"/>
    <path class="cls-1" d="M36.66,9.09c1.53-.45,1.99,1.73.56,2.01-1.26.25-1.68-1.68-.56-2.01Z"/>
    <path class="cls-1" d="M105.29,8.97c1.32-.07,1.46,2.07.09,2.14s-1.46-2.07-.09-2.14Z"/>
    <path class="cls-1" d="M41.75,106.91c1.23-.23,1.77,1.88.35,2.06-1.51.19-1.61-1.83-.35-2.06Z"/>
    <path class="cls-1" d="M104.58,107.19c1-1,2.45.66,1.47,1.53-1.05.93-2.41-.59-1.47-1.53Z"/>
    <path class="cls-1" d="M119.78,106.91c1.37-.28,1.71,1.78.46,2.04-1.35.28-1.86-1.75-.46-2.04Z"/>
    <path class="cls-1" d="M31.7,9.09c1.99-.46,1.66,2.78-.13,1.9-.77-.38-.66-1.72.13-1.9Z"/>
    <path class="cls-1" d="M46.71,106.91c1.38-.25,1.64,1.81.46,2.04-1.53.3-1.73-1.82-.46-2.04Z"/>
    <path class="cls-1" d="M134.65,107.18c.87.93-.74,2.62-1.66,1.34-.84-1.16.9-2.15,1.66-1.34Z"/>
    <path class="cls-1" d="M80.77,106.91c1.28-.21,1.64,1.9.35,2.06-1.46.18-1.7-1.84-.35-2.06Z"/>
    <path class="cls-1" d="M114.82,106.91c1.33-.28,1.84,1.76.46,2.04s-1.71-1.78-.46-2.04Z"/>
    <path class="cls-1" d="M128.73,10.73c-.84-1.01.69-2.35,1.59-1.39,1.03,1.09-.71,2.45-1.59,1.39Z"/>
    <path class="cls-1" d="M109.55,10.85c-.79-.73-.11-2.27,1.13-1.72,1.42.63.01,2.77-1.13,1.72Z"/>
    <path class="cls-1" d="M85.59,106.91c1.36-.28,1.79,1.77.46,2.04s-1.71-1.78-.46-2.04Z"/>
    <path class="cls-1" d="M100.07,9.09c1.88-.56,1.8,2.16.4,2.04-1.17-.1-1.28-1.77-.4-2.04Z"/>
    <path class="cls-1" d="M133.74,8.96c1.2-.1,1.56,1.78.46,2.04-1.62.37-1.85-1.91-.46-2.04Z"/>
    <path class="cls-1" d="M26.88,106.91c1.33-.24,1.72,1.78.46,2.04-1.41.29-1.77-1.81-.46-2.04Z"/>
    <path class="cls-1" d="M21.92,106.91c1.36-.21,1.75,2.09.1,2.07-1.29-.01-1.25-1.89-.1-2.07Z"/>
    <path class="cls-1" d="M138.96,107.18c.87.95-.6,2.43-1.54,1.47-1.02-1.04.66-2.42,1.54-1.47Z"/>
    <path class="cls-1" d="M124.02,108.68c-.17-.18-.2-.7-.17-.95.12-1.18,2.29-1.15,1.96.52-.14.74-1.32.93-1.79.43Z"/>
    <path class="cls-1" d="M109.99,106.91c1.69-.35,1.6,2.55-.1,2.01-.99-.32-.8-1.82.1-2.01Z"/>
    <path class="cls-1" d="M31.84,106.91c1.19-.22,1.72,1.41.74,1.92-1.55.8-2.08-1.67-.74-1.92Z"/>
    <path class="cls-1" d="M36.21,108.68c-.87-.95.6-2.43,1.54-1.47,1.02,1.04-.66,2.42-1.54,1.47Z"/>
    <path class="cls-1" d="M90.29,9.09c1.79-.53,2.03,2.22.28,1.99-1.03-.13-1.01-1.78-.28-1.99Z"/>
    <path class="cls-1" d="M100.34,106.91c1.35-.17,1.56,1.93.21,2.06s-1.56-1.89-.21-2.06Z"/>
    <path class="cls-1" d="M95.38,106.91c1.38-.25,1.64,1.81.46,2.05-1.53.31-1.6-1.84-.46-2.05Z"/>
    <path class="cls-1" d="M129.43,106.92c1.33-.18,1.52,1.93.22,2.06-1.49.15-1.44-1.9-.22-2.06Z"/>
    <path class="cls-1" d="M142.26,106.91c1.37-.28,1.71,1.78.46,2.04-1.35.28-1.86-1.75-.46-2.04Z"/>
    <path class="cls-1" d="M156.78,107.01c.87.93-.74,2.62-1.66,1.34-.84-1.16.9-2.15,1.66-1.34Z"/>
    <path class="cls-1" d="M146.5,108.68c-.17-.18-.2-.7-.17-.95.12-1.18,2.29-1.15,1.96.52-.14.74-1.32.93-1.79.43Z"/>
    <path class="cls-1" d="M151.91,106.92c1.33-.18,1.52,1.93.22,2.06-1.49.15-1.44-1.9-.22-2.06Z"/>
    <path class="cls-1" d="M137.92,9.09c1.2-.26,1.84,1.12.89,1.8-1.34.97-2.33-1.49-.89-1.8Z"/>
    <path class="cls-1" d="M142.66,10.73c-.84-1.01.69-2.35,1.59-1.39,1.03,1.09-.71,2.45-1.59,1.39Z"/>
    <path class="cls-1" d="M147.68,8.96c1.2-.1,1.56,1.78.46,2.04-1.62.37-1.85-1.91-.46-2.04Z"/>
    <path class="cls-1" d="M151.85,8.92c1.2-.26,1.84,1.12.89,1.8-1.34.97-2.33-1.49-.89-1.8Z"/>
    <path class="cls-1" d="M76.17,106.95c1.33,0,1.24,1.94.13,2.04-1.59.15-1.48-2.04-.13-2.04Z"/>
    <path class="cls-1" d="M89.97,108.68c-.83-.83.46-2.52,1.47-1.4s-.64,2.24-1.47,1.4Z"/>
    <path class="cls-1" d="M155.78,63.24c1.31-.17,1.48,1.93.22,2.06-1.36.14-1.52-1.89-.22-2.06Z"/>
    <path class="cls-1" d="M155.65,13.5c1.03-.21,1.65,1.04.83,1.75-1.37,1.17-2.43-1.42-.83-1.75Z"/>
    <path class="cls-1" d="M155.65,9.2c1.03-.21,1.65,1.04.83,1.75-1.37,1.17-2.43-1.42-.83-1.75Z"/>
    <path class="cls-1" d="M12,106.91c1.29-.2,1.55,1.93.22,2.06s-1.44-1.87-.22-2.06Z"/>
    <path class="cls-1" d="M12.01,14.05c1.09-.14,1.55,1.42.59,1.9-1.44.71-2.14-1.7-.59-1.9Z"/>
    <path class="cls-1" d="M155.52,53.59c1.49-.34,1.78,1.53.7,1.87-1.53.49-1.73-1.63-.7-1.87Z"/>
    <path class="cls-1" d="M155.88,33.79c1.34,0,1.29,2.01,0,2.01s-1.39-2.01,0-2.01Z"/>
    <path class="cls-1" d="M12.91,10.73c-.57.71-2.02.22-1.76-.91.37-1.62,2.82-.4,1.76.91Z"/>
    <path class="cls-1" d="M155.07,97.96c.61-.76,2.23-.07,1.72,1.13-.54,1.27-2.72.11-1.72-1.13Z"/>
    <path class="cls-1" d="M155.52,23.97c1.5-.34,1.78,1.53.7,1.87-1.36.43-1.88-1.6-.7-1.87Z"/>
    <path class="cls-1" d="M155.52,92.86c1.33-.3,1.83,1.26.86,1.77-1.39.73-2.17-1.47-.86-1.77Z"/>
    <path class="cls-1" d="M155.65,38.71c1.62-.34,1.65,2.46-.23,1.88-.87-.27-.66-1.69.23-1.88Z"/>
    <path class="cls-1" d="M156.69,88.18c.91,1.14-1.14,2.41-1.72,1.14s1.09-1.92,1.72-1.14Z"/>
    <path class="cls-1" d="M155.65,43.67c1.29-.27,1.64,1.59.59,1.91-1.53.46-1.89-1.64-.59-1.91Z"/>
    <path class="cls-1" d="M155.78,82.95c1.28-.13,1.45,1.72.36,1.93-1.61.3-1.69-1.8-.36-1.93Z"/>
    <path class="cls-1" d="M155.52,19.01c1.41-.31,1.81,1.52.7,1.87-1.42.46-1.79-1.63-.7-1.87Z"/>
    <path class="cls-1" d="M155.52,68.33c1.89-.42,1.79,2.34-.13,1.77-.73-.21-.76-1.57.13-1.77Z"/>
    <path class="cls-1" d="M155.65,48.62c1.65-.34,1.58,2.48-.23,1.88-.8-.26-.69-1.68.23-1.88Z"/>
    <path class="cls-1" d="M11.87,48.62c1.62-.33,1.67,2.44-.1,1.88-.98-.31-.78-1.69.1-1.88Z"/>
    <path class="cls-1" d="M11.87,23.97c1.51-.33,1.6,1.71.46,1.91-1.27.23-1.74-1.63-.46-1.91Z"/>
    <path class="cls-1" d="M11.87,19.01c1.49-.32,1.62,1.67.46,1.91-1.31.27-1.67-1.65-.46-1.91Z"/>
    <path class="cls-1" d="M11.74,92.86c1.68-.5,1.79,1.97.38,1.92-1.23-.04-1.24-1.67-.38-1.92Z"/>
    <path class="cls-1" d="M155.07,78.39c.71-.88,2.53.21,1.53,1.34-.86.97-2.31-.37-1.53-1.34Z"/>
    <path class="cls-1" d="M12.01,97.69c1.23-.16,1.48,1.68.46,1.91-1.49.33-1.86-1.73-.46-1.91Z"/>
    <path class="cls-1" d="M12,43.67c1.21-.12,1.49,1.67.46,1.9-1.6.37-1.8-1.77-.46-1.9Z"/>
    <path class="cls-1" d="M11.74,63.37c1.84-.55,1.74,2.39.08,1.83-.97-.33-.82-1.61-.08-1.83Z"/>
    <path class="cls-1" d="M155.78,102.52c1.32-.13,1.38,1.74.36,1.93-1.55.29-1.68-1.8-.36-1.93Z"/>
    <path class="cls-1" d="M11.87,78.12c1.51-.33,1.6,1.71.46,1.91-1.31.24-1.67-1.65-.46-1.91Z"/>
    <path class="cls-1" d="M155.65,58.41c1.33-.24,1.65,1.68.46,1.91-1.5.3-1.6-1.71-.46-1.91Z"/>
    <path class="cls-1" d="M11.43,89.53c-1.02-.93.63-2.35,1.46-1.39s-.46,2.29-1.46,1.39Z"/>
    <path class="cls-1" d="M12.01,58.41c1.6-.21,1.34,2.52-.33,1.83-.92-.38-.67-1.7.33-1.83Z"/>
    <path class="cls-1" d="M11.74,33.88c1.52-.45,1.84,1.53.69,1.88s-1.88-1.53-.69-1.88Z"/>
    <path class="cls-1" d="M11.87,53.58c1.74-.36,1.5,2.57-.19,1.84-.82-.35-.69-1.65.19-1.84Z"/>
    <path class="cls-1" d="M155.07,73.43c.83-.88,2.47.3,1.53,1.34s-2.31-.51-1.53-1.34Z"/>
    <path class="cls-1" d="M11.43,38.99c.94-.86,2.27.44,1.46,1.39s-2.47-.46-1.46-1.39Z"/>
    <path class="cls-1" d="M11.42,83.22c.71-.6,1.81-.14,1.65.93-.26,1.75-2.94.16-1.65-.93Z"/>
    <path class="cls-1" d="M11.43,69.96c-.98-.9.45-2.26,1.39-1.45s-.38,2.38-1.39,1.45Z"/>
    <path class="cls-1" d="M155.39,28.93c1.95-.57,1.91,2.17.13,1.77-.89-.2-.81-1.57-.13-1.77Z"/>
    <path class="cls-1" d="M11.74,28.93c1.88-.45,1.77,2.11.11,1.8-.79-.15-1.07-1.57-.11-1.8Z"/>
    <path class="cls-1" d="M12.14,73.16c1.01-.06,1.37,1.43.39,1.83-1.45.58-2.06-1.73-.39-1.83Z"/>
    <path class="cls-1" d="M12.24,102.55c1.26.05,1.19,2.19-.39,1.89-1.04-.19-.93-1.94.39-1.89Z"/>
    <g>
      <path class="cls-1" d="M85.37,4.41c1-.14,1.78,1.26.88,2.05-1.63,1.42-2.75-1.8-.88-2.05Z"/>
      <path class="cls-1" d="M116.69,4.43c1.12-.02,1.68,1.6.51,2.22-1.65.88-2.34-2.19-.51-2.22Z"/>
      <path class="cls-1" d="M121.85,4.41c1.46-.13,1.64,2.35.11,2.38-1.4.03-1.57-2.25-.11-2.38Z"/>
      <path class="cls-1" d="M12.11,4.43c1.46-.08,1.49,2.3.11,2.38-1.5.09-1.59-2.3-.11-2.38Z"/>
      <path class="cls-1" d="M21.95,6.48c-1.08-1.11.78-2.76,1.7-1.67s-.68,2.71-1.7,1.67Z"/>
      <path class="cls-1" d="M79.32,4.85c.78-.97,2.68.04,1.83,1.38-.93,1.47-2.73-.26-1.83-1.38Z"/>
      <path class="cls-1" d="M70.16,4.45c1.5,0,1.38,2.46-.13,2.36-1.29-.09-1.41-2.36.13-2.36Z"/>
      <path class="cls-1" d="M64.14,6.48c-1.19-1.21.94-2.95,1.78-1.47.67,1.19-.89,2.37-1.78,1.47Z"/>
      <path class="cls-1" d="M54.03,4.56c1.87-.43,1.97,1.98.63,2.23-1.43.26-1.78-1.96-.63-2.23Z"/>
      <path class="cls-1" d="M49.03,111.47c1.47-.24,1.8,2.07.37,2.25-1.55.2-1.81-2.02-.37-2.25Z"/>
      <path class="cls-1" d="M17.4,4.43c1.49-.08,1.51,2.4-.02,2.37-1.44-.03-1.32-2.29.02-2.37Z"/>
      <path class="cls-1" d="M59.47,111.47c1.62-.24,1.74,2.15.23,2.25-1.36.09-1.67-2.04-.23-2.25Z"/>
      <path class="cls-1" d="M50,6.48c-1.05,1.07-2.76-.82-1.43-1.82,1.1-.83,2.37.86,1.43,1.82Z"/>
      <path class="cls-1" d="M95.92,4.45c1.39.05,1.41,2.31,0,2.34s-1.55-2.4,0-2.34Z"/>
      <path class="cls-1" d="M126.72,4.56c1.84-.42,1.88,2,.63,2.23-1.41.26-1.84-1.95-.63-2.23Z"/>
      <path class="cls-1" d="M38.3,4.56c1.87-.42,1.85,2.04.49,2.22-1.28.17-1.78-1.93-.49-2.22Z"/>
      <path class="cls-1" d="M43.86,4.42c1.5-.13,1.6,2.37.12,2.37s-1.37-2.26-.12-2.37Z"/>
      <path class="cls-1" d="M59.71,4.45c1.41,0,1.41,2.46-.13,2.36-1.31-.08-1.35-2.36.13-2.36Z"/>
      <path class="cls-1" d="M53.55,111.77c.84-.94,2.51.22,1.78,1.47-.78,1.34-2.91-.22-1.78-1.47Z"/>
      <path class="cls-1" d="M64.76,111.47c1.64-.21,1.7,2.27.1,2.26-1.22,0-1.51-2.08-.1-2.26Z"/>
      <path class="cls-1" d="M69.91,111.47c1.51-.23,1.83,2.06.38,2.25-1.62.21-1.64-2.06-.38-2.25Z"/>
      <path class="cls-1" d="M74.78,4.56c1.68-.39,1.96,2.03.49,2.23-1.36.18-1.72-1.94-.49-2.23Z"/>
      <path class="cls-1" d="M11.99,111.47c1.3-.22,1.87,2.06.37,2.25s-1.82-2.01-.37-2.25Z"/>
      <path class="cls-1" d="M33.01,4.56c1.64-.5,2.12,1.89.6,2.2-1.35.27-1.8-1.84-.6-2.2Z"/>
      <path class="cls-1" d="M106.24,4.43c1.41-.08,1.56,2.26.1,2.34s-1.56-2.26-.1-2.34Z"/>
      <path class="cls-1" d="M38.44,111.47c1.31-.25,1.89,2.06.37,2.26-1.61.21-1.71-2-.37-2.26Z"/>
      <path class="cls-1" d="M105.5,111.77c1.06-1.09,2.62.72,1.56,1.67-1.12,1.02-2.57-.65-1.56-1.67Z"/>
      <path class="cls-1" d="M121.71,111.47c1.46-.31,1.83,1.95.49,2.23-1.44.31-1.98-1.92-.49-2.23Z"/>
      <path class="cls-1" d="M27.72,4.56c2.12-.5,1.77,3.03-.14,2.07-.82-.41-.71-1.88.14-2.07Z"/>
      <path class="cls-1" d="M43.73,111.47c1.47-.27,1.75,1.98.49,2.24-1.63.33-1.85-1.98-.49-2.24Z"/>
      <path class="cls-1" d="M137.59,111.77c.93,1.01-.79,2.86-1.78,1.46-.89-1.27.96-2.35,1.78-1.46Z"/>
      <path class="cls-1" d="M80.08,111.47c1.36-.23,1.75,2.08.37,2.25-1.55.2-1.81-2.01-.37-2.25Z"/>
      <path class="cls-1" d="M116.42,111.47c1.42-.3,1.96,1.92.49,2.23s-1.83-1.95-.49-2.23Z"/>
      <path class="cls-1" d="M131.26,6.34c-.89-1.11.73-2.57,1.69-1.52,1.09,1.2-.76,2.68-1.69,1.52Z"/>
      <path class="cls-1" d="M110.79,6.48c-.84-.8-.12-2.48,1.21-1.88,1.51.68.01,3.03-1.21,1.88Z"/>
      <path class="cls-1" d="M85.23,111.47c1.45-.31,1.91,1.93.49,2.23s-1.83-1.95-.49-2.23Z"/>
      <path class="cls-1" d="M100.68,4.56c2.01-.61,1.92,2.36.42,2.22-1.25-.11-1.36-1.94-.42-2.22Z"/>
      <path class="cls-1" d="M136.61,4.41c1.28-.11,1.67,1.95.49,2.22-1.73.4-1.97-2.09-.49-2.22Z"/>
      <path class="cls-1" d="M22.57,111.47c1.42-.26,1.83,1.95.49,2.23-1.5.32-1.89-1.98-.49-2.23Z"/>
      <path class="cls-1" d="M17.27,111.47c1.45-.23,1.87,2.28.11,2.26-1.38-.01-1.33-2.06-.11-2.26Z"/>
      <path class="cls-1" d="M142.18,111.77c.93,1.04-.65,2.65-1.64,1.61-1.08-1.13.71-2.65,1.64-1.61Z"/>
      <path class="cls-1" d="M126.24,113.41c-.18-.2-.21-.77-.19-1.04.13-1.29,2.44-1.25,2.1.57-.15.81-1.4,1.02-1.91.47Z"/>
      <path class="cls-1" d="M111.27,111.47c1.8-.38,1.7,2.79-.11,2.19-1.06-.35-.86-1.99.11-2.19Z"/>
      <path class="cls-1" d="M27.86,111.47c1.27-.24,1.84,1.54.78,2.1-1.66.87-2.22-1.83-.78-2.1Z"/>
      <path class="cls-1" d="M32.53,113.41c-.93-1.04.65-2.65,1.64-1.61,1.08,1.13-.71,2.65-1.64,1.61Z"/>
      <path class="cls-1" d="M90.24,4.56c1.91-.58,2.16,2.42.3,2.18-1.1-.15-1.08-1.94-.3-2.18Z"/>
      <path class="cls-1" d="M100.97,111.47c1.44-.19,1.67,2.1.23,2.26s-1.66-2.07-.23-2.26Z"/>
      <path class="cls-1" d="M95.67,111.47c1.47-.27,1.75,1.98.49,2.24-1.64.33-1.71-2.01-.49-2.24Z"/>
      <path class="cls-1" d="M132.02,111.47c1.42-.19,1.62,2.11.23,2.25-1.59.17-1.54-2.08-.23-2.25Z"/>
      <path class="cls-1" d="M145.7,111.47c1.46-.31,1.83,1.95.49,2.23-1.44.31-1.98-1.92-.49-2.23Z"/>
      <path class="cls-1" d="M161.2,111.58c.93,1.01-.79,2.86-1.78,1.46-.89-1.27.96-2.35,1.78-1.46Z"/>
      <path class="cls-1" d="M150.23,113.41c-.18-.2-.21-.77-.19-1.04.13-1.29,2.44-1.25,2.1.57-.15.81-1.4,1.02-1.91.47Z"/>
      <path class="cls-1" d="M156.01,111.47c1.42-.19,1.62,2.11.23,2.25-1.59.17-1.54-2.08-.23-2.25Z"/>
      <path class="cls-1" d="M141.07,4.56c1.28-.28,1.96,1.22.95,1.97-1.43,1.06-2.48-1.63-.95-1.97Z"/>
      <path class="cls-1" d="M146.13,6.34c-.89-1.11.73-2.57,1.69-1.52,1.09,1.2-.76,2.68-1.69,1.52Z"/>
      <path class="cls-1" d="M151.48,4.41c1.28-.11,1.67,1.95.49,2.22-1.73.4-1.97-2.09-.49-2.22Z"/>
      <path class="cls-1" d="M155.94,4.36c1.28-.28,1.96,1.22.95,1.97-1.43,1.06-2.48-1.63-.95-1.97Z"/>
      <path class="cls-1" d="M75.17,111.51c1.42,0,1.32,2.12.14,2.23-1.7.16-1.58-2.23-.14-2.23Z"/>
      <path class="cls-1" d="M89.9,113.4c-.89-.91.49-2.75,1.57-1.53s-.68,2.45-1.57,1.53Z"/>
      <path class="cls-1" d="M160.13,63.74c1.4-.19,1.58,2.11.23,2.25-1.45.15-1.62-2.07-.23-2.25Z"/>
      <path class="cls-1" d="M160,9.37c1.1-.23,1.76,1.14.88,1.91-1.46,1.27-2.59-1.55-.88-1.91Z"/>
      <path class="cls-1" d="M160,4.67c1.1-.23,1.76,1.14.88,1.91-1.46,1.27-2.59-1.55-.88-1.91Z"/>
      <path class="cls-1" d="M6.69,111.47c1.38-.22,1.66,2.11.24,2.26s-1.54-2.05-.24-2.26Z"/>
      <path class="cls-1" d="M6.7,9.97c1.17-.15,1.66,1.56.63,2.08-1.54.78-2.28-1.86-.63-2.08Z"/>
      <path class="cls-1" d="M159.85,53.19c1.59-.37,1.9,1.67.74,2.04-1.63.53-1.85-1.78-.74-2.04Z"/>
      <path class="cls-1" d="M160.24,31.54c1.43,0,1.37,2.2,0,2.2s-1.49-2.2,0-2.2Z"/>
      <path class="cls-1" d="M7.66,6.34c-.61.78-2.15.24-1.88-1,.39-1.78,3.01-.44,1.88,1Z"/>
      <path class="cls-1" d="M159.38,101.69c.65-.83,2.38-.08,1.83,1.24-.57,1.39-2.9.12-1.83-1.24Z"/>
      <path class="cls-1" d="M159.85,20.82c1.6-.37,1.9,1.67.74,2.05-1.45.47-2.01-1.75-.74-2.05Z"/>
      <path class="cls-1" d="M159.85,96.12c1.42-.33,1.95,1.38.91,1.93-1.49.8-2.32-1.61-.91-1.93Z"/>
      <path class="cls-1" d="M160,36.92c1.73-.37,1.76,2.69-.25,2.05-.93-.29-.71-1.85.25-2.05Z"/>
      <path class="cls-1" d="M161.1,90.99c.98,1.24-1.22,2.63-1.84,1.24s1.16-2.1,1.84-1.24Z"/>
      <path class="cls-1" d="M160,42.34c1.37-.29,1.75,1.74.63,2.09-1.64.51-2.01-1.79-.63-2.09Z"/>
      <path class="cls-1" d="M160.14,85.28c1.36-.14,1.54,1.88.38,2.11-1.72.33-1.81-1.97-.38-2.11Z"/>
      <path class="cls-1" d="M159.86,15.39c1.51-.34,1.93,1.66.74,2.05-1.52.5-1.91-1.78-.74-2.05Z"/>
      <path class="cls-1" d="M159.85,69.3c2.02-.46,1.92,2.56-.14,1.94-.77-.23-.81-1.72.14-1.94Z"/>
      <path class="cls-1" d="M160,47.76c1.76-.37,1.69,2.71-.25,2.05-.86-.29-.74-1.84.25-2.05Z"/>
      <path class="cls-1" d="M6.55,47.76c1.73-.36,1.78,2.67-.11,2.05-1.05-.34-.84-1.85.11-2.05Z"/>
      <path class="cls-1" d="M6.55,20.81c1.61-.36,1.71,1.86.49,2.09-1.35.25-1.85-1.78-.49-2.09Z"/>
      <path class="cls-1" d="M6.55,15.39c1.59-.35,1.73,1.82.49,2.09-1.4.3-1.78-1.8-.49-2.09Z"/>
      <path class="cls-1" d="M6.41,96.11c1.8-.55,1.91,2.15.4,2.1-1.31-.04-1.33-1.82-.4-2.1Z"/>
      <path class="cls-1" d="M159.38,80.3c.76-.96,2.7.23,1.63,1.46-.92,1.06-2.46-.41-1.63-1.46Z"/>
      <path class="cls-1" d="M6.7,101.39c1.32-.18,1.58,1.84.49,2.09-1.59.36-1.98-1.89-.49-2.09Z"/>
      <path class="cls-1" d="M6.69,42.35c1.29-.13,1.59,1.82.49,2.08-1.71.4-1.92-1.94-.49-2.08Z"/>
      <path class="cls-1" d="M6.41,63.88c1.97-.6,1.85,2.62.08,2-1.04-.36-.88-1.76-.08-2Z"/>
      <path class="cls-1" d="M160.14,106.67c1.41-.14,1.47,1.9.38,2.11-1.65.31-1.8-1.97-.38-2.11Z"/>
      <path class="cls-1" d="M6.55,80c1.61-.36,1.7,1.86.49,2.09-1.4.26-1.78-1.8-.49-2.09Z"/>
      <path class="cls-1" d="M160,58.46c1.42-.26,1.76,1.83.49,2.09-1.6.33-1.71-1.87-.49-2.09Z"/>
      <path class="cls-1" d="M6.08,92.47c-1.09-1.02.68-2.56,1.55-1.52s-.5,2.51-1.55,1.52Z"/>
      <path class="cls-1" d="M6.7,58.46c1.71-.23,1.43,2.75-.35,2-.98-.41-.72-1.86.35-2Z"/>
      <path class="cls-1" d="M6.41,31.65c1.62-.49,1.96,1.67.74,2.05s-2-1.67-.74-2.05Z"/>
      <path class="cls-1" d="M6.55,53.18c1.86-.39,1.61,2.81-.21,2.01-.87-.39-.74-1.81.21-2.01Z"/>
      <path class="cls-1" d="M159.37,74.87c.88-.96,2.63.32,1.64,1.46s-2.47-.56-1.64-1.46Z"/>
      <path class="cls-1" d="M6.08,37.23c1-.94,2.42.48,1.55,1.52s-2.64-.5-1.55-1.52Z"/>
      <path class="cls-1" d="M6.07,85.57c.76-.65,1.93-.15,1.76,1.02-.28,1.91-3.14.17-1.76-1.02Z"/>
      <path class="cls-1" d="M6.08,71.08c-1.05-.98.48-2.47,1.48-1.59s-.41,2.6-1.48,1.59Z"/>
      <path class="cls-1" d="M159.71,26.24c2.08-.62,2.04,2.37.14,1.93-.95-.22-.86-1.72-.14-1.93Z"/>
      <path class="cls-1" d="M6.41,26.24c2.01-.49,1.89,2.3.12,1.96-.84-.16-1.14-1.71-.12-1.96Z"/>
      <path class="cls-1" d="M6.84,74.58c1.07-.06,1.46,1.57.41,2-1.55.64-2.2-1.89-.41-2Z"/>
      <path class="cls-1" d="M6.94,106.71c1.34.05,1.27,2.39-.41,2.07-1.1-.21-.99-2.12.41-2.07Z"/>
    </g>
    <g>
      <path class="cls-1" d="M85.54,16.96c.84-.1,1.49.97.74,1.57-1.36,1.09-2.3-1.38-.74-1.57Z"/>
      <path class="cls-1" d="M111.72,16.97c.94-.01,1.4,1.23.43,1.7-1.38.67-1.96-1.68-.43-1.7Z"/>
      <path class="cls-1" d="M116.03,16.96c1.22-.1,1.37,1.8.09,1.83-1.17.03-1.31-1.73-.09-1.83Z"/>
      <path class="cls-1" d="M24.33,16.97c1.22-.06,1.25,1.76.09,1.83-1.26.07-1.33-1.76-.09-1.83Z"/>
      <path class="cls-1" d="M32.55,18.55c-.91-.85.65-2.12,1.42-1.28s-.57,2.08-1.42,1.28Z"/>
      <path class="cls-1" d="M80.49,17.3c.65-.74,2.24.03,1.53,1.06-.78,1.12-2.29-.2-1.53-1.06Z"/>
      <path class="cls-1" d="M72.83,16.99c1.25,0,1.15,1.89-.11,1.81-1.07-.07-1.17-1.81.11-1.81Z"/>
      <path class="cls-1" d="M67.8,18.55c-.99-.93.79-2.26,1.49-1.12.56.91-.75,1.82-1.49,1.12Z"/>
      <path class="cls-1" d="M59.36,17.07c1.56-.33,1.65,1.52.53,1.71-1.19.2-1.49-1.51-.53-1.71Z"/>
      <path class="cls-1" d="M55.18,99.05c1.23-.19,1.5,1.59.31,1.73-1.3.16-1.51-1.55-.31-1.73Z"/>
      <path class="cls-1" d="M28.75,16.97c1.24-.06,1.26,1.84-.02,1.81-1.2-.03-1.1-1.76.02-1.81Z"/>
      <path class="cls-1" d="M63.9,99.05c1.35-.18,1.45,1.65.19,1.72-1.13.07-1.4-1.56-.19-1.72Z"/>
      <path class="cls-1" d="M55.99,18.55c-.87.82-2.31-.63-1.19-1.39.92-.63,1.98.66,1.19,1.39Z"/>
      <path class="cls-1" d="M94.36,16.99c1.16.04,1.17,1.77,0,1.79s-1.29-1.84,0-1.79Z"/>
      <path class="cls-1" d="M120.1,17.07c1.54-.33,1.57,1.53.53,1.71-1.18.2-1.54-1.5-.53-1.71Z"/>
      <path class="cls-1" d="M46.21,17.07c1.56-.33,1.55,1.56.41,1.7-1.07.13-1.49-1.48-.41-1.7Z"/>
      <path class="cls-1" d="M50.86,16.97c1.25-.1,1.34,1.82.1,1.81s-1.14-1.73-.1-1.81Z"/>
      <path class="cls-1" d="M64.11,16.99c1.18,0,1.18,1.88-.11,1.81-1.1-.06-1.13-1.81.11-1.81Z"/>
      <path class="cls-1" d="M58.96,99.28c.7-.72,2.1.17,1.49,1.13-.65,1.03-2.43-.17-1.49-1.13Z"/>
      <path class="cls-1" d="M68.33,99.05c1.37-.16,1.42,1.74.08,1.73-1.02,0-1.26-1.59-.08-1.73Z"/>
      <path class="cls-1" d="M72.62,99.05c1.26-.18,1.53,1.58.32,1.73-1.35.16-1.37-1.58-.32-1.73Z"/>
      <path class="cls-1" d="M76.7,17.07c1.4-.3,1.64,1.56.41,1.71-1.13.14-1.43-1.49-.41-1.71Z"/>
      <path class="cls-1" d="M24.22,99.05c1.09-.17,1.56,1.58.31,1.73s-1.52-1.54-.31-1.73Z"/>
      <path class="cls-1" d="M41.79,17.07c1.37-.38,1.77,1.45.5,1.69-1.12.21-1.5-1.41-.5-1.69Z"/>
      <path class="cls-1" d="M102.99,16.97c1.17-.06,1.3,1.73.08,1.79s-1.3-1.73-.08-1.79Z"/>
      <path class="cls-1" d="M46.33,99.05c1.1-.19,1.58,1.58.31,1.73-1.35.16-1.43-1.54-.31-1.73Z"/>
      <path class="cls-1" d="M102.36,99.28c.89-.83,2.19.55,1.31,1.28-.94.78-2.15-.5-1.31-1.28Z"/>
      <path class="cls-1" d="M115.91,99.05c1.22-.24,1.53,1.49.41,1.71-1.2.24-1.65-1.47-.41-1.71Z"/>
      <path class="cls-1" d="M37.37,17.07c1.77-.38,1.48,2.33-.11,1.59-.69-.32-.59-1.44.11-1.59Z"/>
      <path class="cls-1" d="M50.75,99.05c1.23-.21,1.46,1.52.41,1.71-1.36.25-1.55-1.52-.41-1.71Z"/>
      <path class="cls-1" d="M129.18,99.28c.78.78-.66,2.2-1.48,1.12-.74-.97.8-1.8,1.48-1.12Z"/>
      <path class="cls-1" d="M81.12,99.05c1.14-.18,1.47,1.59.31,1.73-1.3.15-1.51-1.54-.31-1.73Z"/>
      <path class="cls-1" d="M111.49,99.05c1.19-.23,1.64,1.47.41,1.71s-1.53-1.49-.41-1.71Z"/>
      <path class="cls-1" d="M123.89,18.44c-.75-.85.61-1.97,1.41-1.17.91.92-.63,2.06-1.41,1.17Z"/>
      <path class="cls-1" d="M106.79,18.54c-.7-.61-.1-1.9,1.01-1.44,1.26.53,0,2.33-1.01,1.44Z"/>
      <path class="cls-1" d="M85.43,99.05c1.21-.24,1.6,1.48.41,1.71s-1.53-1.49-.41-1.71Z"/>
      <path class="cls-1" d="M98.34,17.07c1.68-.47,1.61,1.81.35,1.71-1.04-.09-1.14-1.49-.35-1.71Z"/>
      <path class="cls-1" d="M128.37,16.96c1.07-.09,1.39,1.49.41,1.71-1.45.31-1.65-1.6-.41-1.71Z"/>
      <path class="cls-1" d="M33.06,99.05c1.19-.2,1.53,1.49.41,1.71-1.25.25-1.58-1.52-.41-1.71Z"/>
      <path class="cls-1" d="M28.64,99.05c1.22-.18,1.56,1.75.09,1.73-1.15-.01-1.11-1.58-.09-1.73Z"/>
      <path class="cls-1" d="M133.02,99.28c.78.8-.54,2.03-1.37,1.23-.91-.87.59-2.03,1.37-1.23Z"/>
      <path class="cls-1" d="M119.7,100.53c-.15-.15-.18-.59-.16-.8.11-.99,2.04-.96,1.75.44-.13.62-1.17.78-1.6.36Z"/>
      <path class="cls-1" d="M107.19,99.05c1.5-.29,1.42,2.14-.09,1.68-.88-.27-.72-1.53.09-1.68Z"/>
      <path class="cls-1" d="M37.49,99.05c1.06-.18,1.54,1.18.66,1.61-1.38.67-1.86-1.4-.66-1.61Z"/>
      <path class="cls-1" d="M41.39,100.53c-.78-.8.54-2.03,1.37-1.23.91.87-.59,2.03-1.37,1.23Z"/>
      <path class="cls-1" d="M89.61,17.07c1.6-.44,1.81,1.86.25,1.67-.92-.11-.9-1.49-.25-1.67Z"/>
      <path class="cls-1" d="M98.58,99.05c1.2-.14,1.4,1.61.19,1.73s-1.39-1.58-.19-1.73Z"/>
      <path class="cls-1" d="M94.15,99.05c1.23-.21,1.47,1.52.41,1.71-1.37.26-1.43-1.54-.41-1.71Z"/>
      <path class="cls-1" d="M124.52,99.05c1.18-.15,1.36,1.62.2,1.73-1.33.13-1.28-1.59-.2-1.73Z"/>
      <path class="cls-1" d="M135.96,99.05c1.22-.24,1.53,1.49.41,1.71-1.2.24-1.65-1.47-.41-1.71Z"/>
      <path class="cls-1" d="M148.91,99.13c.78.78-.66,2.2-1.48,1.12-.74-.97.8-1.8,1.48-1.12Z"/>
      <path class="cls-1" d="M139.75,100.53c-.15-.15-.18-.59-.16-.8.11-.99,2.04-.96,1.75.44-.13.62-1.17.78-1.6.36Z"/>
      <path class="cls-1" d="M144.57,99.05c1.18-.15,1.36,1.62.2,1.73-1.33.13-1.28-1.59-.2-1.73Z"/>
      <path class="cls-1" d="M132.09,17.07c1.07-.22,1.64.93.79,1.51-1.19.81-2.07-1.25-.79-1.51Z"/>
      <path class="cls-1" d="M136.32,18.44c-.75-.85.61-1.97,1.41-1.17.91.92-.63,2.06-1.41,1.17Z"/>
      <path class="cls-1" d="M140.79,16.96c1.07-.09,1.39,1.49.41,1.71-1.45.31-1.65-1.6-.41-1.71Z"/>
      <path class="cls-1" d="M144.51,16.92c1.07-.22,1.64.93.79,1.51-1.19.81-2.07-1.25-.79-1.51Z"/>
      <path class="cls-1" d="M77.02,99.08c1.19,0,1.1,1.63.12,1.71-1.42.12-1.32-1.71-.12-1.71Z"/>
      <path class="cls-1" d="M89.33,100.53c-.74-.7.41-2.11,1.31-1.18s-.57,1.88-1.31,1.18Z"/>
      <path class="cls-1" d="M148.02,62.45c1.17-.14,1.32,1.62.2,1.73-1.21.12-1.36-1.58-.2-1.73Z"/>
      <path class="cls-1" d="M147.91,20.76c.92-.18,1.47.87.74,1.46-1.22.98-2.16-1.19-.74-1.46Z"/>
      <path class="cls-1" d="M147.91,17.16c.92-.18,1.47.87.74,1.46-1.22.98-2.16-1.19-.74-1.46Z"/>
      <path class="cls-1" d="M19.8,99.05c1.15-.17,1.39,1.62.2,1.73s-1.29-1.57-.2-1.73Z"/>
      <path class="cls-1" d="M19.8,21.22c.98-.12,1.39,1.19.52,1.59-1.28.6-1.91-1.43-.52-1.59Z"/>
      <path class="cls-1" d="M147.79,54.36c1.33-.29,1.59,1.28.62,1.57-1.37.41-1.55-1.37-.62-1.57Z"/>
      <path class="cls-1" d="M148.11,37.76c1.2,0,1.15,1.69,0,1.69s-1.24-1.68,0-1.69Z"/>
      <path class="cls-1" d="M20.61,18.44c-.51.6-1.8.19-1.57-.76.33-1.36,2.51-.34,1.57.76Z"/>
      <path class="cls-1" d="M147.39,91.55c.54-.63,1.99-.06,1.53.95-.48,1.07-2.42.09-1.53-.95Z"/>
      <path class="cls-1" d="M147.79,29.54c1.33-.29,1.58,1.28.62,1.57-1.21.36-1.68-1.34-.62-1.57Z"/>
      <path class="cls-1" d="M147.79,87.27c1.19-.25,1.63,1.06.76,1.48-1.24.61-1.93-1.24-.76-1.48Z"/>
      <path class="cls-1" d="M147.91,41.89c1.44-.28,1.47,2.06-.21,1.57-.77-.23-.59-1.42.21-1.57Z"/>
      <path class="cls-1" d="M148.83,83.35c.82.95-1.02,2.02-1.53.95s.97-1.61,1.53-.95Z"/>
      <path class="cls-1" d="M147.91,46.04c1.15-.22,1.47,1.33.53,1.6-1.37.39-1.68-1.37-.53-1.6Z"/>
      <path class="cls-1" d="M148.02,78.96c1.14-.1,1.29,1.44.32,1.62-1.44.25-1.51-1.51-.32-1.62Z"/>
      <path class="cls-1" d="M147.79,25.38c1.26-.26,1.61,1.27.62,1.57-1.27.38-1.6-1.37-.62-1.57Z"/>
      <path class="cls-1" d="M147.79,66.72c1.69-.35,1.6,1.96-.12,1.48-.65-.18-.68-1.32.12-1.48Z"/>
      <path class="cls-1" d="M147.91,50.2c1.47-.29,1.41,2.07-.21,1.57-.72-.22-.62-1.41.21-1.57Z"/>
      <path class="cls-1" d="M19.68,50.2c1.45-.28,1.49,2.05-.09,1.57-.87-.26-.7-1.42.09-1.57Z"/>
      <path class="cls-1" d="M19.68,29.54c1.34-.28,1.43,1.43.41,1.6-1.13.19-1.55-1.37-.41-1.6Z"/>
      <path class="cls-1" d="M19.68,25.38c1.33-.27,1.45,1.4.41,1.6-1.17.23-1.49-1.38-.41-1.6Z"/>
      <path class="cls-1" d="M19.56,87.27c1.5-.42,1.6,1.65.34,1.61-1.09-.03-1.11-1.4-.34-1.61Z"/>
      <path class="cls-1" d="M147.39,75.14c.63-.74,2.25.18,1.36,1.12-.77.81-2.06-.31-1.36-1.12Z"/>
      <path class="cls-1" d="M19.8,91.32c1.1-.13,1.32,1.41.41,1.6-1.33.28-1.66-1.45-.41-1.6Z"/>
      <path class="cls-1" d="M19.8,46.05c1.08-.1,1.33,1.4.41,1.59-1.43.31-1.6-1.49-.41-1.59Z"/>
      <path class="cls-1" d="M19.56,62.56c1.64-.46,1.55,2.01.07,1.53-.87-.28-.73-1.35-.07-1.53Z"/>
      <path class="cls-1" d="M148.02,95.36c1.17-.11,1.23,1.46.32,1.62-1.38.24-1.5-1.51-.32-1.62Z"/>
      <path class="cls-1" d="M19.68,74.92c1.35-.28,1.42,1.43.41,1.6-1.17.2-1.49-1.38-.41-1.6Z"/>
      <path class="cls-1" d="M147.91,58.4c1.19-.2,1.47,1.41.41,1.6-1.34.25-1.43-1.43-.41-1.6Z"/>
      <path class="cls-1" d="M19.28,84.48c-.91-.78.57-1.97,1.3-1.16s-.41,1.92-1.3,1.16Z"/>
      <path class="cls-1" d="M19.8,58.4c1.43-.17,1.2,2.11-.29,1.54-.82-.31-.6-1.43.29-1.54Z"/>
      <path class="cls-1" d="M19.56,37.85c1.36-.38,1.64,1.28.62,1.57s-1.67-1.28-.62-1.57Z"/>
      <path class="cls-1" d="M19.68,54.36c1.56-.3,1.34,2.15-.17,1.54-.73-.3-.62-1.39.17-1.54Z"/>
      <path class="cls-1" d="M147.39,70.99c.74-.74,2.2.25,1.37,1.12s-2.06-.43-1.37-1.12Z"/>
      <path class="cls-1" d="M19.28,42.12c.84-.72,2.02.37,1.3,1.16s-2.21-.38-1.3-1.16Z"/>
      <path class="cls-1" d="M19.28,79.19c.63-.5,1.62-.12,1.47.78-.23,1.46-2.62.13-1.47-.78Z"/>
      <path class="cls-1" d="M19.28,68.08c-.87-.75.4-1.9,1.24-1.22s-.34,1.99-1.24,1.22Z"/>
      <path class="cls-1" d="M147.67,33.69c1.74-.48,1.7,1.82.12,1.48-.79-.17-.72-1.32-.12-1.48Z"/>
      <path class="cls-1" d="M19.56,33.69c1.68-.38,1.58,1.76.1,1.51-.7-.12-.95-1.31-.1-1.51Z"/>
      <path class="cls-1" d="M19.92,70.76c.9-.05,1.22,1.2.34,1.53-1.3.49-1.84-1.45-.34-1.53Z"/>
      <path class="cls-1" d="M20.01,95.39c1.12.04,1.06,1.83-.35,1.59-.92-.16-.83-1.63.35-1.59Z"/>
    </g>
    <g>
      <rect class="cls-7" x="60.88" y="61.93" width="10.12" height="16.64" rx="1.51" ry="1.51"/>
      <rect class="cls-6" x="26.97" y="58.92" width="10.53" height="18.73" rx="1.3" ry="1.3"/>
      <g>
        <path class="cls-2" d="M36.32,58.31h-8.34c-1.11,0-2.02.9-2.02,2.02v15.78c0,1.11.9,2.02,2.02,2.02h8.34c1.11,0,2.02-.9,2.02-2.02v-15.78c0-1.11-.9-2.02-2.02-2.02ZM37.29,76.18c0,.6-.49,1.09-1.09,1.09h-8.07c-.6,0-1.09-.49-1.09-1.09v-15.91c0-.6.49-1.09,1.09-1.09h8.07c.6,0,1.09.49,1.09,1.09v15.91Z"/>
        <g>
          <path class="cls-9" d="M29.69,74.78h-.74l-.12.35h-.39l.67-1.86h.43l.67,1.86h-.39l-.12-.35ZM29.59,74.48l-.27-.78-.27.78h.54Z"/>
          <path class="cls-9" d="M30.82,74.83h.61v.3h-.98v-1.86h.37v1.56Z"/>
          <path class="cls-9" d="M32.94,73.27v.3h-.49v1.56h-.37v-1.56h-.49v-.3h1.36Z"/>
          <path class="cls-9" d="M33.58,73.27v1.86h-.37v-1.86h.37Z"/>
          <path class="cls-9" d="M35.54,75.13h-.37l-.84-1.27v1.27h-.37v-1.86h.37l.84,1.28v-1.28h.37v1.86Z"/>
        </g>
        <g>
          <path class="cls-9" d="M29.55,62.96v-.63h1.18v3.57h-.7v-2.93h-.47Z"/>
          <path class="cls-9" d="M33.07,63.26c.15.08.27.18.36.31v-.39h.69v2.73c0,.25-.05.48-.15.67-.1.2-.25.35-.46.47-.2.12-.45.17-.73.17-.39,0-.7-.09-.95-.27s-.39-.42-.42-.73h.68c.04.12.11.22.23.3.12.07.26.11.43.11.2,0,.36-.06.48-.18.12-.12.19-.3.19-.54v-.42c-.09.13-.21.23-.36.32-.15.08-.33.13-.53.13-.23,0-.44-.06-.63-.18-.19-.12-.34-.28-.45-.5-.11-.21-.16-.46-.16-.74s.05-.52.16-.73c.11-.21.26-.38.44-.49.19-.11.4-.17.63-.17.2,0,.38.04.53.12ZM33.34,64.11c-.07-.12-.15-.21-.26-.27-.11-.06-.23-.1-.36-.1s-.24.03-.35.09c-.11.06-.19.15-.26.27-.07.12-.1.26-.1.42s.03.31.1.43c.07.12.15.22.26.28.11.07.23.1.35.1s.25-.03.36-.1.2-.15.26-.27c.06-.12.1-.26.1-.43s-.03-.31-.1-.43Z"/>
        </g>
      </g>
      <rect class="cls-5" x="36.11" y="68.58" width="10.12" height="17.02" rx="1.99" ry="1.99"/>
      <g>
        <g>
          <path class="cls-9" d="M62.2,67.52c.29-.24.51-.44.68-.6s.31-.32.42-.5.17-.34.17-.51c0-.15-.04-.27-.11-.36-.07-.09-.18-.13-.33-.13s-.26.05-.34.15c-.08.1-.12.24-.13.41h-.61c.01-.36.12-.63.32-.81.2-.18.46-.28.76-.28.34,0,.6.09.78.27.18.18.27.42.27.71,0,.23-.06.45-.19.66-.13.21-.27.39-.43.55-.16.16-.37.34-.63.56h1.32v.52h-2.2v-.46l.23-.2Z"/>
          <path class="cls-9" d="M64.84,65.34c.19-.29.49-.44.93-.44s.74.15.92.44.28.69.28,1.21-.09.92-.28,1.22-.49.44-.92.44-.74-.15-.93-.44-.28-.7-.28-1.22.09-.92.28-1.21ZM66.31,66c-.03-.15-.08-.27-.17-.37-.09-.1-.21-.14-.38-.14s-.29.05-.38.14c-.08.1-.14.22-.17.37-.03.15-.04.34-.04.55s.01.42.04.57c.03.15.08.28.17.37.09.09.21.14.38.14s.29-.05.38-.14c.09-.09.14-.22.17-.37.03-.15.04-.34.04-.57s-.01-.4-.04-.55Z"/>
          <path class="cls-9" d="M68.96,65.82c.14.07.25.17.33.28v-.35h.63v2.49c0,.23-.05.43-.14.61-.09.18-.23.32-.41.43-.18.11-.41.16-.67.16-.35,0-.64-.08-.86-.25-.22-.16-.35-.39-.38-.67h.62c.03.11.1.2.21.27s.24.1.39.1c.18,0,.33-.05.44-.16s.17-.27.17-.49v-.38c-.08.12-.19.21-.33.29-.14.08-.3.12-.48.12-.21,0-.4-.05-.57-.16-.17-.11-.31-.26-.41-.45-.1-.19-.15-.42-.15-.67s.05-.47.15-.66c.1-.19.24-.34.41-.45s.36-.16.57-.16c.18,0,.35.04.49.11ZM69.2,66.6c-.06-.11-.14-.19-.24-.25-.1-.06-.21-.09-.33-.09s-.22.03-.32.08-.18.14-.24.25c-.06.11-.09.24-.09.39s.03.28.09.39c.06.11.14.2.24.26.1.06.21.09.32.09s.22-.03.33-.09c.1-.06.18-.14.24-.25.06-.11.09-.24.09-.39s-.03-.28-.09-.39Z"/>
        </g>
        <path class="cls-2" d="M69.72,61.31h-7.6c-1.02,0-1.84.82-1.84,1.84v14.39c0,1.02.82,1.84,1.84,1.84h7.6c1.02,0,1.84-.82,1.84-1.84v-14.39c0-1.02-.82-1.84-1.84-1.84ZM70.59,77.59c0,.55-.45,1-1,1h-7.36c-.55,0-1-.45-1-1v-14.5c0-.55.45-1,1-1h7.36c.55,0,1,.45,1,1v14.5Z"/>
        <g>
          <path class="cls-9" d="M63.67,76.32h-.67l-.11.32h-.36l.61-1.69h.4l.61,1.69h-.36l-.11-.32ZM63.57,76.05l-.24-.71-.24.71h.49Z"/>
          <path class="cls-9" d="M64.7,76.37h.56v.27h-.9v-1.69h.34v1.42Z"/>
          <path class="cls-9" d="M66.63,74.95v.27h-.45v1.42h-.34v-1.42h-.45v-.27h1.24Z"/>
          <path class="cls-9" d="M67.21,74.95v1.69h-.34v-1.69h.34Z"/>
          <path class="cls-9" d="M69,76.64h-.34l-.77-1.16v1.16h-.34v-1.69h.34l.77,1.16v-1.16h.34v1.69Z"/>
        </g>
      </g>
      <rect class="cls-4" x="52.26" y="71.51" width="10.12" height="16.64" rx="1.51" ry="1.51"/>
      <g>
        <path class="cls-2" d="M45.06,68.17h-7.57c-1.01,0-1.83.82-1.83,1.83v14.34c0,1.01.82,1.83,1.83,1.83h7.57c1.01,0,1.83-.82,1.83-1.83v-14.34c0-1.01-.82-1.83-1.83-1.83ZM45.94,84.4c0,.55-.45.99-.99.99h-7.33c-.55,0-.99-.45-.99-.99v-14.45c0-.55.45-.99.99-.99h7.33c.55,0,.99.45.99.99v14.45Z"/>
        <g>
          <path class="cls-9" d="M39.03,83.12h-.67l-.11.32h-.36l.61-1.69h.39l.61,1.69h-.36l-.11-.32ZM38.94,82.85l-.24-.71-.24.71h.49Z"/>
          <path class="cls-9" d="M40.07,83.18h.56v.27h-.89v-1.69h.34v1.42Z"/>
          <path class="cls-9" d="M41.99,81.76v.27h-.45v1.41h-.34v-1.41h-.45v-.27h1.24Z"/>
          <path class="cls-9" d="M42.57,81.76v1.69h-.34v-1.69h.34Z"/>
          <path class="cls-9" d="M44.35,83.45h-.34l-.77-1.16v1.16h-.34v-1.69h.34l.77,1.16v-1.16h.34v1.69Z"/>
        </g>
        <g>
          <path class="cls-9" d="M40.68,72.35h-1.44v.76c.06-.08.15-.14.27-.19.12-.05.24-.07.37-.07.24,0,.43.05.58.16.15.1.26.24.33.4.07.16.1.33.1.52,0,.34-.1.62-.29.82-.19.21-.47.31-.83.31-.34,0-.61-.08-.81-.25s-.32-.39-.34-.66h.6c.03.12.09.21.18.28s.21.11.36.11c.17,0,.31-.05.4-.16.09-.11.13-.25.13-.44s-.05-.32-.14-.42c-.09-.1-.22-.14-.4-.14-.12,0-.23.03-.31.09-.08.06-.14.15-.18.25h-.6v-1.9h2.01v.55Z"/>
          <path class="cls-9" d="M42.89,72.66c.14.07.25.17.33.28v-.35h.63v2.48c0,.23-.05.43-.14.61-.09.18-.23.32-.41.43-.18.11-.41.16-.67.16-.35,0-.64-.08-.86-.24-.22-.16-.35-.39-.38-.67h.62c.03.11.1.2.21.27.11.07.24.1.39.1.18,0,.33-.05.44-.16.11-.11.17-.27.17-.49v-.38c-.08.12-.19.21-.33.29-.14.08-.3.12-.48.12-.21,0-.4-.05-.57-.16-.17-.11-.31-.26-.41-.45-.1-.19-.15-.42-.15-.67s.05-.47.15-.66.23-.34.4-.44c.17-.1.36-.16.57-.16.18,0,.34.04.48.11ZM43.13,73.43c-.06-.11-.14-.19-.24-.25s-.21-.09-.32-.09-.22.03-.32.08c-.1.06-.18.14-.24.25-.06.11-.09.24-.09.38s.03.28.09.39c.06.11.14.2.24.26.1.06.21.09.32.09s.22-.03.32-.09.18-.14.24-.25c.06-.11.09-.24.09-.39s-.03-.28-.09-.39Z"/>
        </g>
      </g>
      <g>
        <g>
          <path class="cls-9" d="M54.06,75.19v-.57h1.06v3.21h-.63v-2.64h-.43Z"/>
          <path class="cls-9" d="M57.89,75.15h-1.43v.75c.06-.08.15-.14.26-.19s.24-.07.36-.07c.23,0,.43.05.58.15.15.1.26.23.33.39.07.16.1.33.1.51,0,.34-.1.61-.29.81-.19.21-.47.31-.82.31-.33,0-.6-.08-.8-.25s-.31-.39-.34-.66h.6c.03.12.09.21.18.28.09.07.21.11.35.11.17,0,.3-.05.39-.16.09-.11.13-.25.13-.43s-.04-.32-.13-.42c-.09-.1-.22-.14-.39-.14-.12,0-.23.03-.31.09-.08.06-.14.14-.18.25h-.59v-1.88h1.99v.54Z"/>
          <path class="cls-9" d="M60.07,75.46c.14.07.25.17.33.28v-.35h.62v2.46c0,.23-.05.43-.14.61-.09.18-.23.32-.41.42-.18.1-.4.16-.66.16-.35,0-.63-.08-.85-.24s-.35-.38-.38-.66h.61c.03.11.1.2.21.27.11.07.24.1.39.1.18,0,.32-.05.44-.16.11-.11.17-.27.17-.49v-.38c-.08.11-.19.21-.33.29-.14.08-.3.11-.48.11-.21,0-.39-.05-.56-.16s-.3-.25-.4-.45c-.1-.19-.15-.41-.15-.66s.05-.47.15-.66c.1-.19.23-.34.4-.44s.36-.15.57-.15c.18,0,.34.04.48.11ZM60.31,76.22c-.06-.11-.14-.19-.24-.25-.1-.06-.21-.09-.32-.09s-.22.03-.32.08c-.1.06-.18.14-.24.24-.06.11-.09.23-.09.38s.03.28.09.39c.06.11.14.19.24.25s.2.09.31.09.22-.03.32-.09c.1-.06.18-.14.24-.25s.09-.24.09-.39-.03-.28-.09-.39Z"/>
        </g>
        <path class="cls-2" d="M61.22,71.01h-7.5c-1,0-1.82.81-1.82,1.82v14.2c0,1,.81,1.82,1.82,1.82h7.5c1,0,1.82-.81,1.82-1.82v-14.2c0-1-.81-1.82-1.82-1.82ZM62.09,87.08c0,.54-.44.98-.98.98h-7.26c-.54,0-.98-.44-.98-.98v-14.31c0-.54.44-.98.98-.98h7.26c.54,0,.98.44.98.98v14.31Z"/>
        <g>
          <path class="cls-9" d="M55.25,85.82h-.67l-.11.32h-.35l.6-1.67h.39l.6,1.67h-.35l-.11-.32ZM55.16,85.55l-.24-.7-.24.7h.48Z"/>
          <path class="cls-9" d="M56.28,85.87h.55v.27h-.89v-1.67h.34v1.4Z"/>
          <path class="cls-9" d="M58.18,84.47v.27h-.44v1.4h-.34v-1.4h-.44v-.27h1.22Z"/>
          <path class="cls-9" d="M58.76,84.47v1.67h-.33v-1.67h.33Z"/>
          <path class="cls-9" d="M60.51,86.14h-.34l-.76-1.15v1.15h-.33v-1.67h.33l.76,1.15v-1.15h.34v1.67Z"/>
        </g>
      </g>
      <rect class="cls-3" x="43.58" y="77.48" width="10.12" height="17.23" rx="1.23" ry="1.23"/>
      <g>
        <path class="cls-2" d="M52.6,76.75h-7.76c-1.04,0-1.88.84-1.88,1.88v14.7c0,1.04.84,1.88,1.88,1.88h7.76c1.04,0,1.88-.84,1.88-1.88v-14.7c0-1.04-.84-1.88-1.88-1.88ZM53.5,93.39c0,.56-.46,1.02-1.02,1.02h-7.52c-.56,0-1.02-.46-1.02-1.02v-14.82c0-.56.46-1.02,1.02-1.02h7.52c.56,0,1.02.46,1.02,1.02v14.82Z"/>
        <g>
          <path class="cls-9" d="M45.15,81.08v-.59h1.1v3.32h-.66v-2.73h-.44Z"/>
          <path class="cls-9" d="M47.16,80.87c.19-.3.5-.45.95-.45s.76.15.94.45c.19.3.29.71.29,1.23s-.09.94-.29,1.24c-.19.3-.5.45-.94.45s-.76-.15-.95-.45-.28-.72-.28-1.24.09-.94.28-1.23ZM48.66,81.54c-.03-.15-.09-.28-.17-.38-.09-.1-.21-.15-.38-.15s-.3.05-.39.15c-.09.1-.14.22-.17.38-.03.15-.04.34-.04.57s.01.42.04.58c.03.16.09.28.17.38.09.1.22.14.39.14s.3-.05.39-.14.15-.22.17-.38c.03-.16.04-.35.04-.58s-.01-.41-.04-.57Z"/>
          <path class="cls-9" d="M51.37,81.36c.14.07.26.17.34.29v-.36h.64v2.54c0,.23-.05.44-.14.63-.09.18-.24.33-.42.44s-.42.16-.68.16c-.36,0-.65-.08-.88-.25-.23-.17-.36-.39-.39-.68h.63c.03.12.11.21.22.28.11.07.25.1.4.1.19,0,.34-.06.45-.17.12-.11.17-.28.17-.5v-.39c-.08.12-.2.22-.34.3-.14.08-.31.12-.49.12-.21,0-.41-.05-.58-.16s-.31-.26-.42-.46c-.1-.2-.15-.43-.15-.69s.05-.48.15-.68c.1-.2.24-.35.41-.46.17-.11.37-.16.59-.16.19,0,.35.04.5.11ZM51.62,82.15c-.06-.11-.14-.2-.25-.26-.1-.06-.21-.09-.33-.09s-.23.03-.33.09c-.1.06-.18.14-.24.25s-.09.24-.09.39.03.28.09.4.14.2.25.26.21.09.33.09.23-.03.33-.09.19-.14.25-.26c.06-.11.09-.24.09-.4s-.03-.29-.09-.4Z"/>
        </g>
        <g>
          <path class="cls-9" d="M46.42,92.09h-.69l-.11.33h-.36l.62-1.73h.4l.62,1.73h-.37l-.11-.33ZM46.33,91.81l-.25-.72-.25.72h.5Z"/>
          <path class="cls-9" d="M47.48,92.14h.57v.28h-.92v-1.73h.35v1.45Z"/>
          <path class="cls-9" d="M49.45,90.69v.28h-.46v1.45h-.35v-1.45h-.46v-.28h1.27Z"/>
          <path class="cls-9" d="M50.05,90.69v1.73h-.35v-1.73h.35Z"/>
          <path class="cls-9" d="M51.87,92.42h-.35l-.79-1.19v1.19h-.35v-1.73h.35l.79,1.19v-1.19h.35v1.73Z"/>
        </g>
      </g>
    </g>
  </g>
  <path class="cls-8" d="M50.43,69.38c-.69,0-1.36-.21-1.99-.63-.76-.5-1.57-1.5-2.72-2.97-.32-.4-.6-.77-.81-1.01-5.12-5.87-10.09-11.7-14.76-17.32l-.13-.15-.09-.17c-.71-1.3-.59-2.81.31-4.05l.17-.23.23-.18c.73-.57,1.48-1.27,2.26-2,.99-.92,2-1.88,3.08-2.65.69-.49,1.53-.99,2.57-.99.89,0,1.74.36,2.51,1.08l.08.07,9.22,10.6c4.07-4.57,8.3-9.08,12.4-13.47,1.87-1.99,3.73-3.98,5.58-5.98.2-.22.51-.58.86-1,1.82-2.17,2.72-3.14,3.58-3.54.53-.25,1.04-.37,1.55-.37.76,0,1.38.27,1.89.54l.37.2.26.33c.3.38.93.89,1.54,1.39.96.78,1.95,1.59,2.54,2.53.51.82.64,1.85.34,2.84-.17.58-.6,1.17-1.78,2.64-.14.17-.25.31-.33.41-7.21,9.37-14.75,18.73-22.05,27.77l-4.36,5.41-.19.14c-.65.5-1.39.76-2.14.76Z"/>
  <path class="cls-10" d="M46.41,63.46c-4.97-5.7-9.89-11.47-14.73-17.28-.35-.65-.25-1.34.17-1.93,1.76-1.37,3.49-3.33,5.28-4.6.93-.66,1.62-.94,2.58-.07l10.7,12.31c0-.13.08-.24.16-.33,6.24-7.09,12.82-13.95,19.23-20.86.79-.85,2.99-3.7,3.82-4.09.65-.3,1.05-.2,1.67.13.95,1.19,3.18,2.52,3.95,3.74.22.35.24.82.12,1.21s-1.42,1.94-1.77,2.4c-8.56,11.13-17.43,22.03-26.24,32.96-.59.45-1.19.45-1.8.05-.79-.52-2.39-2.78-3.13-3.63ZM49.93,65.32c.18.19.31.45.54.61,9.16-11.46,18.25-23,27.21-34.63l.06-.23-3.33-3.25-23.88,25.87c-.35.15-.63-.13-.88-.34l-11.17-12.78-5.48,4.6-.04.15c.6.78,1.23,1.56,1.86,2.32,4.8,5.78,9.98,12.26,15.11,17.68Z"/>
</svg>