<svg xmlns="http://www.w3.org/2000/svg" width="33" height="33" fill="none" viewBox="0 0 33 33">
  <path fill="#B8860B" d="M5.588 25.125a3.79 3.79 0 0 1 1.082-2.702c.665-.691 1.57-1.164 2.557-1.495 1.967-.66 4.571-.858 7.252-.858 2.697 0 5.303.206 7.266.874.988.336 1.888.813 2.55 1.507a3.81 3.81 0 0 1 1.073 2.703 3.79 3.79 0 0 1-1.08 2.702c-.666.691-1.57 1.163-2.558 1.495-1.965.66-4.57.858-7.25.858-2.698 0-5.304-.206-7.268-.873-.987-.336-1.887-.813-2.55-1.507a3.81 3.81 0 0 1-1.074-2.704Zm2.063 0c0 .535.177.938.503 1.28.351.368.913.703 1.722.978 1.63.554 3.953.764 6.603.764 2.637 0 4.962-.203 6.596-.752.811-.272 1.375-.604 1.727-.97.327-.34.504-.739.504-1.271 0-.535-.177-.937-.503-1.28-.351-.367-.913-.702-1.722-.977-1.629-.554-3.952-.765-6.602-.765-2.637 0-4.962.204-6.596.751-.812.273-1.376.605-1.728.97-.327.34-.504.74-.504 1.272Z"/>
  <path fill="#B8860B" d="M21.766 10.188a5.288 5.288 0 0 0-10.576 0v.004a5.267 5.267 0 0 0 5.248 5.285h.041a5.288 5.288 0 0 0 5.287-5.289Zm2.063 0a7.35 7.35 0 0 1-7.35 7.351h-.048a7.33 7.33 0 0 1-7.303-7.354 7.35 7.35 0 0 1 14.7.003Z" opacity=".4"/>
</svg>
