<svg xmlns="http://www.w3.org/2000/svg" width="37" height="38" fill="none" viewBox="0 0 37 38">
  <path fill="#B8860B" d="M34.225 18.722c0 8.787-7.042 15.913-15.725 15.913-8.684 0-15.725-7.126-15.725-15.913 0-8.79 7.041-15.914 15.725-15.914s15.725 7.124 15.725 15.914Zm2.775 0C37 8.382 28.716 0 18.5 0S0 8.381 0 18.722C0 29.06 8.284 37.443 18.5 37.443S37 29.06 37 18.722Z" opacity=".4"/>
  <path fill="#B8860B" d="M14.81 26.625a1.462 1.462 0 0 0 2.04.004l6.707-6.557c.272-.266.425-.627.425-1.004s-.153-.738-.425-1.004l-6.707-6.557a1.462 1.462 0 0 0-2.04.004 1.399 1.399 0 0 0 .004 2.004l5.68 5.553-5.68 5.553a1.399 1.399 0 0 0-.005 2.004Z"/>
</svg>
