<svg xmlns="http://www.w3.org/2000/svg" width="37" height="38" fill="none" viewBox="0 0 37 38">
  <path fill="#B8860B" d="M2.775 18.722c0 8.787 7.042 15.913 15.725 15.913 8.684 0 15.725-7.126 15.725-15.913 0-8.79-7.041-15.914-15.725-15.914-8.683 0-15.725 7.124-15.725 15.914Zm-2.775 0C0 8.382 8.284 0 18.5 0S37 8.381 37 18.722c0 10.338-8.284 18.721-18.5 18.721S0 29.06 0 18.722Z" opacity=".4"/>
  <path fill="#B8860B" d="M22.19 26.625a1.462 1.462 0 0 1-2.04.004l-6.707-6.557a1.404 1.404 0 0 1-.424-1.004c0-.377.152-.738.424-1.004l6.707-6.557a1.462 1.462 0 0 1 2.04.004 1.398 1.398 0 0 1-.004 2.004l-5.68 5.553 5.68 5.553a1.4 1.4 0 0 1 .005 2.004Z"/>
</svg>
