<svg xmlns="http://www.w3.org/2000/svg" width="34" height="34" fill="none" viewBox="0 0 34 34">
  <path fill="#B8860B" d="M29.042 17c0-6.65-5.393-12.042-12.042-12.042C10.35 4.958 4.958 10.35 4.958 17c0 6.65 5.392 12.04 12.042 12.04 6.65 0 12.042-5.39 12.042-12.041Zm2.125 0c0 7.824-6.344 14.166-14.167 14.166-7.823 0-14.167-6.342-14.167-14.166C2.833 9.177 9.177 2.833 17 2.833c7.823 0 14.167 6.344 14.167 14.167Z" opacity=".4"/>
  <path fill="#B8860B" d="M14.204 11.333a1.063 1.063 0 0 1 1.502-.003l4.939 4.917a1.062 1.062 0 0 1 0 1.506l-4.939 4.917a1.062 1.062 0 1 1-1.499-1.506L18.389 17l-4.182-4.164a1.063 1.063 0 0 1-.003-1.503Z"/>
</svg>
