<svg xmlns="http://www.w3.org/2000/svg" width="33" height="33" fill="none" viewBox="0 0 33 33">
  <path fill="#B8860B" d="M19.684 11.344c2.399 0 4.312-.003 5.774.209 1.489.215 2.718.678 3.573 1.774.855 1.095 1.007 2.4.855 3.896-.15 1.47-.616 3.325-1.198 5.653-.37 1.476-.667 2.672-1.021 3.603-.364.956-.827 1.74-1.59 2.335-.762.596-1.635.854-2.65.976-.99.118-2.222.116-3.743.116h-6.368c-1.521 0-2.754.002-3.742-.116-1.016-.122-1.889-.38-2.652-.976-.762-.595-1.225-1.38-1.589-2.335-.354-.93-.652-2.127-1.02-3.603-.583-2.328-1.05-4.183-1.199-5.653-.152-1.496 0-2.8.855-3.896s2.084-1.559 3.573-1.774c1.462-.212 3.375-.21 5.774-.21h6.368Zm-6.368 2.062c-2.464 0-4.2.003-5.479.188-1.253.181-1.859.511-2.242 1.002-.384.491-.557 1.16-.429 2.419.131 1.286.55 2.97 1.147 5.36l.138.551c.31 1.234.546 2.128.81 2.818.29.763.574 1.166.93 1.445.357.278.817.456 1.628.553.838.1 1.925.102 3.497.102h6.368c1.572 0 2.66-.002 3.497-.102.81-.097 1.27-.275 1.627-.553l.033-.027c.341-.277.617-.679.899-1.418.3-.788.566-1.843.947-3.368l.11-.44c.539-2.16.914-3.715 1.037-4.921.128-1.26-.045-1.928-.429-2.419-.383-.491-.99-.82-2.242-1.002-1.28-.185-3.015-.188-5.48-.188h-6.367Z"/>
  <path fill="#B8860B" d="M12.375 4.469V6.53c-1.52 0-1.997.018-2.376.165-.42.165-.786.444-1.055.807-.243.326-.385.782-.785 2.248l-.977 3.583-1.99-.543 1.105-4.05c.289-1.056.527-1.843.99-2.468l.024-.031A4.469 4.469 0 0 1 9.25 4.775c.828-.323 1.783-.306 3.126-.306Zm8.25 0c1.343 0 2.298-.017 3.127.306.768.3 1.439.809 1.937 1.467l.023.031c.53.714.765 1.64 1.119 2.936l.977 3.582-1.99.543-.977-3.583c-.4-1.466-.542-1.922-.784-2.248A2.407 2.407 0 0 0 23 6.696c-.379-.147-.856-.165-2.376-.165V4.47Z" opacity=".5"/>
  <path fill="#B8860B" d="M19.594 5.5a.344.344 0 0 0-.344-.344h-5.5a.344.344 0 0 0 0 .688h5.5c.19 0 .344-.154.344-.344Zm2.062 0a2.406 2.406 0 0 1-2.406 2.406h-5.5a2.406 2.406 0 0 1 0-4.812h5.5A2.406 2.406 0 0 1 21.656 5.5Z"/>
  <path fill="#B8860B" d="M9.969 23.375v-5.5a1.031 1.031 0 0 1 2.062 0v5.5a1.031 1.031 0 0 1-2.062 0Zm11 0v-5.5a1.031 1.031 0 0 1 2.062 0v5.5a1.031 1.031 0 0 1-2.062 0Zm-5.5 0v-5.5a1.031 1.031 0 0 1 2.062 0v5.5a1.031 1.031 0 0 1-2.062 0Z" opacity=".5"/>
</svg>
