<svg xmlns="http://www.w3.org/2000/svg" width="24" height="22" fill="none" viewBox="0 0 24 22">
  <path fill="#B8860B" d="M22.91 9.481c.602 0 1.09.472 1.09 1.054 0 .582-.488 1.053-1.09 1.053H1.09c-.602 0-1.09-.471-1.09-1.053S.488 9.48 1.09 9.48h21.82Z" opacity=".4"/>
  <path fill="#B8860B" d="M13.318.343A1.045 1.045 0 0 1 14.864.34l8.814 9.368c.206.219.322.516.322.826 0 .31-.116.608-.322.827l-8.814 9.37a1.045 1.045 0 0 1-1.546-.004 1.223 1.223 0 0 1 .004-1.65l8.037-8.543-8.037-8.541a1.223 1.223 0 0 1-.004-1.65Z"/>
</svg>
