<svg xmlns="http://www.w3.org/2000/svg" width="198" height="80" fill="none" viewBox="0 0 198 80">
  <path fill="#B8860B" d="M68.683 16.216c0-2.192.41-4.251 1.227-6.18a16.533 16.533 0 0 1 3.507-5.171 16.3 16.3 0 0 1 5.127-3.55C80.502.438 82.606 0 84.855 0c2.22 0 4.295.438 6.224 1.315a16.175 16.175 0 0 1 5.171 3.55 16.176 16.176 0 0 1 3.55 5.171c.847 1.929 1.271 3.988 1.271 6.18 0 2.25-.424 4.353-1.27 6.31a16.175 16.175 0 0 1-3.55 5.172 16.912 16.912 0 0 1-5.172 3.462c-1.929.819-4.003 1.228-6.224 1.228-2.25 0-4.353-.41-6.31-1.227a16.42 16.42 0 0 1-5.128-3.419 16.014 16.014 0 0 1-3.507-5.128c-.817-1.957-1.227-4.09-1.227-6.398Zm4.383.043c0 1.666.307 3.23.92 4.69a12.447 12.447 0 0 0 2.542 3.813 12.164 12.164 0 0 0 3.77 2.63c1.431.613 2.98.92 4.645.92 1.636 0 3.17-.307 4.602-.92a11.644 11.644 0 0 0 3.725-2.63 12.86 12.86 0 0 0 2.498-3.813c.614-1.46.92-3.039.92-4.733 0-1.666-.306-3.229-.92-4.69a12.17 12.17 0 0 0-2.542-3.9 11.57 11.57 0 0 0-3.769-2.586c-1.432-.643-2.965-.964-4.602-.964-1.665 0-3.214.321-4.645.964a12.164 12.164 0 0 0-3.77 2.63 11.591 11.591 0 0 0-2.497 3.9c-.585 1.461-.877 3.024-.877 4.69Z"/>
  <path fill="#B8860B" d="M112.606 27.316c0 1.325-.574 2.607-1.765 3.189l-.076.037a22.91 22.91 0 0 1-2.63.964c-.935.292-1.913.526-2.936.7a16.11 16.11 0 0 1-2.805.264c-2.542 0-4.835-.395-6.88-1.183-2.016-.79-3.755-1.885-5.216-3.287a14.797 14.797 0 0 1-3.33-4.953c-.76-1.899-1.14-3.959-1.14-6.18 0-2.629.423-4.98 1.27-7.055.877-2.104 2.06-3.872 3.55-5.303a15.034 15.034 0 0 1 5.216-3.287c1.958-.76 4.032-1.14 6.223-1.14 1.841 0 3.55.22 5.128.658.939.26 1.81.562 2.614.906.914.39 1.29 1.46.944 2.391-.433 1.17-1.849 1.699-3.032 1.304a19.297 19.297 0 0 0-2.63-.7 11.568 11.568 0 0 0-2.541-.308c-1.87 0-3.565.293-5.084.877-1.52.555-2.82 1.373-3.9 2.454-1.082 1.052-1.915 2.338-2.499 3.857-.584 1.49-.877 3.17-.877 5.04 0 1.724.293 3.302.877 4.733a10.864 10.864 0 0 0 2.498 3.725c1.081 1.023 2.367 1.827 3.857 2.41 1.52.556 3.185.834 4.996.834 1.081 0 2.148-.103 3.199-.307 1.739-.387 2.718-2.075 2.718-3.857v-2.512c0-.579.236-1.133.654-1.534 1.352-1.296 3.597-.338 3.597 1.534v5.729Z"/>
  <path fill="#E6BE8A" d="M77.924 59.292c-.616 0-1.144-.122-1.586-.364a2.685 2.685 0 0 1-1.027-1.014 3.073 3.073 0 0 1-.351-1.482c0-.529.134-1.01.403-1.443.269-.433.628-.78 1.079-1.04.45-.26.953-.39 1.508-.39.71 0 1.3.208 1.768.624.468.416.784.988.949 1.716l-4.433 1.56-.286-.715 3.64-1.326-.26.169a1.754 1.754 0 0 0-.52-.741c-.243-.217-.56-.325-.95-.325-.329 0-.623.082-.883.247a1.63 1.63 0 0 0-.611.65 1.99 1.99 0 0 0-.221.949c0 .372.078.702.234.988.156.277.368.498.637.663.277.156.589.234.936.234.234 0 .459-.044.676-.13.225-.087.433-.2.624-.338l.559.897a3.715 3.715 0 0 1-.91.442c-.33.112-.655.169-.975.169ZM67.112 53.78l.104 1.313-.052-.208c.173-.399.454-.715.844-.95.39-.242.841-.363 1.352-.363.512 0 .928.151 1.248.455.33.294.499.68.507 1.157v3.978h-1.222v-3.55c-.008-.294-.095-.532-.26-.714-.156-.19-.403-.286-.74-.286-.313 0-.594.086-.846.26-.25.173-.45.411-.598.715a2.51 2.51 0 0 0-.207 1.053v2.522h-1.21V53.78h1.08Zm-6.59 0h1.209v5.382h-1.209V53.78Zm-.09-1.95c0-.19.073-.351.22-.481a.776.776 0 0 1 .507-.195c.182 0 .342.065.481.195.147.13.221.29.221.48a.63.63 0 0 1-.221.495.709.709 0 0 1-.481.182.776.776 0 0 1-.507-.195.616.616 0 0 1-.22-.481Zm-5.421-2.73h1.21v10.062h-1.21V49.1Zm-8.316 4.68.104 1.313-.052-.208c.174-.399.455-.715.845-.95.39-.242.84-.363 1.352-.363.511 0 .927.151 1.248.455.33.294.498.68.507 1.157v3.978h-1.222v-3.55c-.008-.294-.095-.532-.26-.714-.156-.19-.403-.286-.74-.286-.313 0-.594.086-.846.26-.251.173-.45.411-.598.715a2.51 2.51 0 0 0-.208 1.053v2.522h-1.209V53.78h1.08Zm-14.721.689c0-.65.122-1.261.364-1.833a4.903 4.903 0 0 1 1.04-1.534c.442-.45.95-.802 1.521-1.053.58-.26 1.205-.39 1.872-.39.659 0 1.274.13 1.846.39.58.251 1.092.602 1.534 1.053a4.8 4.8 0 0 1 1.053 1.534c.251.572.377 1.183.377 1.833a4.67 4.67 0 0 1-.377 1.872 4.799 4.799 0 0 1-1.053 1.534 5.017 5.017 0 0 1-1.534 1.027 4.677 4.677 0 0 1-1.846.364 4.804 4.804 0 0 1-1.872-.364 4.87 4.87 0 0 1-1.52-1.014 4.749 4.749 0 0 1-1.04-1.521 4.872 4.872 0 0 1-.365-1.898Zm1.3.013c0 .494.091.957.273 1.39.182.425.434.802.754 1.132.32.329.694.589 1.118.78a3.46 3.46 0 0 0 1.378.273c.485 0 .94-.091 1.365-.273a3.46 3.46 0 0 0 1.105-.78c.312-.33.559-.707.741-1.131.182-.434.273-.902.273-1.404 0-.494-.091-.958-.273-1.391a3.61 3.61 0 0 0-.754-1.157 3.43 3.43 0 0 0-1.118-.767 3.294 3.294 0 0 0-1.365-.286c-.494 0-.953.095-1.378.286-.425.19-.797.45-1.118.78a3.44 3.44 0 0 0-.74 1.157 3.71 3.71 0 0 0-.26 1.39Z"/>
  <path fill="#B8860B" d="m77.382 62.56.316 3.675-.158-.316c.606-1.238 1.462-2.213 2.569-2.924 1.133-.712 2.424-1.067 3.873-1.067.922 0 1.739.145 2.45.435.711.29 1.29.71 1.739 1.264.474.527.777 1.186.909 1.976l-.198.119c.632-1.186 1.502-2.108 2.608-2.767 1.133-.685 2.319-1.027 3.557-1.027 1.607 0 2.872.46 3.794 1.383.948.896 1.436 2.068 1.462 3.517v12.093h-3.675V68.132c-.027-.843-.237-1.541-.633-2.094-.368-.58-1.027-.896-1.976-.949-.948 0-1.804.29-2.568.87-.738.58-1.317 1.33-1.739 2.252a7.213 7.213 0 0 0-.672 2.925v7.785h-3.675V68.132c-.026-.843-.25-1.541-.672-2.094-.395-.58-1.067-.896-2.015-.949-.975 0-1.831.29-2.569.87-.738.58-1.317 1.33-1.739 2.252a7.444 7.444 0 0 0-.593 2.964v7.746h-3.675V62.56h3.28ZM55.768 79.316c-1.528 0-2.924-.33-4.189-.988-1.238-.659-2.226-1.62-2.964-2.885-.711-1.29-1.067-2.858-1.067-4.703 0-1.817.382-3.385 1.146-4.702.764-1.344 1.779-2.371 3.043-3.083 1.291-.711 2.7-1.067 4.229-1.067 1.528 0 2.819.356 3.873 1.067 1.053.685 1.857 1.502 2.41 2.45l-.237.633.356-3.478h3.398v16.36h-3.675v-4.267l.395.948c-.105.264-.342.606-.711 1.028-.343.395-.817.803-1.423 1.225a8.581 8.581 0 0 1-2.015 1.067c-.764.263-1.62.395-2.569.395Zm.988-3.043c.922 0 1.752-.171 2.49-.514a4.871 4.871 0 0 0 1.818-1.422c.5-.633.843-1.383 1.027-2.253v-3.2a4.87 4.87 0 0 0-1.106-2.056 5.194 5.194 0 0 0-1.897-1.383c-.738-.342-1.555-.514-2.45-.514-.975 0-1.871.237-2.688.712a5.464 5.464 0 0 0-1.976 1.975c-.474.844-.71 1.832-.71 2.964 0 1.054.25 2.016.75 2.885.5.87 1.172 1.555 2.015 2.055.843.5 1.752.751 2.727.751ZM35.803 62.56l.355 4.742-.197-.632a6.771 6.771 0 0 1 1.818-2.53c.816-.71 1.66-1.25 2.529-1.62.896-.395 1.673-.592 2.332-.592l-.198 3.636c-1.238-.08-2.332.158-3.28.71a6.358 6.358 0 0 0-2.213 2.214 5.878 5.878 0 0 0-.79 2.964v7.469h-3.636V62.56h3.28ZM24.146 76.47c-.395.343-.949.686-1.66 1.028-.711.316-1.502.606-2.371.87-.843.263-1.726.474-2.648.632-.896.158-1.739.237-2.529.237-2.292 0-4.36-.356-6.204-1.067-1.818-.711-3.386-1.7-4.703-2.964a13.344 13.344 0 0 1-3.004-4.465C.342 69.028 0 67.17 0 65.168c0-2.37.382-4.492 1.146-6.362.79-1.897 1.857-3.49 3.201-4.782A13.557 13.557 0 0 1 9.05 51.06c1.765-.685 3.635-1.027 5.611-1.027 1.66 0 3.201.197 4.624.593 1.423.395 2.674.895 3.754 1.501l-1.304 3.517c-.527-.316-1.185-.605-1.976-.869a17.398 17.398 0 0 0-2.37-.632 10.432 10.432 0 0 0-2.293-.277c-1.686 0-3.214.264-4.584.79-1.37.501-2.542 1.239-3.517 2.214-.975.948-1.726 2.107-2.253 3.477-.527 1.344-.79 2.859-.79 4.545 0 1.554.263 2.977.79 4.268a9.794 9.794 0 0 0 2.253 3.359c.975.922 2.134 1.646 3.477 2.173 1.37.501 2.872.751 4.505.751.975 0 1.937-.092 2.885-.276.949-.211 1.766-.5 2.45-.87v-5.69h-5.69V64.93h9.524v11.54Zm161.682-13.91.316 3.992-.158-.633c.527-1.212 1.383-2.173 2.569-2.885 1.185-.737 2.555-1.106 4.11-1.106 1.554 0 2.819.46 3.794 1.383 1.001.896 1.515 2.068 1.541 3.517v12.093h-3.715V68.132c-.026-.895-.29-1.62-.79-2.173-.474-.58-1.225-.87-2.253-.87-.948 0-1.805.264-2.569.79-.764.528-1.37 1.252-1.817 2.174-.422.922-.633 1.99-.633 3.201v7.667h-3.675V62.56h3.28Zm-15.29 0h3.675v16.36h-3.675V62.56Zm-14.597-7.192h3.675v7.271h4.505v2.885h-4.505v13.397h-3.675V65.524h-3.003V62.64h3.003v-7.271Zm-13.591-7.034h3.676V78.92h-3.676V48.333ZM110.729 78.92l12.488-29.757h.237l12.448 29.758h-4.386l-9.327-23.75 2.727-1.78-10.433 25.53h-3.754Zm7.311-10.827h10.63l1.265 3.32h-13.002l1.107-3.32Z"/>
</svg>
