<svg xmlns="http://www.w3.org/2000/svg" width="607" height="450" fill="none" viewBox="0 0 607 450">
  <g opacity=".5">
    <path fill="#7A5C00" fill-opacity=".05" stroke="url(#a)" stroke-width="2" d="M1 224.36c0-30.183 5.634-58.556 16.903-85.118 11.671-26.964 27.77-50.709 48.294-71.234 20.525-20.927 44.068-37.227 70.63-48.898C163.792 7.037 192.768 1 223.757 1c30.586 0 59.16 6.037 85.722 18.11 26.964 11.671 50.709 27.97 71.234 48.898 20.927 20.525 37.226 44.27 48.898 71.234 11.671 26.562 17.506 54.935 17.506 85.118 0 30.989-5.835 59.966-17.506 86.93-11.672 26.964-27.971 50.709-48.898 71.234-20.525 20.122-44.27 36.019-71.234 47.69-26.562 11.269-55.136 16.903-85.722 16.903-30.989 0-59.965-5.634-86.93-16.903-26.562-11.268-50.105-26.964-70.63-47.087-20.525-20.122-36.623-43.666-48.294-70.63C6.634 285.533 1 256.154 1 224.36Zm60.368.604c0 22.94 4.225 44.471 12.677 64.593 8.451 19.721 20.123 37.227 35.013 52.52 14.891 15.294 32.196 27.367 51.916 36.221 19.72 8.451 41.05 12.677 63.99 12.677 22.537 0 43.666-4.226 63.386-12.677 19.72-8.854 36.824-20.927 51.313-36.221 14.488-15.293 25.958-32.799 34.409-52.52 8.452-20.122 12.678-41.854 12.678-65.197 0-22.939-4.226-44.47-12.678-64.593-8.451-20.525-20.122-38.434-35.013-53.727-14.891-15.293-32.196-27.166-51.916-35.617-19.72-8.854-40.849-13.281-63.386-13.281-22.94 0-44.27 4.427-63.99 13.28-19.72 8.855-37.026 20.928-51.916 36.221-14.89 15.294-26.36 33.203-34.41 53.728-8.049 20.122-12.073 41.653-12.073 64.593Z"/>
    <path fill="#7A5C00" fill-opacity=".05" stroke="url(#b)" stroke-width="2" d="M606 400.969c0 3.191-1.36 6.256-3.916 8.165-5.601 4.185-12.747 8.369-21.438 12.554-10.867 4.829-22.94 9.256-36.221 13.281-12.878 4.024-26.361 7.244-40.446 9.659-13.684 2.414-26.562 3.622-38.636 3.622-35.013 0-66.605-5.433-94.777-16.3-27.769-10.866-51.715-25.958-71.838-45.275-19.72-19.318-35.013-42.056-45.879-68.216-10.464-26.159-15.696-54.532-15.696-85.118 0-36.221 5.836-68.618 17.507-97.192 12.074-28.977 28.373-53.325 48.898-73.045 20.927-20.123 44.873-35.215 71.837-45.276C402.36 7.364 430.934 2.133 461.118 2.133c25.354 0 48.897 3.018 70.63 9.055 18.179 5.05 34.528 11.226 49.046 18.528 4.837 2.434 6.916 8.152 5.034 13.228l-12.044 32.483c-2.395 6.458-10.09 9.165-16.357 6.307-5.51-2.513-11.656-4.9-18.435-7.16-11.671-4.025-23.745-7.244-36.221-9.66-12.476-2.816-24.147-4.225-35.013-4.225-25.757 0-49.099 4.025-70.027 12.074-20.927 7.646-38.836 18.915-53.727 33.806-14.89 14.488-26.36 32.196-34.409 53.123-8.049 20.525-12.074 43.666-12.074 69.423 0 23.745 4.025 45.477 12.074 65.197 8.049 19.72 19.519 36.824 34.409 51.313 14.891 14.085 32.599 25.153 53.124 33.202 20.927 7.647 43.867 11.47 68.819 11.47a230.35 230.35 0 0 0 44.068-4.226c11.868-2.637 22.386-6.085 31.554-10.342 3.67-1.705 5.874-5.462 5.874-9.509v-75.667c0-2.997 1.224-5.865 3.388-7.94l36.556-35.049c6.994-6.705 18.613-1.749 18.613 7.94v145.465Z"/>
  </g>
  <defs>
    <linearGradient id="a" x1="224.059" x2="224.059" y1="1" y2="447.117" gradientUnits="userSpaceOnUse">
      <stop stop-color="#B8860B"/>
      <stop offset=".034" stop-color="#B8860B"/>
      <stop offset="1" stop-color="#1E1E1E"/>
    </linearGradient>
    <linearGradient id="b" x1="421.577" x2="421.577" y1="2.133" y2="448.25" gradientUnits="userSpaceOnUse">
      <stop stop-color="#B8860B"/>
      <stop offset=".034" stop-color="#B8860B"/>
      <stop offset="1" stop-color="#1E1E1E"/>
    </linearGradient>
  </defs>
</svg>
