<svg xmlns="http://www.w3.org/2000/svg" width="55" height="40" fill="none" viewBox="0 0 55 40">
  <path fill="#B8860B" d="M0 19.98c0-2.7.504-5.238 1.512-7.614a20.367 20.367 0 0 1 4.32-6.372A20.105 20.105 0 0 1 12.15 1.62C14.562.54 17.155 0 19.927 0c2.736 0 5.292.54 7.668 1.62a19.931 19.931 0 0 1 6.372 4.374 19.93 19.93 0 0 1 4.374 6.372c1.044 2.377 1.566 4.915 1.566 7.615 0 2.772-.522 5.364-1.566 7.776a19.93 19.93 0 0 1-4.374 6.372 20.84 20.84 0 0 1-6.372 4.266c-2.376 1.008-4.932 1.512-7.668 1.512-2.772 0-5.364-.504-7.777-1.512a20.23 20.23 0 0 1-6.318-4.212 19.73 19.73 0 0 1-4.32-6.318C.504 25.453 0 22.825 0 19.98Zm5.4.055c0 2.052.378 3.978 1.134 5.778.756 1.764 1.8 3.33 3.132 4.698a14.99 14.99 0 0 0 4.644 3.24c1.764.756 3.673 1.134 5.725 1.134 2.016 0 3.906-.378 5.67-1.134a14.35 14.35 0 0 0 4.59-3.24 15.853 15.853 0 0 0 3.078-4.698c.756-1.8 1.134-3.744 1.134-5.832 0-2.052-.378-3.979-1.134-5.779-.756-1.836-1.8-3.438-3.132-4.806a14.256 14.256 0 0 0-4.644-3.186c-1.764-.792-3.654-1.188-5.67-1.188-2.052 0-3.96.396-5.724 1.188a14.988 14.988 0 0 0-4.645 3.24 14.284 14.284 0 0 0-3.078 4.807c-.72 1.8-1.08 3.726-1.08 5.778Z"/>
  <path fill="#B8860B" d="M54.12 33.657c0 1.633-.707 3.213-2.174 3.93l-.094.045c-.972.432-2.052.828-3.24 1.188a27.95 27.95 0 0 1-3.618.864 19.934 19.934 0 0 1-3.456.324c-3.132 0-5.959-.486-8.479-1.458-2.484-.972-4.626-2.322-6.426-4.05-1.764-1.728-3.132-3.762-4.104-6.102-.936-2.34-1.404-4.878-1.404-7.614 0-3.24.522-6.138 1.566-8.694 1.08-2.593 2.538-4.77 4.374-6.535a18.525 18.525 0 0 1 6.426-4.05C35.903.57 38.46.101 41.16.101c2.268 0 4.374.27 6.318.81 1.156.321 2.23.693 3.22 1.117 1.127.48 1.59 1.798 1.164 2.947-.534 1.44-2.28 2.092-3.736 1.606a23.794 23.794 0 0 0-3.24-.864c-1.116-.252-2.16-.378-3.132-.378-2.304 0-4.392.36-6.265 1.08-1.872.684-3.474 1.692-4.806 3.024-1.332 1.296-2.358 2.88-3.078 4.752-.72 1.837-1.08 3.907-1.08 6.21 0 2.125.36 4.069 1.08 5.833a13.383 13.383 0 0 0 3.078 4.59c1.332 1.26 2.916 2.25 4.752 2.97 1.872.684 3.925 1.026 6.157 1.026 1.332 0 2.646-.126 3.942-.378 2.142-.476 3.348-2.557 3.348-4.752V26.6c0-.714.291-1.396.806-1.89 1.665-1.597 4.432-.417 4.432 1.89v7.058Z"/>
</svg>
