<svg width="42" height="38" viewBox="0 0 42 38" fill="none" xmlns="http://www.w3.org/2000/svg">
<path fill-rule="evenodd" clip-rule="evenodd" d="M21.5533 31.5208C21.6939 31.3281 22.1835 30.7969 22.3033 30.6302C22.7199 30.0469 23.0481 29.401 23.3345 28.7448C24.1939 26.75 24.4856 24.5312 24.3189 22.375C23.9335 17.4739 20.2616 14.3125 15.9856 13.3489C11.7252 12.3854 6.8762 13.6094 4.1262 17.4219C2.27203 19.9948 1.95953 23.5156 2.85536 26.7292C3.7512 29.9375 5.84495 32.8229 8.75641 34.1354C12.2304 35.6979 16.2929 34.9427 19.5324 33.3229C19.7095 33.2344 19.7772 33.0208 19.6939 32.8489C19.6054 32.6719 19.3918 32.5989 19.2147 32.6875C16.1627 34.2187 12.3241 34.9687 9.04807 33.4896C6.31891 32.2604 4.37099 29.5417 3.53766 26.5364C2.69912 23.5364 2.96474 20.2396 4.69912 17.8385C7.28245 14.2604 11.8345 13.1354 15.8293 14.0364C19.8137 14.9375 23.2512 17.8646 23.6106 22.4323C23.772 24.4739 23.5012 26.5729 22.6835 28.4635C22.4179 29.0729 22.1158 29.6771 21.7252 30.2187C21.6106 30.3802 21.1262 30.9114 20.9856 31.0989C20.8658 31.2552 20.9022 31.4792 21.0585 31.5937C21.2147 31.7135 21.4335 31.6771 21.5533 31.5208Z" fill="#9E7C4C"/>
<path fill-rule="evenodd" clip-rule="evenodd" d="M23.0793 32.8125C23.0064 32.8437 22.9439 32.8958 22.9022 32.974C22.8189 33.1302 22.8606 33.2448 22.8762 33.2865C22.9335 33.4323 23.0429 33.5312 23.2356 33.5156C23.272 33.5156 23.3606 33.5052 23.4647 33.4219C23.6158 33.3021 24.1575 32.7292 24.272 32.6042C24.5793 32.2812 24.8658 31.9583 25.1002 31.5781C26.0064 30.125 26.272 29.3281 26.496 27.9948C27.1522 24.099 26.9543 20.6302 25.2825 17.1771C22.1418 10.6979 13.5377 8.81249 7.10537 11.849C5.79808 12.4687 4.63662 13.5 3.56891 14.4687C-0.0300512 17.7292 -0.733176 24.1458 0.683491 28.5312C1.01682 29.5677 1.40224 30.4792 1.90745 31.4167C2.69912 32.8958 3.68349 34.276 5.08453 35.2552C6.92828 36.5469 9.02724 37.1042 11.022 37.4635C14.1418 38.026 16.5168 37.6771 19.5116 36.2917C20.2147 35.9687 20.9231 35.5937 21.6783 34.9635C21.8293 34.8385 21.8502 34.6146 21.7252 34.4635C21.595 34.3125 21.3762 34.2917 21.2252 34.4219C20.5272 35.0052 19.8658 35.349 19.2147 35.651C16.371 36.9687 14.1106 37.3021 11.1522 36.7656C9.2512 36.4271 7.24599 35.901 5.49078 34.6771C4.17828 33.7604 3.27203 32.4635 2.53245 31.0833C2.04807 30.1823 1.67828 29.3073 1.35537 28.3177C0.0168244 24.1615 0.636615 18.0781 4.04287 14.9896C5.0637 14.0729 6.15745 13.0781 7.40745 12.4896C13.5012 9.61458 21.6679 11.349 24.647 17.4844C26.2512 20.8021 26.4283 24.1354 25.7981 27.875C25.5897 29.1146 25.3397 29.8542 24.5012 31.2031C24.2929 31.5417 24.0325 31.8281 23.7616 32.1146C23.6731 32.2083 23.2304 32.6615 23.0793 32.8125Z" fill="#9E7C4C"/>
<path fill-rule="evenodd" clip-rule="evenodd" d="M23.4491 15.1667C23.5689 15.1354 24.1783 14.9375 24.3241 14.9115C24.5949 14.8698 24.8605 14.8229 25.1314 14.7969C25.9387 14.7187 26.7512 14.6719 27.5637 14.7083C30.1105 14.8177 32.7095 15.5625 34.8501 16.9687C38.2355 19.1875 38.4491 23.6979 37.4178 27.2031C37.0064 28.599 36.6574 29.6927 35.3137 30.9687C31.996 34.125 25.8762 35.0833 22.1001 32.1823C19.8033 30.4219 18.0949 26.3333 18.371 23.4948C18.5168 22 18.8866 20.2396 19.5585 18.9844C20.0168 18.1406 20.3918 17.151 21.0012 16.4375C21.1314 16.2917 21.1158 16.0677 20.9647 15.9375C20.8189 15.8125 20.5949 15.8281 20.4699 15.974C19.8241 16.724 19.4178 17.7604 18.9387 18.6458C18.2199 19.9792 17.8189 21.8385 17.6678 23.4271C17.371 26.474 19.2095 30.8542 21.6678 32.7448C25.7095 35.8437 32.2512 34.8594 35.8033 31.4792C37.2564 30.0937 37.6522 28.9219 38.1001 27.401C39.2095 23.6198 38.8918 18.7708 35.2408 16.375C32.9908 14.901 30.2668 14.1146 27.5949 14C26.7512 13.9635 25.9022 14.0104 25.0637 14.0937C24.7772 14.1198 24.496 14.1667 24.2095 14.2187C24.0585 14.2396 23.4178 14.4479 23.2876 14.474C23.0949 14.5208 22.9803 14.7135 23.022 14.901C23.0689 15.0885 23.2564 15.2083 23.4491 15.1667Z" fill="#9E7C4C"/>
<path fill-rule="evenodd" clip-rule="evenodd" d="M19.3606 15.3854C19.4856 15.2865 19.5272 15.1094 19.4491 14.9583C19.4022 14.8594 19.3189 14.7969 19.2199 14.7708C19.1887 14.7656 18.996 14.724 18.8345 14.9115C18.6679 15.1094 17.8762 16.2344 17.8345 16.3073C17.3397 17.1875 16.8814 18.0625 16.4856 18.9896C15.1887 22.026 14.9699 25.099 16.1887 28.1719C18.2252 33.3281 22.9179 37.1927 28.9231 36.9323C30.871 36.849 32.4543 36.5469 34.1262 35.7083C42.1627 31.6823 43.6314 21.1875 37.4283 14.9844C34.2199 11.7813 30.4231 11.2448 26.1887 11.8073C25.496 11.901 24.3814 12.0833 23.4022 12.4115C22.7095 12.6458 22.0897 12.9531 21.7043 13.3385C21.5637 13.4792 21.5637 13.7031 21.7043 13.8385C21.8397 13.9792 22.0637 13.9792 22.2043 13.8385C22.522 13.5208 23.0533 13.276 23.6314 13.0833C24.5585 12.7708 25.621 12.5938 26.2824 12.5052C30.2877 11.974 33.8918 12.4531 36.9283 15.4844C42.7929 21.349 41.4074 31.2656 33.8137 35.0729C32.2304 35.8698 30.7304 36.1458 28.8918 36.224C23.2043 36.4688 18.7772 32.7917 16.8449 27.9115C15.6991 25.0208 15.9179 22.1302 17.1366 19.2656C17.522 18.3646 17.9699 17.5104 18.4543 16.6563C18.4908 16.5885 19.2772 15.5104 19.3606 15.3854ZM19.0116 15.4479V15.4531L19.0064 15.4479H19.0116ZM19.0064 15.4479C18.9283 15.4167 18.8606 15.3594 18.8189 15.276C18.8606 15.3646 18.9231 15.4167 19.0064 15.4479Z" fill="#9E7C4C"/>
<path fill-rule="evenodd" clip-rule="evenodd" d="M15.7876 6.61979C15.772 6.58333 15.7147 6.46874 15.6731 6.40104C15.5689 6.26041 15.4283 6.16145 15.246 6.15104C14.7304 6.11458 13.9856 6.06249 13.4856 6.05208C12.6158 6.03645 11.621 6.09374 10.7147 6.09374C10.6106 6.09374 10.5168 6.14062 10.4491 6.21874C10.1731 6.53124 9.84494 7.03125 9.61577 7.3802C9.39181 7.73958 9.2616 7.91666 9.04285 8.29687C8.98556 8.40104 8.83973 8.61458 8.81369 8.80208C8.79285 8.96874 8.83452 9.12499 8.96473 9.2552C9.26681 9.55729 9.56369 9.85937 9.8241 10.0885C10.0116 10.2552 10.2304 10.5521 10.4699 10.776C10.6887 10.9792 10.9179 11.125 11.147 11.1667C11.8814 11.3021 12.996 11.2083 13.7512 11.2083C14.1366 11.2083 14.7147 11.2396 15.0793 11.1615C15.272 11.125 15.4543 11.0156 15.6262 10.849C15.8137 10.6719 15.996 10.4167 16.2251 10.1667C16.4439 9.92187 16.7512 9.55208 17.2147 8.94791C17.2981 8.83333 17.3397 8.66145 17.2564 8.44791C17.1418 8.17187 16.6835 7.70312 16.5845 7.57291C16.3345 7.24479 16.0637 6.92708 15.7876 6.61979ZM15.1106 6.84895C15.147 6.91666 15.2095 7.03645 15.2408 7.07291C15.5116 7.36979 15.7772 7.68229 16.022 7.99999C16.0897 8.08854 16.4179 8.49479 16.5481 8.65104C16.1574 9.15624 15.8918 9.47916 15.6991 9.68749C15.5168 9.89583 15.3606 10.099 15.2147 10.2604C15.121 10.3594 15.0429 10.4479 14.9439 10.4687C14.6158 10.5365 14.0949 10.5052 13.7512 10.5052C13.0324 10.5052 11.9751 10.599 11.272 10.474C11.1262 10.4427 10.9908 10.2969 10.8501 10.151C10.647 9.9427 10.4543 9.70833 10.2929 9.56249C10.0689 9.35937 9.80848 9.10416 9.54806 8.83854L9.65744 8.65104C9.87098 8.28645 9.99077 8.10937 10.2147 7.76562C10.397 7.47916 10.6522 7.08853 10.8814 6.80208C11.7356 6.79687 12.6574 6.74479 13.4699 6.76041C13.9335 6.77083 14.6106 6.8177 15.1106 6.84895Z" fill="#9E7C4C"/>
<path fill-rule="evenodd" clip-rule="evenodd" d="M11.0012 6.31248C10.9335 6.19269 10.7981 6.11977 10.6522 6.1354C10.4595 6.16144 10.3241 6.34373 10.3449 6.53644C10.3554 6.58852 10.3814 6.67707 10.4595 6.76561C10.522 6.84373 10.6835 6.96352 10.7199 6.99998C10.9752 7.25519 11.2252 7.52082 11.4752 7.79165C12.4022 8.80207 13.6418 9.99998 14.6158 10.9739C14.7512 11.1094 14.9752 11.1094 15.1158 10.9739C15.2512 10.8333 15.2512 10.6094 15.1158 10.4739C14.1522 9.50519 12.9179 8.31769 11.996 7.31248C11.7408 7.03644 11.4856 6.7604 11.2199 6.49998C11.1939 6.47394 11.0481 6.34894 11.0012 6.31248Z" fill="#9E7C4C"/>
<path fill-rule="evenodd" clip-rule="evenodd" d="M11.3189 10.4531C11.1887 10.5573 11.1522 10.75 11.2356 10.901C11.2564 10.9323 11.5116 11.2239 11.7824 10.9844C11.8137 10.9583 11.9543 10.8125 11.9595 10.8021C12.0533 10.6979 12.1418 10.5885 12.2304 10.4792C12.4856 10.1667 12.7251 9.83853 12.996 9.53645C13.8397 8.57291 14.6262 7.74999 15.5116 6.82291C15.647 6.68228 15.6418 6.45832 15.496 6.32291C15.3554 6.18749 15.1314 6.1927 14.996 6.33332C14.1106 7.27082 13.3137 8.09895 12.4647 9.0677C12.1887 9.37499 11.9439 9.71353 11.6835 10.0312C11.6001 10.1302 11.522 10.2344 11.4335 10.3281L11.3189 10.4531ZM11.8293 10.5156L11.8345 10.526V10.5208L11.8293 10.5156ZM11.6783 10.3958C11.6262 10.375 11.5585 10.3594 11.4699 10.375C11.5376 10.3594 11.6106 10.3698 11.6783 10.3958Z" fill="#9E7C4C"/>
<path fill-rule="evenodd" clip-rule="evenodd" d="M9.39703 9.16145C9.48036 9.15103 9.76682 9.10416 9.83973 9.09374C10.2824 9.02603 10.7304 8.96874 11.1835 8.94791C13.0533 8.85416 14.9804 8.91666 16.8449 8.91666C17.0429 8.91666 17.1991 8.76041 17.1991 8.56249C17.1991 8.36978 17.0429 8.20832 16.8449 8.20832C14.9647 8.20832 13.0324 8.15103 11.147 8.23957C10.6731 8.26041 10.2043 8.32291 9.73557 8.39062C9.66265 8.40103 9.38661 8.45312 9.30328 8.46353C9.11057 8.48958 8.97515 8.66666 9.00119 8.85937C9.02723 9.05207 9.20432 9.1927 9.39703 9.16145Z" fill="#9E7C4C"/>
<path fill-rule="evenodd" clip-rule="evenodd" d="M17.5532 5.52602C17.6991 5.3906 18.121 5.0729 18.2355 4.98435C18.923 4.4531 19.621 3.93227 20.3553 3.44269C20.5168 3.33331 20.5637 3.11456 20.4543 2.9531C20.3449 2.79165 20.1262 2.74477 19.9595 2.85415C19.2147 3.35415 18.5012 3.8854 17.8032 4.42706C17.6835 4.52081 17.2303 4.86456 17.0793 5.00519C16.9335 5.1354 16.923 5.35936 17.0585 5.50519C17.1887 5.64581 17.4126 5.65623 17.5532 5.52602Z" fill="#9E7C4C"/>
<mask id="mask0_2_202" style="mask-type:luminance" maskUnits="userSpaceOnUse" x="12" y="0" width="3" height="4">
<path d="M12.8033 0H14.1366V3.99479H12.8033V0Z" fill="white"/>
</mask>
<g mask="url(#mask0_2_202)">
<path fill-rule="evenodd" clip-rule="evenodd" d="M13.9127 3.63019C13.9856 2.53644 14.0429 1.59894 14.1054 0.374986C14.1158 0.17707 13.9647 0.0156112 13.7668 0.00519388C13.5741 -0.00522212 13.4074 0.140611 13.397 0.338527C13.3345 1.56249 13.2824 2.49478 13.2043 3.58332C13.1939 3.77603 13.3397 3.9479 13.5324 3.95832C13.7304 3.97394 13.897 3.8229 13.9127 3.63019Z" fill="#9E7C4C"/>
</g>
<path fill-rule="evenodd" clip-rule="evenodd" d="M6.31368 3.0625C6.4543 3.16145 6.52722 3.20833 6.63138 3.28125C6.81888 3.42187 6.99076 3.58333 7.16784 3.73958C7.74597 4.25 8.28243 4.79166 8.80326 5.36458C8.93867 5.51041 9.16263 5.52083 9.30326 5.39062C9.44909 5.2552 9.45951 5.03645 9.3293 4.88541C8.78763 4.29687 8.23034 3.73437 7.63659 3.20833C7.44388 3.03645 7.25118 2.86458 7.04805 2.70833C6.93867 2.63541 6.86576 2.58333 6.71993 2.48437C6.56367 2.36979 6.33972 2.41145 6.23034 2.5677C6.11576 2.72916 6.15743 2.95312 6.31368 3.0625Z" fill="#9E7C4C"/>
<path fill-rule="evenodd" clip-rule="evenodd" d="M3.32929 8.5677C3.61054 8.55728 4.21471 8.55208 4.46471 8.56249C5.46992 8.59895 6.43867 8.62499 7.45429 8.68749C7.65221 8.69791 7.81888 8.54687 7.82929 8.35416C7.83971 8.15624 7.69388 7.98958 7.49596 7.97916C6.47513 7.91666 5.50117 7.89582 4.49075 7.85416C4.23554 7.84374 3.60533 7.85416 3.31367 7.85937C3.11575 7.86457 2.96471 8.02603 2.96992 8.21874C2.97513 8.41666 3.13659 8.57291 3.32929 8.5677Z" fill="#9E7C4C"/>
<path fill-rule="evenodd" clip-rule="evenodd" d="M18.7668 9.61979C20.2564 9.14583 21.7512 8.69271 23.2147 8.23958C23.4022 8.18229 23.5064 7.97916 23.4491 7.79687C23.3918 7.60937 23.1939 7.50521 23.0116 7.5625C21.5376 8.01562 20.048 8.47396 18.5532 8.94791C18.3657 9.0052 18.2616 9.20312 18.3241 9.39062C18.3814 9.57812 18.5793 9.67708 18.7668 9.61979Z" fill="#9E7C4C"/>
</svg>
