<svg xmlns="http://www.w3.org/2000/svg" width="293" height="217" fill="none" viewBox="0 0 293 217">
  <path fill="#B8860B" d="M0 108.04c0-14.6 2.725-28.324 8.176-41.172 5.645-13.043 13.432-24.528 23.36-34.456C41.464 22.289 52.852 14.405 65.7 8.76 78.743 2.92 92.759 0 107.748 0c14.795 0 28.616 2.92 41.464 8.76 13.043 5.645 24.528 13.53 34.456 23.652 10.123 9.928 18.007 21.413 23.652 34.456 5.645 12.848 8.468 26.572 8.468 41.172 0 14.989-2.823 29.005-8.468 42.048-5.645 13.043-13.529 24.528-23.652 34.456-9.928 9.733-21.413 17.423-34.456 23.068-12.848 5.451-26.669 8.176-41.464 8.176-14.99 0-29.005-2.725-42.048-8.176-12.848-5.451-24.236-13.043-34.164-22.776s-17.715-21.121-23.36-34.164C2.726 137.629 0 123.419 0 108.04Zm29.2.292c0 11.096 2.044 21.511 6.132 31.244 4.088 9.539 9.733 18.007 16.936 25.404 7.203 7.397 15.573 13.237 25.112 17.52 9.539 4.088 19.856 6.132 30.952 6.132 10.901 0 21.121-2.044 30.66-6.132 9.539-4.283 17.812-10.123 24.82-17.52 7.008-7.397 12.556-15.865 16.644-25.404 4.088-9.733 6.132-20.245 6.132-31.536 0-11.096-2.044-21.51-6.132-31.244-4.088-9.928-9.733-18.59-16.936-25.988-7.203-7.397-15.573-13.14-25.112-17.228-9.539-4.283-19.759-6.424-30.66-6.424-11.096 0-21.413 2.141-30.952 6.424-9.539 4.283-17.91 10.123-25.112 17.52-7.203 7.397-12.75 16.06-16.644 25.988-3.893 9.733-5.84 20.148-5.84 31.244Z"/>
  <path fill="#B8860B" d="M292.64 190.873c0 3.19-1.354 6.276-4.018 8.029-2.323 1.529-5.071 3.057-8.246 4.586-5.256 2.336-11.096 4.477-17.52 6.424-6.229 1.947-12.751 3.504-19.564 4.672-6.619 1.168-12.848 1.752-18.688 1.752-16.936 0-32.217-2.628-45.844-7.884-13.432-5.256-25.015-12.556-34.748-21.9-9.539-9.344-16.936-20.343-22.192-32.996-5.061-12.653-7.592-26.377-7.592-41.172 0-17.52 2.823-33.19 8.468-47.012 5.84-14.016 13.724-25.793 23.652-35.332 10.123-9.733 21.705-17.033 34.748-21.9C194.139 3.079 207.96.548 222.56.548c12.264 0 23.652 1.46 34.164 4.38 7.009 1.947 13.455 4.24 19.339 6.88 4.94 2.215 7.014 7.956 5.132 13.033l-1.759 4.744c-2.395 6.457-10.154 9.24-16.631 6.897-.837-.302-1.696-.6-2.577-.894a128.648 128.648 0 0 0-17.52-4.672c-6.035-1.363-11.68-2.044-16.936-2.044-12.459 0-23.749 1.947-33.872 5.84-10.123 3.699-18.785 9.15-25.988 16.352-7.203 7.008-12.751 15.573-16.644 25.696-3.893 9.928-5.84 21.121-5.84 33.58 0 11.485 1.947 21.997 5.84 31.536 3.893 9.539 9.441 17.812 16.644 24.82 7.203 6.813 15.768 12.167 25.696 16.06 10.123 3.699 21.219 5.548 33.288 5.548 7.203 0 14.308-.681 21.316-2.044 4.44-.987 8.488-2.207 12.147-3.663 3.76-1.496 5.957-5.285 5.957-9.331v-30.785c0-2.998 1.223-5.866 3.387-7.941l6.324-6.063c6.994-6.705 18.613-1.748 18.613 7.94v54.456Z"/>
</svg>
