<svg xmlns="http://www.w3.org/2000/svg" width="260" height="92" fill="none" viewBox="0 0 260 92">
  <path fill="#9E7C4C" fill-rule="evenodd" d="M131.179 31.52c.14-.192.63-.723.75-.89.416-.583.744-1.229 1.031-1.885.859-1.995 1.151-4.214.984-6.37-.385-4.901-4.057-8.063-8.333-9.026-4.261-.964-9.109.26-11.859 4.073-1.855 2.573-2.167 6.094-1.271 9.307.896 3.209 2.989 6.094 5.901 7.406 3.474 1.563 7.536.808 10.776-.812a.356.356 0 0 0 .161-.474.357.357 0 0 0-.479-.161c-3.052 1.53-6.891 2.28-10.167.802-2.729-1.23-4.677-3.948-5.51-6.954-.839-3-.573-6.296 1.161-8.698 2.584-3.578 7.136-4.703 11.131-3.802 3.984.902 7.422 3.829 7.781 8.396.161 2.042-.109 4.14-.927 6.032-.266.609-.568 1.213-.959 1.755-.114.161-.598.692-.739.88a.351.351 0 0 0 .073.495c.156.12.375.083.495-.073Z" clip-rule="evenodd"/>
  <path fill="#9E7C4C" fill-rule="evenodd" d="M132.705 32.813a.35.35 0 0 0-.177.161.352.352 0 0 0-.026.313c.057.145.166.244.359.229.036 0 .125-.01.229-.094.151-.12.693-.693.807-.818.308-.323.594-.646.828-1.026.907-1.453 1.172-2.25 1.396-3.583.657-3.896.459-7.365-1.213-10.818-3.141-6.48-11.745-8.365-18.177-5.328-1.308.62-2.469 1.651-3.537 2.62-3.599 3.26-4.302 9.677-2.885 14.062a16.66 16.66 0 0 0 1.224 2.886c.791 1.479 1.776 2.859 3.177 3.838 1.844 1.292 3.943 1.85 5.937 2.209 3.12.562 5.495.213 8.49-1.172.703-.323 1.411-.698 2.167-1.328a.355.355 0 0 0 .046-.5.35.35 0 0 0-.5-.042c-.697.583-1.359.927-2.01 1.229-2.844 1.318-5.104 1.651-8.062 1.115-1.901-.339-3.907-.865-5.662-2.089-1.312-.917-2.219-2.213-2.958-3.594a16.421 16.421 0 0 1-1.177-2.765c-1.339-4.157-.719-10.24 2.687-13.328 1.021-.917 2.115-1.912 3.365-2.5 6.094-2.875 14.26-1.141 17.239 4.994 1.605 3.318 1.782 6.651 1.151 10.391-.208 1.24-.458 1.98-1.296 3.328-.209.339-.469.625-.74.912-.089.093-.531.546-.682.697Z" clip-rule="evenodd"/>
  <path fill="#9E7C4C" fill-rule="evenodd" d="M133.074 15.167c.12-.032.73-.23.875-.255.271-.042.537-.09.808-.115a17.227 17.227 0 0 1 2.432-.089c2.547.11 5.146.854 7.286 2.26 3.386 2.22 3.599 6.73 2.568 10.235-.411 1.396-.76 2.49-2.104 3.766-3.318 3.156-9.438 4.114-13.214 1.213-2.296-1.76-4.005-5.849-3.729-8.687.146-1.495.516-3.255 1.188-4.51.458-.844.833-1.834 1.442-2.547a.353.353 0 0 0-.531-.463c-.646.749-1.052 1.785-1.531 2.67-.719 1.334-1.12 3.194-1.271 4.782-.297 3.047 1.542 7.427 4 9.318 4.042 3.099 10.583 2.114 14.136-1.266 1.453-1.385 1.849-2.557 2.296-4.078 1.11-3.781.792-8.63-2.859-11.026-2.25-1.474-4.974-2.26-7.646-2.375a17.68 17.68 0 0 0-2.531.094 9.694 9.694 0 0 0-.854.125c-.151.02-.792.229-.922.255a.36.36 0 0 0-.266.427.362.362 0 0 0 .427.266Z" clip-rule="evenodd"/>
  <path fill="#9E7C4C" fill-rule="evenodd" d="M128.986 15.385a.34.34 0 0 0 .088-.427.342.342 0 0 0-.229-.187c-.031-.005-.224-.047-.385.14-.167.198-.958 1.323-1 1.396-.495.88-.953 1.756-1.349 2.683-1.297 3.036-1.516 6.109-.297 9.182 2.036 5.156 6.729 9.02 12.734 8.76 1.948-.083 3.532-.385 5.204-1.224 8.036-4.026 9.505-14.52 3.302-20.724-3.209-3.203-7.006-3.74-11.24-3.177-.693.094-1.807.276-2.786.604-.693.235-1.313.542-1.698.928a.348.348 0 0 0 0 .5.35.35 0 0 0 .5 0c.317-.318.849-.563 1.427-.756.927-.312 1.989-.49 2.651-.578 4.005-.531 7.609-.052 10.646 2.98 5.864 5.864 4.479 15.78-3.115 19.588-1.583.797-3.083 1.073-4.922 1.151-5.687.245-10.114-3.432-12.047-8.312-1.146-2.891-.927-5.782.292-8.646.385-.901.833-1.756 1.318-2.61.036-.067.823-1.146.906-1.27Zm-.349.063v.005l-.005-.005h.005Zm-.005 0a.356.356 0 0 1-.188-.172.32.32 0 0 0 .188.172Zm-3.219-8.828a2.368 2.368 0 0 0-.115-.219.564.564 0 0 0-.427-.25 41.16 41.16 0 0 0-1.76-.099c-.87-.016-1.865.042-2.771.042a.35.35 0 0 0-.266.125c-.276.312-.604.812-.833 1.161-.224.36-.354.537-.573.917-.057.104-.203.318-.229.505a.52.52 0 0 0 .151.453c.302.302.599.604.859.833.188.167.407.464.646.688.219.203.448.349.677.39.735.136 1.849.042 2.604.042.386 0 .964.032 1.329-.046.192-.037.375-.146.546-.313.188-.177.37-.432.599-.682.219-.245.526-.615.99-1.22.083-.114.125-.286.042-.5-.115-.275-.573-.744-.672-.874-.25-.328-.521-.646-.797-.953Zm-.677.229c.036.068.099.187.13.224.271.297.537.61.781.927.068.089.396.495.526.651-.39.505-.656.828-.849 1.036-.182.209-.338.412-.484.573-.094.1-.172.188-.271.209-.328.068-.849.036-1.193.036-.718 0-1.776.094-2.479-.031-.146-.031-.281-.177-.422-.323-.203-.208-.395-.443-.557-.589a18.85 18.85 0 0 1-.745-.723l.11-.188c.213-.365.333-.542.557-.885.182-.287.438-.677.667-.964.854-.005 1.776-.057 2.588-.042.464.01 1.141.058 1.641.089Z" clip-rule="evenodd"/>
  <path fill="#9E7C4C" fill-rule="evenodd" d="M120.627 6.313a.357.357 0 0 0-.349-.178.365.365 0 0 0-.308.401.495.495 0 0 0 .115.23c.062.078.224.198.26.234.255.255.505.52.755.792.928 1.01 2.167 2.208 3.141 3.182a.358.358 0 0 0 .5 0 .357.357 0 0 0 0-.5c-.963-.969-2.198-2.156-3.12-3.162-.255-.276-.51-.552-.776-.812a5.344 5.344 0 0 0-.218-.188Z" clip-rule="evenodd"/>
  <path fill="#9E7C4C" fill-rule="evenodd" d="M120.944 10.453a.358.358 0 0 0-.083.448c.021.031.276.323.547.083a2.77 2.77 0 0 0 .177-.182c.094-.104.182-.213.271-.323.255-.312.494-.64.765-.943.844-.963 1.63-1.786 2.516-2.713a.35.35 0 0 0-.016-.5.354.354 0 0 0-.5.01c-.885.938-1.682 1.766-2.531 2.735-.276.307-.521.646-.781.963-.084.1-.162.203-.25.297l-.115.125Zm.511.063.005.01v-.005l-.005-.005Zm-.151-.12c-.053-.021-.12-.037-.209-.021a.363.363 0 0 1 .209.02Z" clip-rule="evenodd"/>
  <path fill="#9E7C4C" fill-rule="evenodd" d="M119.022 9.161c.084-.01.37-.057.443-.067.443-.068.891-.125 1.344-.146 1.87-.094 3.797-.031 5.661-.031a.354.354 0 0 0 0-.708c-1.88 0-3.812-.058-5.698.03-.474.021-.942.084-1.411.152-.073.01-.349.062-.432.073a.351.351 0 0 0-.302.395.348.348 0 0 0 .395.302Zm8.157-3.635c.145-.135.567-.453.682-.542a36.998 36.998 0 0 1 2.12-1.541.354.354 0 1 0-.396-.589 38.17 38.17 0 0 0-2.156 1.573c-.12.094-.573.438-.724.578a.353.353 0 0 0 .474.52Z" clip-rule="evenodd"/>
  <mask id="a" width="2" height="4" x="122" y="0" maskUnits="userSpaceOnUse" style="mask-type:luminance">
    <path fill="#fff" d="M122.429 0h1.333v3.995h-1.333V0Z"/>
  </mask>
  <g mask="url(#a)">
    <path fill="#9E7C4C" fill-rule="evenodd" d="M123.538 3.63c.073-1.094.13-2.031.193-3.255a.352.352 0 0 0-.339-.37.35.35 0 0 0-.37.334 146.783 146.783 0 0 1-.192 3.244.356.356 0 0 0 .708.047Z" clip-rule="evenodd"/>
  </g>
  <path fill="#9E7C4C" fill-rule="evenodd" d="M115.939 3.063c.141.098.214.145.318.218.187.14.359.302.536.459a20.9 20.9 0 0 1 1.636 1.625.354.354 0 0 0 .5.026.361.361 0 0 0 .026-.506 23.385 23.385 0 0 0-1.693-1.677 10.825 10.825 0 0 0-.589-.5c-.109-.073-.182-.125-.328-.224a.35.35 0 0 0-.489.084.356.356 0 0 0 .083.494Zm-2.984 5.505c.281-.01.885-.016 1.135-.006 1.005.037 1.974.063 2.99.125.198.01.364-.14.375-.333a.353.353 0 0 0-.334-.375c-1.021-.062-1.995-.083-3.005-.125-.255-.01-.885 0-1.177.005a.355.355 0 0 0 .016.708Zm15.437 1.052c1.49-.474 2.984-.927 4.448-1.38a.355.355 0 0 0 .234-.443.35.35 0 0 0-.437-.234c-1.474.453-2.964.911-4.458 1.385a.347.347 0 0 0-.23.443.352.352 0 0 0 .443.229Zm23.375 22.75a.277.277 0 0 0-.094.052.346.346 0 0 0-.088.49c.099.135.208.182.297.192a.39.39 0 0 0 .281-.062.774.774 0 0 0 .234-.334c.068-.166.125-.432.203-.552.344-.505.75-.974 1.167-1.427 1.276-1.396 2.74-2.734 4.359-3.719 4.563-2.78 11.547-4.78 16.917-3.963 2.792.427 5.568 1.916 8.151 2.979 2.203.906 4.261 2.104 6.432 3.068 2.881 1.281 5.964 1.994 8.985 2.864 3.312.953 6.922 1.907 10.401 2.115 5.302.323 10.297-1.073 13.495-6.724.984-1.74 1.411-4.344 1.323-6.323-.084-2.02-.86-4.385-2.313-5.838-1.922-1.922-4.859-3.12-7.792-3.277-2.953-.156-5.895.745-7.807 2.995-1.891 2.224-2.495 5.302-1.437 7.552.713 1.526 2.177 2.688 4.526 2.964a.352.352 0 0 0 .395-.307.363.363 0 0 0-.312-.396c-2.052-.24-3.349-1.23-3.969-2.558-.953-2.03-.37-4.796 1.334-6.796 1.77-2.079 4.5-2.891 7.234-2.745 2.755.146 5.521 1.26 7.323 3.068 1.338 1.333 2.036 3.515 2.114 5.37.079 1.859-.312 4.312-1.234 5.942-3.042 5.37-7.797 6.672-12.838 6.365-3.428-.204-6.985-1.151-10.245-2.089-2.99-.86-6.047-1.557-8.896-2.828-2.177-.969-4.245-2.172-6.448-3.078-2.635-1.078-5.469-2.589-8.318-3.021-5.515-.844-12.698 1.198-17.39 4.057-1.677 1.021-3.193 2.401-4.516 3.844-.432.48-.865.974-1.229 1.516a1.928 1.928 0 0 0-.193.458l-.052.146Zm.385.12.011.015c-.005-.005-.005-.01-.011-.015Zm-.005-.01.005.004h-.005v-.005Z" clip-rule="evenodd"/>
  <path fill="#9E7C4C" fill-rule="evenodd" d="M163.809 24.083c-.005.016-.005.032-.005.047 0 .13.067.334.203.542a6 6 0 0 0 .765.927c1.235 1.114 2.646 2.161 4.474 2.344.521.047 1.297-.01 1.854-.282.448-.218.766-.567.808-1.062.067-.797-.604-1.474-1.313-1.865-1.265-.703-2.724-1.036-4.208-1.156-.604-.052-1.208 0-1.807.1-.047.01-.485.077-.579.13a.34.34 0 0 0-.192.275Zm.849.297.036-.005c.542-.088 1.089-.14 1.636-.094 1.38.115 2.739.417 3.927 1.073.255.14.515.328.703.552.156.183.26.396.245.636-.021.229-.198.375-.417.484-.443.214-1.057.25-1.474.208-1.667-.161-2.943-1.14-4.068-2.161a5.402 5.402 0 0 1-.588-.693Zm-4.485 1.021.047.016c.125.02.339-.01.568-.105a5.681 5.681 0 0 0 1.047-.588c1.323-1.01 2.609-2.208 3.114-3.974.141-.505.224-1.281.058-1.875-.136-.484-.422-.854-.896-.984-.776-.214-1.557.328-2.073.948-.922 1.125-1.51 2.494-1.896 3.932-.161.588-.219 1.192-.229 1.797 0 .047-.01.494.026.593a.334.334 0 0 0 .234.24Zm.448-.786v-.032c.011-.546.058-1.093.203-1.63.36-1.333.901-2.62 1.761-3.666a2.59 2.59 0 0 1 .672-.594c.208-.12.437-.188.666-.12.224.062.339.26.401.49.131.474.058 1.088-.057 1.494-.458 1.61-1.656 2.683-2.859 3.605a4.532 4.532 0 0 1-.745.432.1.1 0 0 1-.042.02Zm14.412-1.625c-.016.01-.021.026-.032.041-.067.115-.104.323-.093.584.031.422.172 1.01.239 1.203.563 1.614 1.323 3.26 2.901 4.375.443.317 1.177.672 1.813.734.521.047.984-.094 1.265-.5.204-.286.276-.62.245-.969-.036-.453-.25-.932-.5-1.338-.802-1.276-1.963-2.328-3.25-3.214-.531-.364-1.104-.635-1.698-.864-.041-.016-.474-.188-.583-.193a.352.352 0 0 0-.307.14Zm.593.698.042.015c.542.209 1.068.453 1.552.787 1.203.828 2.297 1.812 3.052 3.01.167.26.308.557.37.854.047.24.042.474-.094.667-.135.192-.369.224-.619.198-.521-.047-1.11-.344-1.474-.604-1.448-1.021-2.12-2.547-2.636-4.032a4.869 4.869 0 0 1-.187-.859c0-.01-.006-.026-.006-.037Zm-4.786-1.23c.005.016.021.032.031.042.094.094.287.198.542.26a6.167 6.167 0 0 0 1.266.162c1.781-.021 3.645-.219 5.218-1.37.448-.328 1.016-.922 1.261-1.515.198-.485.198-.97-.125-1.37-.229-.287-.542-.448-.896-.516-.443-.094-.964-.036-1.427.026-1.453.193-2.865.755-4.24 1.938-.484.416-.916 1.01-1.312 1.5-.032.036-.328.4-.365.505a.349.349 0 0 0 .047.338Zm.839-.359.026-.037c.375-.458.776-1.02 1.229-1.411 1.255-1.083 2.541-1.599 3.87-1.776.328-.042.687-.088 1.02-.057.256.02.495.093.657.286.151.198.114.433.02.667-.197.474-.661.942-1.026 1.208-1.442 1.058-3.166 1.214-4.807 1.235-.156 0-.573-.032-.922-.1l-.067-.015Zm10.072 2.771a.228.228 0 0 0 .027.047c.072.109.25.24.489.343a6.2 6.2 0 0 0 1.229.355c1.755.26 3.63.359 5.365-.526.495-.256 1.151-.75 1.484-1.297.276-.448.349-.927.094-1.375-.182-.318-.464-.526-.802-.651-.427-.157-.948-.188-1.412-.198-1.468-.037-2.953.291-4.494 1.244-.542.334-1.063.855-1.532 1.276-.036.032-.385.34-.437.438a.351.351 0 0 0-.011.344Zm.886-.224.031-.031c.438-.396.927-.886 1.432-1.198 1.412-.875 2.766-1.177 4.105-1.146.333.01.698.02 1.02.104.245.068.474.172.599.39.12.214.047.443-.083.657-.266.443-.802.833-1.203 1.036-1.594.818-3.323.698-4.943.459a5.313 5.313 0 0 1-.89-.245c-.026-.01-.047-.016-.068-.026Zm3.989 2.953c-.015.01-.026.026-.036.036-.078.11-.141.318-.161.578a6.264 6.264 0 0 0 .067 1.277c.334 1.75.854 3.552 2.266 4.895.401.386 1.083.839 1.713.974.511.115.99.026 1.329-.364.239-.276.343-.61.349-.974.01-.448-.136-.953-.277-1.396-.447-1.396-1.25-2.688-2.656-3.833-.495-.401-1.156-.724-1.708-1.026-.037-.026-.448-.256-.557-.271a.365.365 0 0 0-.329.104Zm.506.76.041.026c.516.282 1.136.578 1.599.953 1.287 1.047 2.021 2.224 2.433 3.5.099.318.208.667.234.995.021.26 0 .506-.167.698-.166.183-.401.193-.651.14-.505-.108-1.047-.489-1.37-.796-1.296-1.24-1.75-2.912-2.062-4.516a6.338 6.338 0 0 1-.063-.927c0-.02.006-.047.006-.073Zm3.911.823a.55.55 0 0 0 .031.052c.063.104.235.23.474.318.37.136.938.235 1.136.255 1.635.136 3.39.136 5.13-.724.49-.244 1.151-.703 1.526-1.192.318-.422.427-.87.224-1.266-.146-.292-.406-.48-.745-.578-.385-.12-.88-.12-1.323-.11-1.38.042-2.812.401-4.375 1.308-.547.317-1.099.797-1.583 1.187-.037.026-.396.308-.453.396a.352.352 0 0 0-.042.354Zm.969-.224c.453-.364.958-.807 1.463-1.104 1.443-.833 2.766-1.172 4.042-1.208.313-.01.656-.016.948.036.203.042.385.1.469.26.083.167-.026.345-.156.521-.313.407-.87.782-1.282.985-1.609.797-3.239.781-4.755.651a4.733 4.733 0 0 1-.729-.14Zm3.052 1.844a.288.288 0 0 0-.031.042c-.068.088-.125.276-.141.515a6.32 6.32 0 0 0 .047 1.12c.25 1.547.646 3.162 1.74 4.432.312.37.854.823 1.349.99.442.146.859.094 1.156-.26.193-.23.281-.521.291-.85.011-.395-.098-.843-.208-1.244a7.812 7.812 0 0 0-2.052-3.537c-.38-.385-.896-.718-1.328-1.02-.021-.016-.198-.157-.307-.22a.704.704 0 0 0-.151-.067.358.358 0 0 0-.365.1Zm.526.844c.375.26.802.536 1.125.864a7.147 7.147 0 0 1 1.87 3.224c.078.282.161.594.177.886.016.213.005.422-.12.568-.099.114-.239.093-.385.041-.386-.125-.797-.49-1.042-.776-1.005-1.172-1.349-2.661-1.578-4.088a5.346 5.346 0 0 1-.047-.72Zm8.729-9.781a.268.268 0 0 0-.068.01c-.098.031-.25.146-.39.333a5.16 5.16 0 0 0-.511.88c-.572 1.323-1.072 2.787-.937 4.443.047.563.255 1.401.604 1.808.224.265.505.385.813.322.27-.052.494-.229.671-.49.204-.296.344-.702.459-1.072.37-1.162.515-2.443.291-3.964-.072-.536-.27-1.114-.416-1.614-.011-.037-.12-.417-.167-.49a.35.35 0 0 0-.349-.166Zm-.088 1.104c.125.411.265.849.323 1.265.203 1.401.072 2.584-.266 3.651-.083.26-.177.542-.302.776-.078.146-.156.282-.292.308-.036.005-.062-.016-.088-.042a.579.579 0 0 1-.136-.172c-.208-.354-.323-.9-.354-1.286-.125-1.526.354-2.875.88-4.1.032-.072.13-.234.235-.4Zm-.203 10.041a.19.19 0 0 0-.042.053c-.063.088-.11.276-.078.51.036.307.182.75.25.896.531 1.203 1.213 2.448 2.547 3.432.442.323 1.213.73 1.781.776.344.031.635-.068.823-.281.187-.214.239-.485.182-.792-.062-.312-.255-.672-.443-.99-.567-.968-1.395-1.88-2.698-2.718-.453-.297-1.031-.547-1.515-.776-.037-.016-.391-.188-.479-.203a.346.346 0 0 0-.328.093Zm.656.823c.427.193.901.407 1.281.657 1.188.765 1.953 1.599 2.474 2.479.125.213.26.448.328.666.037.115.078.22.011.297-.037.037-.089.042-.146.042a.973.973 0 0 1-.266-.031c-.432-.1-.932-.386-1.24-.615-1.223-.896-1.838-2.047-2.322-3.14a6.585 6.585 0 0 1-.12-.355Zm2.922-.323c.01.016.026.037.041.053.084.072.266.15.511.166a5.19 5.19 0 0 0 1.015-.083c1.417-.307 2.912-.771 4.245-1.948.443-.39 1.037-1.104 1.203-1.677.099-.354.058-.667-.14-.901-.188-.224-.464-.328-.792-.328-.349 0-.776.13-1.151.26-1.167.39-2.328 1.068-3.505 2.24-.412.411-.797.958-1.146 1.411-.026.031-.281.365-.318.453a.345.345 0 0 0 .037.354Zm.932-.494c.307-.407.641-.87.995-1.224 1.088-1.079 2.156-1.709 3.229-2.073.26-.084.547-.183.807-.209.146-.015.287-.036.37.063.036.042.031.104.021.161a.837.837 0 0 1-.089.271c-.192.422-.609.886-.922 1.162-1.234 1.088-2.619 1.505-3.927 1.786-.088.02-.281.047-.484.063Zm.099-19.584c-.021-.01-.042-.015-.057-.02a.352.352 0 0 0-.349.088c-.079.068-.308.453-.334.495-.317.526-.713 1.125-.953 1.703-.687 1.646-.854 3.104-.713 4.463.041.438.109.922.27 1.292.146.313.365.547.667.656.417.146.844-.01 1.219-.38.432-.432.792-1.14.969-1.65.619-1.813.39-3.548.046-5.136a5.538 5.538 0 0 0-.395-1.084c-.115-.224-.261-.375-.37-.427Zm-.177 1c.104.255.229.558.25.662.323 1.474.547 3.073-.026 4.755-.141.427-.438 1.02-.797 1.375-.151.156-.307.281-.479.219-.172-.058-.25-.235-.313-.427-.094-.282-.13-.62-.161-.927-.13-1.256.031-2.6.661-4.12.219-.516.573-1.057.865-1.537Zm-2.584 1.276c-.01-.015-.02-.026-.031-.041-.083-.104-.276-.22-.536-.297a6.443 6.443 0 0 0-1.302-.24c-1.865-.099-3.849-.036-5.662.974-.515.287-1.192.823-1.536 1.38-.287.47-.349.959-.063 1.38.198.297.505.474.87.573.448.115 1 .1 1.49.068 1.552-.088 3.109-.541 4.724-1.599.567-.37 1.109-.922 1.593-1.37.037-.03.401-.359.453-.458a.363.363 0 0 0 0-.37Zm-.916.297-.011.01c-.463.428-.974.948-1.51 1.303-1.495.979-2.938 1.395-4.375 1.484-.354.02-.745.042-1.089-.016-.265-.036-.51-.114-.645-.317-.125-.188-.047-.407.083-.615.281-.463.849-.896 1.276-1.13 1.693-.943 3.542-.984 5.276-.89.172.01.604.067.964.16l.031.011Zm3.692 8.885-.015.053a.354.354 0 0 0 .114.354c.026.02.073.057.136.088.114.058.323.136.349.146.484.198 1.036.459 1.562.573 1.5.328 2.818.203 4.047-.193.391-.125.823-.28 1.146-.505.266-.187.464-.422.552-.718.13-.438-.047-.818-.401-1.115-.406-.333-1.073-.547-1.552-.615-1.646-.229-3.203.318-4.625.953a6.424 6.424 0 0 0-.958.579c-.188.145-.313.296-.355.4Zm.964.032c.245-.162.521-.313.635-.365 1.308-.583 2.73-1.11 4.24-.896.37.052.885.204 1.198.459.125.099.219.218.177.37-.057.187-.219.307-.411.416-.25.14-.553.24-.829.328-1.114.365-2.312.474-3.677.177-.448-.099-.911-.312-1.333-.49Zm4.568 8.75c-.005.026 0 .047 0 .073.021.104.114.27.297.432.25.224.672.49.828.573 1.281.667 2.713 1.276 4.448 1.297.583.005 1.474-.115 1.948-.406.307-.188.468-.448.458-.75-.01-.276-.162-.521-.417-.724-.271-.22-.677-.391-1.041-.537-1.136-.453-2.438-.708-4.052-.64-.563.026-1.193.161-1.735.255-.036.005-.443.073-.521.114a.335.335 0 0 0-.213.313Zm1.12.224c.447-.084.937-.177 1.38-.198 1.495-.068 2.703.167 3.76.588.255.105.537.22.761.36.067.047.13.088.177.14.036.042.073.084.073.13 0 .037-.032.053-.058.079a1.083 1.083 0 0 1-.218.125c-.407.166-1.006.224-1.412.219-1.614-.016-2.943-.6-4.13-1.22-.063-.03-.193-.124-.333-.223Z" clip-rule="evenodd"/>
  <mask id="b" width="11" height="7" x="219" y="23" maskUnits="userSpaceOnUse" style="mask-type:luminance">
    <path fill="#fff" d="M219.762 23.995h10v5.333h-10v-5.333Z"/>
  </mask>
  <g mask="url(#b)">
    <path fill="#9E7C4C" fill-rule="evenodd" d="M220.877 28.73c-.006.02-.006.036-.006.056-.005.115.037.276.25.35a.567.567 0 0 0 .172.03c.141.006.386-.015.417-.015.578-.026 1.245-.02 1.859-.146 1.719-.354 3.125-1.062 4.38-2 .386-.297.818-.635 1.115-.995.24-.286.391-.593.417-.9.041-.527-.261-.84-.75-.975-.526-.14-1.302-.052-1.839.1-1.854.51-3.432 1.744-4.838 3.005a8.96 8.96 0 0 0-.907.979c-.156.208-.25.4-.27.51Zm1.01-.293c.234-.276.516-.562.635-.671 1.334-1.188 2.808-2.365 4.558-2.85a3.958 3.958 0 0 1 1.026-.145c.182 0 .359.015.5.067.099.037.182.094.172.214-.016.177-.125.344-.256.51-.265.323-.656.615-1 .875-1.172.875-2.489 1.542-4.099 1.875-.5.105-1.041.11-1.536.125Z" clip-rule="evenodd"/>
  </g>
  <path fill="#9E7C4C" fill-rule="evenodd" d="M219.642 30.63c.01-.005.026-.01.037-.02.119-.063.27-.22.411-.428.26-.385.531-.953.604-1.156.62-1.672 1.094-3.463.537-5.13-.162-.485-.547-1.136-1.052-1.469-.396-.265-.86-.354-1.36-.12-.781.365-1.073 1.271-1.255 2.047-.333 1.401-.292 2.828.37 4.318.234.526.656 1.036.995 1.49.015.02.114.166.197.27a.739.739 0 0 0 .183.172.368.368 0 0 0 .333.026Zm-.125-.86-.021-.03c-.307-.417-.703-.875-.916-1.355-.594-1.338-.631-2.609-.329-3.87.073-.312.162-.66.308-.963.125-.255.297-.484.562-.604.318-.151.604-.016.834.198.286.27.5.666.604.974.505 1.515.036 3.14-.526 4.661-.058.151-.24.537-.433.854-.026.047-.057.094-.083.136Zm4.073-8.307a.185.185 0 0 0 .057.006c.12 0 .323-.068.542-.203.359-.224.818-.62.958-.771 1.203-1.245 2.36-2.667 2.735-4.516.109-.531.14-1.317-.052-1.885-.167-.485-.485-.818-.969-.865-.334-.031-.651.078-.943.281-.359.245-.682.641-.958 1-.875 1.136-1.5 2.485-1.719 4.224-.083.61-.016 1.308.005 1.907.005.041.021.494.063.593a.34.34 0 0 0 .281.23Zm.365-.89c-.026-.552-.089-1.188-.016-1.75.203-1.599.776-2.839 1.583-3.88.198-.255.417-.537.662-.75.187-.156.385-.281.609-.26.198.02.297.192.365.39.156.453.119 1.088.031 1.515-.349 1.714-1.438 3.016-2.547 4.167-.104.11-.406.37-.687.568Zm-4.141-6.151.047-.031c.088-.079.193-.26.255-.5a5.92 5.92 0 0 0 .162-1.162c.02-1.65-.105-3.406-1.042-5.015-.266-.454-.755-1.058-1.25-1.365-.432-.266-.875-.313-1.25-.052-.255.187-.412.469-.485.807-.083.401-.052.89-.005 1.328.13 1.37.573 2.75 1.542 4.177.338.506.833.985 1.24 1.417.026.031.328.354.416.401a.339.339 0 0 0 .37-.005Zm-.328-.943c-.37-.39-.807-.817-1.115-1.265-.89-1.313-1.297-2.589-1.422-3.85-.031-.312-.062-.656-.031-.958.026-.218.073-.416.229-.531.141-.099.308-.026.469.078.406.25.792.745 1.01 1.12.865 1.49.964 3.12.943 4.646 0 .135-.031.463-.083.76Zm-7.219-1.604c.005-.02.005-.042.005-.057.005-.115-.047-.308-.166-.51a6.422 6.422 0 0 0-.672-.902c-1.089-1.135-2.344-2.25-4.011-2.719-.479-.135-1.198-.218-1.724-.093-.468.114-.791.385-.854.828-.047.297.047.594.224.87.214.333.563.646.88.911 1 .85 2.203 1.495 3.776 1.818.552.114 1.188.11 1.735.135.041 0 .458.021.547-.005a.361.361 0 0 0 .26-.276Zm-.911-.432c-.48-.016-1.016-.021-1.485-.115-1.442-.297-2.547-.885-3.463-1.661-.229-.193-.474-.407-.657-.636-.13-.161-.234-.328-.208-.51.021-.151.167-.198.323-.24.417-.099.984-.02 1.365.089 1.541.432 2.687 1.474 3.692 2.526.084.088.271.317.433.547Zm11.208 5.537c0-.022-.005-.037-.01-.058-.032-.104-.141-.255-.318-.406a5.136 5.136 0 0 0-.87-.578c-1.307-.652-2.745-1.22-4.338-1.068-.459.047-1.11.219-1.527.515-.364.266-.562.62-.473 1.042.062.287.234.52.479.714.297.224.698.385 1.062.515 1.136.422 2.38.584 3.844.339.516-.089 1.062-.313 1.536-.48.037-.01.412-.14.48-.197a.338.338 0 0 0 .135-.339Zm-1.016-.069c-.401.146-.838.313-1.255.386-1.323.224-2.453.073-3.484-.302-.25-.094-.526-.198-.755-.339-.162-.099-.297-.213-.334-.375-.026-.14.073-.234.193-.323.323-.224.828-.349 1.182-.38 1.453-.14 2.766.401 3.959.99.078.041.302.198.494.343ZM107.772 32.698a1.404 1.404 0 0 1-.052-.151c-.062-.177-.13-.36-.198-.458-.359-.537-.791-1.037-1.229-1.516-1.323-1.443-2.838-2.823-4.516-3.844-4.687-2.86-11.874-4.9-17.39-4.057-2.844.437-5.677 1.943-8.313 3.02-2.208.912-4.27 2.11-6.448 3.084-2.854 1.266-5.906 1.964-8.895 2.823-3.266.943-6.823 1.885-10.245 2.094-5.042.302-9.802-1-12.839-6.37-.927-1.63-1.317-4.083-1.234-5.943.078-1.854.776-4.031 2.11-5.37 1.807-1.807 4.567-2.922 7.322-3.067 2.735-.146 5.469.666 7.235 2.745 1.703 2 2.286 4.765 1.338 6.796-.625 1.328-1.922 2.318-3.974 2.563a.348.348 0 0 0-.307.39c.02.193.198.334.39.313 2.355-.281 3.813-1.443 4.532-2.969 1.052-2.25.453-5.328-1.438-7.552-1.911-2.25-4.86-3.15-7.812-2.99-2.933.152-5.865 1.35-7.787 3.271-1.453 1.454-2.229 3.818-2.317 5.839-.089 1.98.343 4.583 1.323 6.323 3.203 5.65 8.192 7.047 13.5 6.724 3.473-.209 7.088-1.162 10.395-2.115 3.021-.87 6.105-1.578 8.99-2.864 2.172-.964 4.23-2.162 6.432-3.068 2.584-1.057 5.36-2.552 8.151-2.974 5.365-.823 12.35 1.177 16.917 3.958 1.62.985 3.078 2.323 4.359 3.72.412.452.823.921 1.162 1.426.083.12.14.386.203.552a.783.783 0 0 0 .234.334.402.402 0 0 0 .281.062.402.402 0 0 0 .297-.193.346.346 0 0 0-.177-.536Zm-.39.114c0 .006-.006.01-.011.016l.011-.016Zm.01-.005h-.005l.005-.005v.005Z" clip-rule="evenodd"/>
  <path fill="#9E7C4C" fill-rule="evenodd" d="M95.736 24.453c0-.015 0-.031-.005-.047a.352.352 0 0 0-.193-.276c-.094-.052-.537-.12-.578-.13-.6-.099-1.203-.151-1.813-.099-1.479.12-2.937.453-4.208 1.156-.703.396-1.38 1.068-1.307 1.865.041.495.354.844.807 1.062.557.271 1.333.328 1.854.282 1.828-.183 3.234-1.23 4.469-2.344a5.52 5.52 0 0 0 .77-.927c.136-.209.204-.412.204-.542Zm-.86.25a4.28 4.28 0 0 1-.589.693c-1.124 1.02-2.395 2-4.062 2.161-.416.042-1.036.006-1.479-.208-.213-.104-.39-.25-.411-.484-.021-.24.088-.448.24-.636.192-.224.453-.406.708-.552 1.182-.656 2.541-.958 3.922-1.073a6.858 6.858 0 0 1 1.635.094l.036.005Zm4.444 1.037c.015-.006.03-.006.046-.016a.352.352 0 0 0 .234-.24c.032-.099.021-.547.021-.593a7.477 7.477 0 0 0-.224-1.797c-.385-1.438-.974-2.808-1.9-3.933-.511-.62-1.298-1.161-2.068-.948-.48.13-.766.5-.896.985-.167.599-.089 1.37.057 1.875.505 1.765 1.786 2.963 3.11 3.974.16.125.656.432 1.046.588.235.094.443.125.573.105Zm-.402-.802a4.64 4.64 0 0 1-.787-.453c-1.208-.923-2.4-1.995-2.859-3.605-.114-.4-.192-1.015-.062-1.495.068-.229.177-.427.406-.49.23-.062.453.006.662.12.255.146.484.37.671.6.86 1.041 1.401 2.328 1.766 3.661a6.92 6.92 0 0 1 .203 1.63v.032Zm-14.38-1.584a.284.284 0 0 0-.031-.041.364.364 0 0 0-.313-.141c-.11.005-.541.177-.583.193-.589.229-1.167.5-1.693.864-1.292.886-2.448 1.938-3.255 3.219-.25.401-.458.88-.5 1.333-.026.35.042.683.245.974.286.401.745.542 1.265.495.641-.063 1.37-.417 1.818-.73 1.573-1.119 2.333-2.765 2.896-4.38a5.77 5.77 0 0 0 .24-1.203c.015-.255-.026-.468-.089-.583Zm-.63.656c0 .01 0 .026-.005.037a4.56 4.56 0 0 1-.183.86c-.52 1.484-1.192 3.01-2.64 4.036-.36.255-.954.552-1.47.604-.25.02-.489-.005-.624-.198-.136-.198-.14-.432-.094-.672.063-.292.209-.594.37-.854.755-1.198 1.849-2.182 3.057-3.01.48-.334 1.01-.579 1.547-.787l.042-.016Zm4.755-1.187a.347.347 0 0 0 .078-.38c-.036-.104-.333-.469-.36-.505-.395-.49-.833-1.084-1.312-1.5-1.375-1.183-2.786-1.745-4.245-1.938-.458-.063-.979-.115-1.421-.026-.36.068-.667.23-.896.516-.323.4-.328.885-.125 1.37.244.598.812 1.187 1.26 1.515 1.573 1.151 3.438 1.349 5.214 1.37.213 0 .838-.047 1.27-.157.256-.067.448-.171.537-.265Zm-.802-.401-.073.015a5.983 5.983 0 0 1-.922.1c-1.635-.021-3.36-.172-4.807-1.235-.36-.265-.828-.73-1.026-1.208-.094-.235-.13-.469.026-.662.156-.198.396-.265.65-.291.334-.032.694.015 1.022.057 1.333.182 2.62.693 3.875 1.776.453.39.854.953 1.224 1.411l.03.037ZM77.762 25.24c.01-.016.02-.032.026-.047a.362.362 0 0 0-.01-.344c-.053-.094-.402-.406-.438-.438-.469-.421-.99-.942-1.536-1.276-1.542-.953-3.021-1.28-4.49-1.244-.469.01-.99.041-1.411.198-.344.13-.626.333-.803.65-.255.448-.182.928.089 1.376.339.546.99 1.041 1.484 1.296 1.735.886 3.61.787 5.37.526a6.037 6.037 0 0 0 1.23-.354c.239-.104.41-.234.489-.343Zm-.86-.271c-.026.01-.046.02-.067.026a5.26 5.26 0 0 1-.896.245c-1.62.24-3.344.359-4.943-.459-.395-.203-.932-.593-1.203-1.036-.13-.214-.203-.443-.078-.657.125-.218.349-.322.599-.39.323-.083.688-.094 1.016-.1 1.343-.035 2.692.272 4.104 1.142.51.312.995.802 1.432 1.198l.037.03Zm-3.958 2.994a.281.281 0 0 0-.031-.041.368.368 0 0 0-.333-.104c-.11.02-.516.244-.558.27-.552.303-1.213.625-1.708 1.027-1.406 1.145-2.208 2.437-2.656 3.833-.14.443-.287.948-.276 1.401.01.365.11.698.354.969.338.39.812.479 1.328.364.625-.135 1.313-.588 1.708-.974 1.412-1.343 1.933-3.145 2.266-4.89a6.28 6.28 0 0 0 .073-1.282c-.021-.26-.089-.468-.167-.573Zm-.536.72v.072c.01.36-.032.771-.063.927-.307 1.61-.76 3.276-2.057 4.516-.328.307-.87.687-1.375.797-.245.052-.484.041-.646-.14-.167-.194-.193-.438-.172-.699.026-.328.136-.677.24-.995.406-1.276 1.14-2.448 2.427-3.494.463-.38 1.088-.677 1.604-.959l.042-.026Zm-3.943.874a.18.18 0 0 0 .026-.052.338.338 0 0 0-.042-.354c-.057-.088-.416-.37-.448-.396-.49-.39-1.041-.87-1.588-1.187-1.557-.907-2.995-1.266-4.375-1.308-.438-.01-.938-.01-1.323.11-.333.099-.599.286-.745.578-.198.396-.093.844.23 1.265.37.49 1.036.948 1.525 1.193 1.735.86 3.495.865 5.13.724a5.69 5.69 0 0 0 1.136-.255c.24-.089.406-.214.474-.318Zm-.938-.276c-.286.078-.604.13-.734.146-1.51.125-3.146.14-4.755-.656-.406-.203-.969-.578-1.276-.985-.136-.177-.245-.354-.162-.52.084-.162.266-.22.47-.256.296-.057.64-.052.947-.041 1.276.036 2.599.375 4.042 1.213.505.292 1.015.735 1.469 1.1Zm-3.02 1.886a.222.222 0 0 0-.037-.042.354.354 0 0 0-.364-.099.685.685 0 0 0-.151.068 7.874 7.874 0 0 0-.308.218c-.427.303-.942.636-1.328 1.021a7.85 7.85 0 0 0-2.052 3.542c-.104.396-.219.844-.203 1.24.005.328.094.625.292.854.297.349.708.406 1.15.255.495-.167 1.037-.615 1.355-.99 1.088-1.27 1.49-2.885 1.74-4.432a6.38 6.38 0 0 0 .041-1.12c-.016-.24-.073-.427-.135-.515Zm-.563.802c0 .286-.026.599-.041.718-.235 1.428-.579 2.917-1.579 4.089-.244.286-.656.651-1.041.781-.146.047-.292.068-.39-.047-.126-.145-.136-.354-.12-.567.02-.292.103-.604.182-.886.307-1.14.875-2.218 1.864-3.224.328-.328.755-.604 1.125-.864Zm-8.661-9.771c-.021-.005-.042-.005-.063-.01a.343.343 0 0 0-.349.166c-.047.073-.156.453-.172.49-.145.505-.338 1.078-.416 1.614-.219 1.521-.073 2.802.291 3.964.12.37.26.781.459 1.073.177.26.406.437.672.49.312.062.588-.058.812-.324.354-.406.563-1.244.604-1.807.14-1.656-.364-3.12-.932-4.443a5.817 5.817 0 0 0-.516-.88c-.14-.187-.291-.302-.39-.333Zm.02 1.094c.105.166.204.328.235.4.526 1.225 1.005 2.574.88 4.105-.031.38-.14.927-.349 1.281a.663.663 0 0 1-.135.172c-.026.026-.057.047-.094.042-.13-.026-.208-.162-.292-.308a4.198 4.198 0 0 1-.297-.776c-.338-1.067-.468-2.244-.27-3.65.062-.417.197-.855.322-1.266Zm.251 10.093c-.016-.015-.032-.036-.047-.052a.342.342 0 0 0-.328-.093c-.089.015-.443.187-.474.203-.49.234-1.063.479-1.521.776-1.297.838-2.13 1.755-2.698 2.718-.182.318-.38.678-.438.995-.062.302-.01.573.183.787.187.218.474.312.817.281.573-.047 1.339-.453 1.782-.776 1.338-.984 2.02-2.23 2.547-3.427.067-.151.213-.594.255-.901.031-.235-.016-.422-.078-.51Zm-.704.771a2.706 2.706 0 0 1-.12.354c-.484 1.1-1.098 2.245-2.317 3.141-.313.23-.813.516-1.24.615a.992.992 0 0 1-.265.03c-.058 0-.115-.004-.146-.04-.068-.079-.031-.183.005-.298.068-.218.208-.453.333-.661.516-.886 1.282-1.714 2.47-2.484.385-.25.859-.459 1.28-.657Zm-2.963-.271a.346.346 0 0 0 .083-.406c-.036-.088-.291-.416-.317-.453-.35-.453-.74-1-1.151-1.411-1.178-1.172-2.334-1.85-3.5-2.24-.38-.13-.803-.255-1.157-.26-.328 0-.604.104-.791.328-.198.234-.24.552-.141.9.167.574.76 1.287 1.208 1.678 1.334 1.182 2.828 1.64 4.24 1.948a4.53 4.53 0 0 0 1.02.083c.24-.016.423-.088.506-.167Zm-.89-.546a5.961 5.961 0 0 1-.485-.058c-1.302-.286-2.693-.703-3.922-1.791-.318-.276-.73-.74-.927-1.162a1.218 1.218 0 0 1-.089-.265c-.005-.063-.015-.12.021-.167.084-.1.224-.078.375-.063.255.026.542.125.802.209 1.078.364 2.146.994 3.23 2.078.354.354.692.812.994 1.219Zm-.037-19.605c-.021.006-.042.01-.057.021-.11.052-.256.203-.37.427a5.48 5.48 0 0 0-.396 1.089c-.35 1.588-.573 3.317.047 5.13.172.51.536 1.219.969 1.651.37.37.796.531 1.213.38.307-.11.52-.343.667-.656.166-.364.229-.854.276-1.292.135-1.359-.031-2.817-.714-4.463-.245-.578-.64-1.177-.958-1.703-.021-.042-.25-.427-.328-.495a.354.354 0 0 0-.35-.089Zm.12 1.026c.291.48.645 1.016.859 1.532.635 1.52.792 2.864.667 4.12-.032.307-.068.645-.162.932-.068.192-.146.364-.312.422-.172.062-.328-.063-.485-.22-.36-.353-.65-.947-.797-1.374-.572-1.677-.343-3.281-.026-4.755a6.36 6.36 0 0 1 .256-.657Zm2.614 1.23c-.01.015-.026.026-.031.046a.343.343 0 0 0 0 .365c.052.099.411.427.448.458.49.448 1.031 1 1.599 1.375 1.614 1.058 3.172 1.506 4.719 1.6.49.025 1.041.046 1.494-.074.365-.093.672-.276.87-.573.287-.421.224-.911-.062-1.38-.344-.557-1.021-1.088-1.537-1.38-1.818-1.01-3.802-1.073-5.661-.974-.224.01-.87.1-1.302.24-.26.078-.453.198-.537.297Zm.88.338.032-.01c.359-.089.797-.151.963-.162 1.735-.088 3.589-.052 5.281.89.422.235.99.668 1.276 1.131.13.214.209.427.079.615-.136.203-.375.28-.641.323-.349.052-.74.03-1.094.01-1.437-.083-2.88-.505-4.375-1.484-.536-.355-1.047-.875-1.505-1.302l-.016-.01Zm-3.677 8.938-.015-.052c-.042-.105-.167-.256-.354-.401a6.18 6.18 0 0 0-.959-.579c-1.422-.635-2.979-1.182-4.625-.948-.474.068-1.146.276-1.547.61-.359.297-.536.677-.4 1.114.083.297.28.532.546.72.328.223.76.38 1.146.504a7.559 7.559 0 0 0 4.047.193c.531-.114 1.083-.375 1.568-.573.02-.01.234-.088.349-.146a.758.758 0 0 0 .135-.088.349.349 0 0 0 .11-.354Zm-.979-.021c-.416.177-.885.396-1.333.49a6.882 6.882 0 0 1-3.677-.172 4.585 4.585 0 0 1-.828-.334c-.188-.104-.355-.229-.407-.416-.047-.151.047-.266.172-.37.313-.256.828-.407 1.198-.459 1.51-.213 2.932.313 4.24.896.114.058.396.209.635.365Zm-4.568 8.823c.006-.021.006-.047.006-.073a.353.353 0 0 0-.214-.313c-.083-.041-.484-.104-.526-.114-.542-.094-1.167-.23-1.734-.255-1.61-.068-2.912.187-4.052.64-.365.146-.771.318-1.042.537-.255.203-.401.447-.417.724-.01.302.157.562.459.75.479.296 1.37.416 1.948.406 1.74-.021 3.171-.63 4.447-1.297a5.31 5.31 0 0 0 .834-.573c.182-.161.276-.328.291-.432Zm-1.12.15c-.14.105-.27.193-.333.225-1.182.62-2.51 1.203-4.125 1.224-.411 0-1.005-.058-1.416-.224a.924.924 0 0 1-.214-.125c-.031-.021-.062-.042-.062-.078.005-.047.036-.089.073-.125.052-.053.114-.1.182-.146.218-.14.5-.255.76-.36 1.052-.422 2.26-.656 3.755-.588.448.02.933.114 1.38.198Z" clip-rule="evenodd"/>
  <mask id="c" width="11" height="8" x="29" y="23" maskUnits="userSpaceOnUse" style="mask-type:luminance">
    <path fill="#fff" d="M29.762 23.995h10v6.666h-10v-6.666Z"/>
  </mask>
  <g mask="url(#c)">
    <path fill="#9E7C4C" fill-rule="evenodd" d="M38.668 29.11c0-.016-.005-.037-.005-.053-.02-.114-.12-.307-.276-.51a9.2 9.2 0 0 0-.901-.985c-1.412-1.26-2.984-2.49-4.839-3.005-.536-.15-1.317-.24-1.838-.093-.495.135-.797.442-.75.968.02.308.177.615.411.907.297.359.73.697 1.12.99 1.25.937 2.662 1.645 4.38 2 .61.124 1.276.119 1.854.145.032 0 .282.02.417.016a.53.53 0 0 0 .172-.032.347.347 0 0 0 .255-.349Zm-1.015-.35c-.495-.015-1.042-.02-1.542-.125-1.61-.333-2.927-.994-4.1-1.875-.343-.26-.728-.552-.994-.875-.135-.166-.24-.333-.255-.51-.01-.14.104-.193.234-.234.417-.11 1.037-.021 1.464.099 1.745.484 3.224 1.661 4.552 2.854.12.104.4.39.64.666Z" clip-rule="evenodd"/>
  </g>
  <path fill="#9E7C4C" fill-rule="evenodd" d="M39.856 30.938c.015.005.026.01.036.015a.353.353 0 0 0 .333-.026.737.737 0 0 0 .183-.172c.088-.104.187-.25.203-.27.333-.454.76-.964.995-1.49.661-1.49.703-2.912.37-4.318-.188-.77-.475-1.682-1.261-2.047-.5-.234-.964-.146-1.354.12-.51.333-.89.984-1.052 1.469-.558 1.666-.084 3.458.531 5.13.073.203.344.77.604 1.156.146.209.297.365.412.433Zm.161-.844c-.026-.042-.052-.089-.083-.136a6.04 6.04 0 0 1-.427-.849c-.563-1.526-1.037-3.15-.532-4.666.105-.308.318-.703.61-.974.229-.214.51-.35.833-.198.266.125.432.349.557.604.151.307.235.651.308.963.302 1.261.265 2.537-.328 3.87-.214.48-.61.943-.917 1.355l-.02.03Zm-4.125-8.302h.052a.365.365 0 0 0 .287-.235c.036-.099.057-.547.057-.593.026-.6.089-1.297.01-1.907-.224-1.74-.843-3.088-1.724-4.224-.276-.359-.599-.755-.953-1-.291-.203-.61-.312-.942-.28-.49.046-.808.384-.97.864-.197.567-.166 1.354-.056 1.885.375 1.849 1.53 3.276 2.734 4.516.146.15.599.547.963.77.214.136.417.204.542.204Zm-.312-.896a5.596 5.596 0 0 1-.683-.568c-1.114-1.15-2.203-2.453-2.552-4.166-.088-.428-.125-1.063.032-1.516.067-.198.166-.37.37-.386.218-.026.416.1.603.256.245.213.47.494.667.75.802 1.046 1.375 2.286 1.578 3.88.073.562.01 1.198-.015 1.75Zm4.093-6.183.047.032a.357.357 0 0 0 .375.01c.089-.052.386-.375.417-.406.406-.432.896-.912 1.234-1.412.969-1.427 1.412-2.807 1.547-4.182.042-.437.078-.927-.01-1.328-.073-.338-.224-.62-.485-.802-.37-.266-.812-.219-1.25.047-.494.307-.979.911-1.244 1.37-.938 1.604-1.063 3.359-1.047 5.01.005.198.057.77.161 1.162.068.24.167.421.255.5Zm.38-.91a5.759 5.759 0 0 1-.088-.761c-.016-1.526.083-3.157.948-4.646.219-.375.604-.87 1.005-1.12.167-.099.328-.177.474-.078.156.114.198.312.224.531.037.307.005.646-.026.958-.125 1.266-.536 2.537-1.427 3.85-.302.453-.74.88-1.11 1.265Zm7.209-1.663c0 .021.005.037.01.058a.353.353 0 0 0 .256.276c.088.026.51.005.546.005.547-.026 1.183-.02 1.74-.135 1.568-.323 2.77-.969 3.776-1.818.318-.266.667-.578.875-.906.182-.281.27-.573.23-.875-.063-.443-.391-.714-.86-.823-.521-.13-1.24-.042-1.724.088-1.667.47-2.917 1.584-4.01 2.72a6.41 6.41 0 0 0-.667.9c-.12.208-.177.396-.172.51Zm.922-.374a4.63 4.63 0 0 1 .432-.547c1.005-1.047 2.146-2.094 3.688-2.526.38-.104.953-.188 1.364-.084.162.037.302.089.323.235.026.182-.078.349-.208.51-.177.23-.427.443-.651.636-.922.776-2.026 1.364-3.464 1.661-.469.099-1.005.099-1.484.115ZM36.98 17.25c-.005.016-.005.031-.01.052a.36.36 0 0 0 .136.339c.073.057.442.187.479.198.479.166 1.026.39 1.536.479 1.464.244 2.709.083 3.85-.334.364-.135.765-.297 1.057-.52.244-.193.421-.427.479-.714.088-.422-.104-.776-.474-1.042-.417-.296-1.068-.468-1.526-.51-1.589-.156-3.032.411-4.339 1.062a5.616 5.616 0 0 0-.87.578c-.172.152-.28.308-.317.412Zm1.011-.016c.193-.146.412-.297.495-.338 1.193-.594 2.5-1.136 3.953-.995.354.037.865.156 1.182.386.12.083.224.177.193.317-.031.167-.172.276-.333.375-.224.14-.5.245-.756.339-1.03.38-2.161.526-3.484.302-.417-.073-.854-.24-1.25-.386Z" clip-rule="evenodd"/>
  <path fill="#9E7C4C" d="M0 76.026v-.646c.776-.234 1.302-.74 1.583-1.52.292-.777.438-2.188.438-4.23V47.15c0-2.067-.146-3.478-.438-4.228-.28-.76-.807-1.26-1.583-1.5v-.667h8.167v.667c-.782.24-1.313.74-1.604 1.5-.282.75-.417 2.161-.417 4.229v12.812l13.208-13.5c1.568-1.65 2.48-2.9 2.73-3.75.26-.859-.094-1.359-1.063-1.5v-.458h7v.667c-.808.24-1.75.583-2.834 1.041-1.072.448-2.328 1.407-3.77 2.875l-10.73 11 1.167-.062c1.875-.136 3.406-.047 4.604.27 1.193.324 2.177.907 2.959 1.75.791.834 1.526 1.975 2.208 3.417.693 1.448 1.463 3.245 2.313 5.396.875 2.157 1.593 3.828 2.166 5.021.568 1.182 1.094 2.01 1.584 2.48.484.473 1 .708 1.541.708h.438c.135 0 .276-.01.416-.042v.646a6.9 6.9 0 0 1-1.458.27 15.56 15.56 0 0 1-1.563.084c-1.208 0-2.187-.255-2.937-.77-.74-.527-1.396-1.386-1.98-2.584-.582-1.193-1.28-2.76-2.082-4.709a775.823 775.823 0 0 1-2.146-5.208c-.584-1.427-1.183-2.583-1.792-3.458-.599-.875-1.307-1.5-2.125-1.875-.807-.386-1.844-.568-3.104-.542H9.875l-3.73 3.833v8.667c0 2.042.136 3.453.418 4.23.291.78.822 1.286 1.604 1.52v.646H0Zm31.272 0v-.646c.776-.234 1.302-.74 1.583-1.52.292-.777.438-2.188.438-4.23V58.047c0-1.177-.079-2.063-.23-2.646-.156-.583-.375-1.005-.666-1.27-.282-.277-.656-.522-1.125-.73v-.542l5.5-2.416.458.354v4.27a28.78 28.78 0 0 1 4.98-3.187c1.817-.927 3.63-1.396 5.437-1.396 3.791 0 6.125 1.578 7 4.73 1.51-1.209 3.198-2.297 5.062-3.271 1.875-.97 3.75-1.459 5.625-1.459 2.443 0 4.281.682 5.521 2.042 1.25 1.364 1.875 3.469 1.875 6.312V69.63c0 2.042.151 3.453.458 4.23.302.78.823 1.286 1.563 1.52v.646h-7.958v-.646c.776-.234 1.302-.74 1.583-1.52.292-.777.437-2.188.437-4.23v-9.875c0-5.068-1.916-7.604-5.75-7.604-1.448 0-2.843.354-4.187 1.062-1.333.698-2.688 1.584-4.063 2.667.193.833.292 1.823.292 2.958V69.63c0 2.042.136 3.453.417 4.23.291.78.823 1.286 1.604 1.52v.646h-7.958v-.646c.76-.234 1.28-.74 1.562-1.52.292-.777.438-2.188.438-4.23v-9.875c0-5.068-1.912-7.604-5.73-7.604-1.448 0-2.833.349-4.166 1.042-1.323.682-2.667 1.541-4.042 2.583V69.63c0 2.042.136 3.453.417 4.23.291.78.817 1.286 1.583 1.52v.646h-7.958Zm46.129 0v-.646c.776-.234 1.302-.74 1.583-1.52.292-.777.438-2.188.438-4.23V58.047c0-1.177-.073-2.063-.209-2.646-.124-.583-.343-1.005-.645-1.27a4.423 4.423 0 0 0-1.167-.73v-.542l5.542-2.416.416.354V69.63c0 2.042.146 3.453.438 4.23.302.78.823 1.286 1.562 1.52v.646h-7.958Zm.917-31.438c0-.802.26-1.468.791-2 .542-.541 1.198-.812 1.98-.812.802 0 1.463.27 1.979.812.526.532.791 1.198.791 2 0 .74-.27 1.386-.812 1.938a2.595 2.595 0 0 1-1.959.833 2.648 2.648 0 0 1-1.979-.833c-.53-.552-.791-1.198-.791-1.938Zm10.414 31.438v-.646c.776-.234 1.302-.74 1.583-1.52.292-.777.438-2.188.438-4.23V58.047c0-1.177-.073-2.063-.209-2.646-.125-.583-.343-1.005-.645-1.27a4.423 4.423 0 0 0-1.167-.73v-.542l5.542-2.416.416.354v4.333c1.469-1.177 3.13-2.25 4.98-3.208 1.843-.959 3.739-1.438 5.687-1.438 2.484 0 4.427.724 5.833 2.167 1.417 1.448 2.125 3.646 2.125 6.604V69.63c0 2.042.136 3.453.417 4.23.292.78.823 1.286 1.604 1.52v.646h-7.958v-.646c.776-.234 1.302-.74 1.583-1.52.292-.777.438-2.188.438-4.23v-9.375c0-2.61-.558-4.61-1.667-6-1.115-1.401-2.771-2.104-4.979-2.104-1.391 0-2.766.364-4.125 1.083a23.358 23.358 0 0 0-3.938 2.688V69.63c0 2.042.146 3.453.438 4.23.302.78.823 1.286 1.562 1.52v.646h-7.958Zm37.327.5c-1.584 0-2.829-.542-3.73-1.625-.906-1.094-1.354-2.958-1.354-5.583V51.547h-3.229v-.709l6.458-6.187h.688v6.187h7.667l-.25.709h-7.417v17.77c0 1.725.323 2.949.979 3.667.667.724 1.531 1.084 2.604 1.084.709 0 1.479-.193 2.313-.584.843-.385 1.687-1.067 2.521-2.041l.458.458a20.197 20.197 0 0 1-3.563 3.25c-1.291.917-2.677 1.375-4.145 1.375Zm32.732 0c-2.656 0-5.042-.385-7.167-1.146-2.114-.776-3.75-1.583-4.916-2.417l-.25-7.02.541-.084a21.712 21.712 0 0 0 2.646 4.854 12.012 12.012 0 0 0 4.167 3.584c1.677.89 3.672 1.333 5.979 1.333 1.344 0 2.589-.276 3.729-.833 1.151-.552 2.068-1.334 2.75-2.334.693-1.01 1.042-2.192 1.042-3.541 0-1.276-.344-2.38-1.021-3.313-.667-.942-1.542-1.77-2.625-2.479a21.954 21.954 0 0 0-3.396-1.833 94.215 94.215 0 0 0-3.396-1.438c-1.974-.802-3.698-1.614-5.166-2.437-1.459-.834-2.584-1.823-3.375-2.98-.782-1.166-1.167-2.635-1.167-4.416 0-1.969.505-3.672 1.521-5.104 1.026-1.427 2.463-2.542 4.312-3.334 1.844-.791 4-1.187 6.459-1.187 2.276 0 4.234.26 5.875.77 1.651.5 2.963 1.022 3.937 1.563l.209 5.834-.5.145c-.948-2.177-2.323-3.968-4.125-5.375-1.792-1.416-4.136-2.125-7.021-2.125-1.349 0-2.599.266-3.75.792-1.157.516-2.078 1.26-2.771 2.23-.698.973-1.042 2.181-1.042 3.624 0 1.182.281 2.209.854 3.084a8.35 8.35 0 0 0 2.271 2.27 18.813 18.813 0 0 0 3.084 1.688c1.109.49 2.197.948 3.27 1.375a58.174 58.174 0 0 1 5.271 2.375c1.651.833 2.99 1.854 4.021 3.062 1.026 1.209 1.542 2.771 1.542 4.688 0 2.083-.573 3.89-1.709 5.417-1.14 1.53-2.614 2.698-4.416 3.5a13.73 13.73 0 0 1-5.667 1.208Zm14.748-.5v-.646c.776-.234 1.302-.74 1.583-1.52.292-.777.438-2.188.438-4.23V42.922c0-1.167-.078-2.042-.229-2.625-.156-.594-.375-1.026-.667-1.292-.281-.276-.656-.51-1.125-.708v-.563l5.5-2.416.458.354V55.13c1.469-1.177 3.131-2.25 4.98-3.208 1.843-.959 3.739-1.438 5.687-1.438 2.484 0 4.427.724 5.833 2.167 1.417 1.448 2.125 3.646 2.125 6.604V69.63c0 2.042.136 3.453.417 4.23.292.78.823 1.286 1.604 1.52v.646h-7.958v-.646c.776-.234 1.302-.74 1.583-1.52.292-.777.438-2.188.438-4.23v-9.375c0-2.61-.558-4.61-1.667-6-1.114-1.401-2.781-2.104-5-2.104-1.375 0-2.745.364-4.104 1.083a22.18 22.18 0 0 0-3.938 2.688V69.63c0 2.042.136 3.453.417 4.23.292.78.818 1.286 1.583 1.52v.646h-7.958Zm42.825.5c-1.625 0-3.219-.25-4.771-.75a12.904 12.904 0 0 1-4.25-2.313c-1.281-1.041-2.302-2.364-3.062-3.979-.75-1.61-1.125-3.51-1.125-5.708 0-2.61.614-4.917 1.854-6.917 1.25-2 2.88-3.562 4.896-4.687a13.023 13.023 0 0 1 6.458-1.688 15.5 15.5 0 0 1 4.667.73 12.522 12.522 0 0 1 4.229 2.291c1.276 1.042 2.302 2.37 3.083 3.98.776 1.614 1.167 3.54 1.167 5.79 0 2.157-.396 4.058-1.188 5.71-.791 1.64-1.849 3.02-3.166 4.145-1.308 1.125-2.73 1.974-4.271 2.542-1.542.567-3.052.854-4.521.854Zm-9.333-15.604c0 1.614.25 3.265.75 4.958a18.361 18.361 0 0 0 2.166 4.708c.943 1.448 2.073 2.62 3.396 3.521 1.333.907 2.839 1.354 4.521 1.354 1.818 0 3.297-.421 4.437-1.27 1.136-.86 1.985-1.99 2.542-3.396.552-1.417.833-2.927.833-4.542 0-1.61-.27-3.297-.812-5.062a18.657 18.657 0 0 0-2.292-4.917c-.989-1.51-2.166-2.719-3.541-3.625-1.375-.901-2.891-1.302-4.542-1.208-1.708.073-3.12.541-4.229 1.416-1.115.875-1.933 2.021-2.459 3.438-.515 1.406-.77 2.948-.77 4.625Zm39.899 15.562a12.54 12.54 0 0 1-3.958-.625c-1.266-.427-2.385-.963-3.354-1.604v8.98c0 2.04.135 3.442.416 4.208.292.776.823 1.28 1.605 1.52v.667h-7.959v-.667c.761-.24 1.282-.744 1.563-1.52.291-.766.437-2.167.437-4.209V58.047c0-1.177-.078-2.063-.229-2.646-.141-.583-.354-1.005-.646-1.27-.281-.277-.656-.522-1.125-.73v-.542l5.479-2.416.459.354v3.666c1.375-1 2.906-1.906 4.604-2.729 1.693-.833 3.521-1.25 5.479-1.25 1.943 0 3.688.51 5.229 1.521 1.542 1 2.755 2.427 3.646 4.27.886 1.85 1.333 4.017 1.333 6.5 0 2.35-.51 4.563-1.52 6.647a12.52 12.52 0 0 1-4.396 5.062c-1.933 1.292-4.287 1.959-7.063 2Zm-7.312-8.77c0 .833.25 1.718.75 2.645.51.917 1.187 1.766 2.021 2.542a10.498 10.498 0 0 0 2.833 1.896 7.852 7.852 0 0 0 3.312.729c2.651 0 4.605-.901 5.855-2.708 1.26-1.818 1.895-4.193 1.895-7.125 0-1.401-.156-2.88-.458-4.438a15.68 15.68 0 0 0-1.521-4.417c-.724-1.375-1.677-2.49-2.854-3.354-1.167-.86-2.646-1.291-4.437-1.291-1.433 0-2.761.312-3.98.937a24.154 24.154 0 0 0-3.416 2.146v12.437Z"/>
  <mask id="d" width="207" height="17" x="15" y="75" maskUnits="userSpaceOnUse" style="mask-type:luminance">
    <path fill="#fff" d="M221.095 75.995H15.762v16h205.333v-16Z"/>
  </mask>
  <g mask="url(#d)">
    <path fill="#545454" d="M21.442 87.763c-.708 0-1.343-.15-1.895-.458a3.346 3.346 0 0 1-1.292-1.292c-.307-.552-.458-1.187-.458-1.896 0-.718.15-1.354.458-1.895a3.228 3.228 0 0 1 1.292-1.271c.552-.318 1.187-.48 1.895-.48.72 0 1.355.162 1.896.48.542.307.964.729 1.271 1.27.318.542.48 1.178.48 1.896 0 .709-.162 1.344-.48 1.896-.307.542-.73.974-1.27 1.292-.542.307-1.178.458-1.897.458Zm-2.75-3.646c0 .542.115 1.021.355 1.438.234.417.552.745.958.98.417.239.896.353 1.437.353.542 0 1.01-.114 1.417-.354.417-.234.734-.562.958-.98.235-.416.355-.895.355-1.437 0-.552-.12-1.03-.355-1.437a2.44 2.44 0 0 0-.958-.98c-.406-.234-.875-.353-1.417-.353-.541 0-1.02.12-1.437.354-.406.24-.724.562-.958.979-.24.406-.355.885-.355 1.437ZM30.3 87.638v-7.041h.833l3.896 5.52v-5.52h.875v7.041h-.834l-3.895-5.52v5.52H30.3Zm11.26 0v-7.041h.895v6.187h3.417v.854h-4.313Zm9.255 0v-7.041h.896v7.041h-.896Zm-.25-8.458c0-.193.063-.354.188-.48a.715.715 0 0 1 .52-.208c.209 0 .375.073.5.209a.652.652 0 0 1 .188.479.71.71 0 0 1-.188.5.676.676 0 0 1-.5.187.744.744 0 0 1-.52-.187.71.71 0 0 1-.188-.5Zm6.796 8.458v-7.041h.834l3.896 5.52v-5.52h.875v7.041h-.834l-3.896-5.52v5.52h-.875Zm11.26 0v-7.041h4.292v.833h-3.396v2.208h3.125v.813h-3.125v2.354h3.5v.833h-4.396Zm14.928 0 2.896-7.041h.833l2.896 7.041h-.938l-.666-1.604h-3.417l-.646 1.604h-.958Zm1.937-2.416h2.75l-1.375-3.396-1.375 3.396Zm9.492 2.416v-7.041h.896v6.187h3.416v.854h-4.312Zm10.964 0V81.43h-2.396v-.833h5.646v.833h-2.375v6.208h-.875Zm8.242 0v-7.041h.896v7.041h-.896Zm6.547 0v-7.041h.833l3.896 5.52v-5.52h.875v7.041h-.834l-3.895-5.52v5.52h-.875Zm17.363 0v-7.041h.833l2.771 4.166 2.75-4.166h.812v7.041h-.875v-5.375l-2.333 3.5h-.729l-2.334-3.52v5.395h-.895Zm11.976 0 2.896-7.041h.834l2.895 7.041h-.937l-.667-1.604h-3.416l-.646 1.604h-.959Zm1.938-2.416h2.75l-1.375-3.396-1.375 3.396Zm12.637 2.541a3.86 3.86 0 0 1-1.437-.27 3.336 3.336 0 0 1-1.125-.75 3.504 3.504 0 0 1-.75-1.167 3.792 3.792 0 0 1-.271-1.459c0-.526.083-1.01.25-1.458.177-.443.427-.823.75-1.146a3.315 3.315 0 0 1 1.125-.77 3.84 3.84 0 0 1 1.438-.271 3.65 3.65 0 0 1 2.666 1.104c.334.349.573.75.729 1.208h-.979a2.464 2.464 0 0 0-.958-1.062c-.406-.25-.886-.375-1.438-.375-.515 0-.979.12-1.395.354-.407.24-.724.562-.959.979-.224.417-.333.896-.333 1.437 0 .542.114 1.021.354 1.438.234.417.552.745.958.98.401.239.865.353 1.396.353.469 0 .886-.088 1.25-.27.375-.193.677-.459.917-.792.234-.334.38-.719.437-1.167h-2.875v-.854h3.834c.01.781-.136 1.469-.438 2.062a3.44 3.44 0 0 1-1.25 1.396c-.541.334-1.177.5-1.896.5Zm-1.375-9.041v-.23h.688v.188c0 .208.052.37.167.48.125.114.291.166.5.166.208 0 .364-.052.479-.167.125-.11.187-.27.187-.48v-.187h.688v.23c0 .364-.125.661-.375.895-.24.224-.563.334-.979.334-.407 0-.73-.11-.98-.334a1.172 1.172 0 0 1-.375-.895Zm9.29 8.916 2.896-7.041h.833l2.896 7.041h-.938l-.666-1.604h-3.417l-.646 1.604h-.958Zm1.937-2.416h2.75l-1.375-3.396-1.375 3.396Zm9.013 2.416v-.646l3.729-5.562h-3.646v-.833h4.833v.645l-3.75 5.542h3.855v.854h-5.021Zm9.313 0 2.896-7.041h.834l2.895 7.041h-.937l-.667-1.604h-3.416l-.646 1.604h-.959Zm1.938-2.416h2.75l-1.375-3.396-1.375 3.396Zm11.846 2.541c-.573 0-1.063-.094-1.48-.27a2.331 2.331 0 0 1-.958-.813c-.224-.344-.333-.75-.333-1.208h.875c.01.458.193.823.541 1.083.344.25.797.375 1.355.375.5 0 .895-.094 1.187-.292a.92.92 0 0 0 .438-.812c0-.334-.146-.594-.438-.792-.281-.208-.739-.38-1.375-.52-.864-.21-1.495-.47-1.896-.792-.406-.334-.604-.771-.604-1.313 0-.594.219-1.068.667-1.417.458-.343 1.073-.52 1.854-.52.792 0 1.417.203 1.875.604.458.39.687.927.687 1.604h-.875c0-.427-.156-.76-.458-1-.307-.25-.719-.375-1.229-.375-.516 0-.917.104-1.208.312a.912.912 0 0 0-.417.792c0 .292.13.536.396.73.26.197.739.374 1.437.54.886.225 1.526.5 1.917.834.385.334.583.76.583 1.271 0 .615-.239 1.099-.708 1.458-.458.35-1.073.521-1.833.521Zm7.767-.125v-7.041h.896v7.041h-.896Z"/>
  </g>
</svg>
