<svg xmlns="http://www.w3.org/2000/svg" width="783" height="156" fill="none" viewBox="0 0 783 156">
  <path fill="#E6BE8A" d="M131.95 23.598c0-2.5.467-4.85 1.4-7.05.967-2.233 2.3-4.2 4-5.9a18.615 18.615 0 0 1 5.85-4.05c2.233-1 4.633-1.5 7.2-1.5 2.533 0 4.9.5 7.1 1.5 2.233.967 4.2 2.317 5.9 4.05a18.465 18.465 0 0 1 4.05 5.9c.967 2.2 1.45 4.55 1.45 7.05 0 2.567-.483 4.967-1.45 7.2a18.464 18.464 0 0 1-4.05 5.9 19.297 19.297 0 0 1-5.9 3.95c-2.2.933-4.567 1.4-7.1 1.4-2.567 0-4.967-.467-7.2-1.4a18.731 18.731 0 0 1-5.85-3.9 18.271 18.271 0 0 1-4-5.85c-.933-2.233-1.4-4.667-1.4-7.3Zm5 .05c0 1.9.35 3.683 1.05 5.35a14.204 14.204 0 0 0 2.9 4.35 13.877 13.877 0 0 0 4.3 3c1.633.7 3.4 1.05 5.3 1.05 1.867 0 3.617-.35 5.25-1.05a13.288 13.288 0 0 0 4.25-3 14.674 14.674 0 0 0 2.85-4.35c.7-1.667 1.05-3.467 1.05-5.4 0-1.9-.35-3.683-1.05-5.35-.7-1.7-1.667-3.183-2.9-4.45a13.2 13.2 0 0 0-4.3-2.95c-1.633-.733-3.383-1.1-5.25-1.1-1.9 0-3.667.367-5.3 1.1a13.88 13.88 0 0 0-4.3 3 13.237 13.237 0 0 0-2.85 4.45c-.667 1.667-1 3.45-1 5.35Zm51.621-2.7.4 5.05-.2-.8c.667-1.533 1.75-2.75 3.25-3.65 1.5-.933 3.233-1.4 5.2-1.4s3.567.583 4.8 1.75c1.267 1.133 1.917 2.617 1.95 4.45v15.3h-4.7v-13.65c-.033-1.133-.367-2.05-1-2.75-.6-.733-1.55-1.1-2.85-1.1-1.2 0-2.283.333-3.25 1-.967.667-1.733 1.583-2.3 2.75-.533 1.167-.8 2.517-.8 4.05v9.7h-4.65v-20.7h4.15Zm31.987-18h4.65v38.7h-4.65v-38.7Zm21.195 18h4.65v20.7h-4.65v-20.7Zm-.35-7.5c0-.733.283-1.35.85-1.85.6-.5 1.25-.75 1.95-.75s1.317.25 1.85.75c.567.5.85 1.117.85 1.85 0 .767-.283 1.4-.85 1.9-.533.467-1.15.7-1.85.7-.7 0-1.35-.25-1.95-.75-.567-.5-.85-1.117-.85-1.85Zm25.695 7.5.4 5.05-.2-.8c.667-1.533 1.75-2.75 3.25-3.65 1.5-.933 3.234-1.4 5.2-1.4 1.967 0 3.567.583 4.8 1.75 1.267 1.133 1.917 2.617 1.95 4.45v15.3h-4.7v-13.65c-.033-1.133-.366-2.05-1-2.75-.6-.733-1.55-1.1-2.85-1.1-1.2 0-2.283.333-3.25 1-.966.667-1.733 1.583-2.3 2.75-.533 1.167-.8 2.517-.8 4.05v9.7h-4.65v-20.7h4.15Zm41.587 21.2c-2.367 0-4.4-.467-6.1-1.4-1.7-.967-3.017-2.267-3.95-3.9-.9-1.667-1.35-3.567-1.35-5.7 0-2.033.517-3.883 1.55-5.55 1.033-1.667 2.417-3 4.15-4 1.733-1 3.667-1.5 5.8-1.5 2.733 0 5 .8 6.8 2.4 1.8 1.6 3.017 3.8 3.65 6.6l-17.05 6-1.1-2.75 14-5.1-1 .65c-.4-1.1-1.067-2.05-2-2.85-.933-.833-2.15-1.25-3.65-1.25-1.267 0-2.4.317-3.4.95-1 .6-1.783 1.433-2.35 2.5-.567 1.067-.85 2.283-.85 3.65 0 1.433.3 2.7.9 3.8a6.92 6.92 0 0 0 2.45 2.55c1.067.6 2.267.9 3.6.9.9 0 1.767-.167 2.6-.5a10.402 10.402 0 0 0 2.4-1.3l2.15 3.45c-1.033.7-2.2 1.267-3.5 1.7-1.267.433-2.517.65-3.75.65Z"/>
  <path fill="#B8860B" d="M101.84 108.224c-1.52 1.317-3.648 2.635-6.384 3.952-2.736 1.216-5.776 2.331-9.12 3.344a78.736 78.736 0 0 1-10.184 2.432c-3.445.608-6.688.912-9.728.912-8.816 0-16.77-1.368-23.864-4.104-6.992-2.736-13.021-6.536-18.088-11.4-4.965-4.864-8.816-10.59-11.552-17.176-2.635-6.587-3.952-13.73-3.952-21.432 0-9.12 1.47-17.277 4.408-24.472 3.04-7.296 7.144-13.427 12.312-18.392 5.27-5.067 11.299-8.867 18.088-11.4 6.79-2.635 13.984-3.952 21.584-3.952 6.384 0 12.312.76 17.784 2.28 5.472 1.52 10.285 3.445 14.44 5.776L92.568 28.12c-2.027-1.216-4.56-2.33-7.6-3.344a66.99 66.99 0 0 0-9.12-2.432c-3.141-.71-6.08-1.064-8.816-1.064-6.485 0-12.363 1.013-17.632 3.04-5.27 1.925-9.779 4.763-13.528 8.512-3.75 3.648-6.637 8.107-8.664 13.376-2.027 5.168-3.04 10.995-3.04 17.48 0 5.979 1.013 11.45 3.04 16.416 2.027 4.965 4.915 9.272 8.664 12.92 3.75 3.547 8.208 6.333 13.376 8.36 5.27 1.925 11.045 2.888 17.328 2.888 3.75 0 7.448-.355 11.096-1.064 3.648-.811 6.79-1.925 9.424-3.344V77.976H65.208V63.84h36.632v44.384Zm44.836-53.504 1.368 18.24-.76-2.432c1.622-3.85 3.952-7.093 6.992-9.728 3.142-2.736 6.384-4.813 9.728-6.232 3.446-1.52 6.435-2.28 8.968-2.28l-.76 13.984c-4.762-.304-8.968.608-12.616 2.736a24.458 24.458 0 0 0-8.512 8.512c-2.026 3.547-3.04 7.347-3.04 11.4v28.728H134.06V54.72h12.616Zm76.793 64.448c-5.878 0-11.249-1.267-16.113-3.8-4.762-2.533-8.562-6.232-11.4-11.096-2.736-4.965-4.104-10.995-4.104-18.088 0-6.992 1.47-13.021 4.408-18.088 2.939-5.168 6.84-9.12 11.704-11.856 4.966-2.736 10.387-4.104 16.264-4.104 5.878 0 10.843 1.368 14.896 4.104 4.054 2.635 7.145 5.776 9.273 9.424l-.913 2.432 1.368-13.376h13.073v62.928h-14.137v-16.416l1.52 3.648c-.405 1.013-1.317 2.331-2.735 3.952-1.318 1.52-3.142 3.091-5.473 4.712-2.229 1.621-4.813 2.989-7.752 4.104-2.938 1.013-6.232 1.52-9.879 1.52Zm3.8-11.704c3.546 0 6.738-.659 9.576-1.976 2.837-1.317 5.167-3.141 6.992-5.472 1.925-2.432 3.242-5.32 3.951-8.664V79.04c-.81-3.04-2.229-5.675-4.255-7.904a19.979 19.979 0 0 0-7.297-5.32c-2.837-1.317-5.978-1.976-9.424-1.976-3.749 0-7.194.912-10.336 2.736-3.141 1.824-5.674 4.357-7.6 7.6-1.824 3.243-2.736 7.043-2.736 11.4 0 4.053.963 7.752 2.888 11.096 1.926 3.344 4.51 5.979 7.752 7.904 3.243 1.925 6.739 2.888 10.489 2.888Zm79.334-52.744 1.216 14.136-.608-1.216c2.331-4.763 5.624-8.512 9.88-11.248 4.357-2.736 9.323-4.104 14.896-4.104 3.547 0 6.688.557 9.424 1.672 2.736 1.115 4.965 2.736 6.688 4.864 1.824 2.027 2.989 4.56 3.496 7.6l-.76.456c2.432-4.56 5.776-8.107 10.032-10.64 4.357-2.635 8.917-3.952 13.68-3.952 6.181 0 11.045 1.773 14.592 5.32 3.648 3.445 5.523 7.955 5.624 13.528v46.512h-14.136V76.152c-.101-3.243-.912-5.928-2.432-8.056-1.419-2.23-3.952-3.445-7.6-3.648-3.648 0-6.941 1.115-9.88 3.344-2.837 2.23-5.067 5.117-6.688 8.664-1.621 3.445-2.483 7.195-2.584 11.248v29.944h-14.136V76.152c-.101-3.243-.963-5.928-2.584-8.056-1.52-2.23-4.104-3.445-7.752-3.648-3.749 0-7.043 1.115-9.88 3.344-2.837 2.23-5.067 5.117-6.688 8.664-1.52 3.547-2.28 7.347-2.28 11.4v29.792h-14.136V54.72h12.616Zm128.261 62.928L482.896 3.192h.912l47.88 114.456h-16.872l-35.872-91.352 10.488-6.84-40.128 98.192h-14.44ZM462.984 76h40.888l4.864 12.768h-50.008L462.984 76ZM556.49 0h14.136v117.648H556.49V0Zm52.274 27.056H622.9v27.968h17.328V66.12H622.9v51.528h-14.136V66.12h-11.552V55.024h11.552V27.056Zm56.145 27.664h14.136v62.928h-14.136V54.72Zm58.81 0 1.216 15.352-.608-2.432c2.026-4.661 5.32-8.36 9.88-11.096 4.56-2.837 9.829-4.256 15.808-4.256 5.978 0 10.842 1.773 14.592 5.32 3.85 3.445 5.826 7.955 5.928 13.528v46.512h-14.288V76.152c-.102-3.445-1.115-6.232-3.04-8.36-1.824-2.23-4.712-3.344-8.664-3.344-3.648 0-6.942 1.013-9.88 3.04-2.939 2.027-5.27 4.813-6.992 8.36-1.622 3.547-2.432 7.65-2.432 12.312v29.488h-14.136V54.72h12.616Z"/>
</svg>
